<?xml version="1.0" encoding="utf-8"?><svg xmlns="http://www.w3.org/2000/svg" xmlns:xlink="http://www.w3.org/1999/xlink"><symbol viewBox="0 0 27 27" id="BG_Vector" xmlns="http://www.w3.org/2000/svg">
    <path fill-rule="evenodd" clip-rule="evenodd" d="M0 13.5C0 20.942 6.05516 27 13.5 27C20.942 27 27 20.942 27 13.5C27 6.05798 20.942 0 13.5 0C6.05799 0 0 6.05798 0 13.5ZM5.01349 4.1929C7.25443 2.14778 10.2341 0.89905 13.5 0.89905C16.765 0.89905 19.7438 2.14702 21.9845 4.19103L20.9825 5.19303C19.0012 3.40726 16.3776 2.32031 13.5 2.32031C10.6214 2.32031 7.99701 3.40801 6.01547 5.19488L5.01349 4.1929ZM4.19133 5.01521C2.14714 7.25594 0.89905 10.2349 0.89905 13.5C0.89905 16.7648 2.14693 19.7435 4.1908 21.9842L5.19278 20.9822C3.40716 19.0009 2.32031 16.3775 2.32031 13.5C2.32031 10.6222 3.40738 7.99854 5.19332 6.01719L4.19133 5.01521ZM5.0129 22.8065C7.25391 24.852 10.2338 26.1009 13.5 26.1009C16.7646 26.1009 19.7431 24.8532 21.9837 22.8096L20.9817 21.8077C19.0005 23.593 16.3773 24.6797 13.5 24.6797C10.6211 24.6797 7.99648 23.5918 6.01487 21.8046L5.0129 22.8065ZM26.101 13.5C26.101 16.7665 24.8518 19.7465 22.8061 21.9876L21.8042 20.9856C23.5916 19.0039 24.6797 16.3792 24.6797 13.5C24.6797 10.6212 23.5919 7.99673 21.8048 6.01515L22.8068 5.01317C24.8521 7.25414 26.101 10.2339 26.101 13.5Z"/>
</symbol><symbol viewBox="0 0 32 31" id="bg" xmlns="http://www.w3.org/2000/svg">
    <path fill-rule="evenodd" clip-rule="evenodd" d="M0 16C0 24.8202 7.17648 32 16 32C24.8202 32 32 24.8202 32 16C32 7.17982 24.8202 0 16 0C7.17984 0 0 7.17982 0 16ZM5.94191 4.96936C8.59784 2.54552 12.1292 1.06554 16 1.06554C19.8696 1.06554 23.4 2.54462 26.0557 4.96715L24.8681 6.1547C22.5199 4.03823 19.4105 2.75 16 2.75C12.5883 2.75 9.47794 4.03912 7.12944 6.15689L5.94191 4.96936ZM4.96751 5.94395C2.54476 8.59964 1.06554 12.1302 1.06554 16C1.06554 19.8694 2.54451 23.3997 4.96688 26.0553L6.15441 24.8678C4.03812 22.5196 2.75 19.4104 2.75 16C2.75 12.5893 4.03837 9.47974 6.15505 7.13149L4.96751 5.94395ZM5.94122 27.03C8.59723 29.4542 12.1289 30.9344 16 30.9344C19.8692 30.9344 23.3992 29.4557 26.0548 27.0337L24.8672 25.8461C22.5191 27.9621 19.4101 29.25 16 29.25C12.5879 29.25 9.47731 27.9606 7.12874 25.8425L5.94122 27.03ZM30.9345 16C30.9345 19.8714 29.454 23.4033 27.0295 26.0593L25.842 24.8718C27.9604 22.5232 29.25 19.4123 29.25 16C29.25 12.5881 27.9607 9.47761 25.8428 7.12907L27.0303 5.94154C29.4543 8.5975 30.9345 12.129 30.9345 16Z"/>
</symbol><symbol viewBox="0 0 100 221" id="big__coin" xmlns="http://www.w3.org/2000/svg">
    <path d="M98.611 171.065C98.611 198.112 76.602 220.121 49.5555 220.121C22.509 220.121 0.5 198.112 0.5 171.065C0.5 144.018 22.509 122.01 49.5555 122.01C76.602 122.01 98.611 144.018 98.611 171.065ZM3.07015 171.065C3.07015 196.697 23.9239 217.55 49.5555 217.55C75.1871 217.55 96.0408 196.697 96.0408 171.065C96.0408 145.433 75.1871 124.58 49.5555 124.58C23.9239 124.58 3.07015 145.433 3.07015 171.065Z"/>
    <path d="M98.6319 49.4293H98.6136V49.9293C98.6136 50.6401 98.0379 51.2092 97.3338 51.2092C96.6315 51.2092 96.0539 50.6315 96.0539 49.9293C96.0539 24.2977 75.2001 3.44393 49.5685 3.44393C23.9369 3.44393 3.08317 24.2977 3.08317 49.9293C3.08317 50.6401 2.50745 51.2092 1.80327 51.2092C1.10103 51.2092 0.523438 50.6316 0.523438 49.9293C0.523438 22.8828 22.5324 0.873779 49.5789 0.873779C76.4586 0.873779 98.3627 22.612 98.6319 49.4293Z"/>
    <path d="M43.9881 158.846H45.882V166.354L43.1417 165.667L43.14 165.667C41.6818 165.307 40.6367 164.057 40.5224 162.581V162.311C40.5224 160.402 42.0784 158.846 43.9881 158.846Z"/>
    <path d="M55.9593 176.463L55.9593 176.463L55.961 176.463C57.5073 176.845 58.5891 178.227 58.5891 179.819C58.5891 181.728 57.0331 183.284 55.1234 183.284H53.219V175.776L55.9593 176.463Z"/>
    <path d="M65.4608 165.205H65.9608V164.705V161.52C65.9608 155.977 61.4589 151.476 55.916 151.476H53.231V143.919V143.419H52.731H46.3713H45.8713V143.919V151.476H43.9773C38.0077 151.476 33.152 156.331 33.152 162.301C33.152 167.277 36.5247 171.588 41.347 172.799L41.3473 172.799L45.8713 173.932V183.284H43.1863C41.7044 183.284 40.5012 182.073 40.5012 180.599V177.414V176.914H40.0012H33.6416H33.1416V177.414V180.599C33.1416 186.142 37.6434 190.644 43.1863 190.644H45.8713V198.2V198.7H46.3713H52.731H53.231V198.2V190.644H55.125C61.0947 190.644 65.9504 185.788 65.9504 179.819C65.9504 174.842 62.5776 170.532 57.7553 169.321L57.755 169.321L53.231 168.187V158.835H55.916C57.3979 158.835 58.6011 160.047 58.6011 161.52V164.705V165.205H59.1011H65.4608ZM9.7229 171.075C9.7229 149.108 27.5996 131.242 49.5564 131.242C71.5235 131.242 89.3898 149.108 89.3898 171.075C89.3898 193.043 71.5235 210.909 49.5564 210.909C27.5893 210.909 9.7229 193.043 9.7229 171.075Z"/>
    <path d="M99.173 49.1695V168.765C99.173 169.754 98.3716 170.545 97.3932 170.545C96.4148 170.545 95.6133 169.743 95.6133 168.765V49.1695C95.6133 48.1807 96.4148 47.3896 97.3932 47.3896C98.3716 47.3896 99.173 48.1911 99.173 49.1695Z"/>
    <path d="M3.63786 48.9092V168.504C3.63786 169.493 2.83637 170.284 1.85796 170.284C0.879549 170.284 0.078125 169.483 0.078125 168.504V48.9092C0.078125 47.9204 0.879549 47.1294 1.85796 47.1294C2.83637 47.1294 3.63786 47.9308 3.63786 48.9092Z"/>
</symbol><symbol viewBox="0 0 101 101" id="crown" xmlns="http://www.w3.org/2000/svg">
    <path d="M14.8281 85.4517C-4.66161 65.962 -4.66161 34.2533 14.8281 14.7635C34.3178 -4.72619 66.0265 -4.72619 85.5163 14.7635C105.006 34.2533 105.006 65.962 85.5163 85.4517C66.0265 104.941 34.3178 104.941 14.8281 85.4517ZM83.1606 17.1192C64.9696 -1.07187 35.3748 -1.07187 17.1885 17.1192C-1.00256 35.3102 -1.00256 64.905 17.1885 83.0913C35.3795 101.282 64.9743 101.282 83.1606 83.0913C101.352 64.9003 101.352 35.3055 83.1606 17.1192Z"/>
    <path d="M83.7002 39.5049C83.5248 39.3295 83.3827 39.1068 83.3021 38.8603C81.5721 33.7414 78.7472 29.2055 74.908 25.3663C71.0736 21.5319 66.5329 18.707 61.414 16.9723C60.7363 16.74 60.2812 16.1097 60.2812 15.394V3.24606C60.2812 2.73417 60.5182 2.25071 60.9211 1.93315C61.3287 1.61559 61.8548 1.50658 62.3478 1.62982C71.0973 3.81957 79.1074 8.36021 85.506 14.7636C91.9046 21.1669 96.4453 29.1723 98.6351 37.9218C98.7583 38.4195 98.6446 38.9456 98.3317 39.3532C98.0142 39.7608 97.5307 39.9931 97.0188 39.9931H84.8709C84.4159 39.9931 83.9988 39.8082 83.6907 39.5002L83.7002 39.5049ZM77.2636 23.0107C81.1786 26.9257 84.1315 31.5137 86.0558 36.6611H94.8433C92.6346 29.305 88.62 22.5841 83.1551 17.1192C77.6902 11.6543 70.9693 7.63978 63.618 5.43581V14.2233C68.7654 16.1428 73.3534 19.0957 77.2684 23.0154L77.2636 23.0107Z"/>
    <path d="M14.8269 85.4516C8.42831 79.053 3.88291 71.0429 1.69316 62.2933C1.56992 61.7957 1.68368 61.2696 1.99651 60.8667C2.31407 60.4591 2.7975 60.2268 3.30939 60.2268H15.4573C16.173 60.2268 16.8081 60.6818 17.0356 61.3596C18.7656 66.4785 21.5905 71.0144 25.4296 74.8536C29.2641 78.688 33.8048 81.5129 38.9237 83.2476C39.6015 83.4751 40.0564 84.1103 40.0564 84.826V96.9739C40.0564 97.4857 39.8194 97.9692 39.4166 98.2868C39.0089 98.6043 38.4828 98.7133 37.9852 98.5901C29.2356 96.4003 21.2303 91.8597 14.8269 85.4611V85.4516ZM5.49442 63.5541C7.70313 70.9101 11.7177 77.6311 17.1826 83.0959C22.6475 88.5608 29.3684 92.5754 36.7244 94.7841V85.9967C31.5771 84.0771 26.989 81.1242 23.074 77.2092C19.159 73.2942 16.2062 68.7062 14.2818 63.5588H5.49442V63.5541Z"/>
    <path d="M60.7773 98.1447C60.4644 97.8319 60.2891 97.4101 60.2891 96.9646V84.8167C60.2891 84.101 60.7441 83.4659 61.4219 83.2383C66.5408 81.5083 71.0767 78.6835 74.9158 74.8443C78.755 71.0051 81.5751 66.4692 83.3098 61.3503C83.5374 60.6725 84.1725 60.2175 84.8882 60.2175H97.0361C97.548 60.2175 98.0315 60.4545 98.349 60.8574C98.6666 61.2603 98.7756 61.7911 98.6524 62.284C96.4579 71.0336 91.9172 79.0389 85.5186 85.4423C79.12 91.8457 71.1098 96.3863 62.3603 98.5761C61.8626 98.6993 61.3365 98.5855 60.9337 98.2727C60.8815 98.2253 60.8294 98.1827 60.782 98.1353L60.7773 98.1447ZM63.6211 85.9921V94.7795C70.9771 92.5708 77.6981 88.5563 83.1629 83.0914C88.6278 77.6265 92.6377 70.9056 94.8511 63.5495H86.0637C84.1441 68.6969 81.1912 73.2802 77.2715 77.1999C73.3564 81.1149 68.7684 84.0725 63.6211 85.9921Z"/>
    <path d="M2.12995 39.5049C2.08255 39.4575 2.03517 39.4054 1.99725 39.3532C1.67969 38.9503 1.57067 38.4195 1.6939 37.9218C3.88365 29.1723 8.42431 21.1622 14.8277 14.7636C21.231 8.36494 29.2364 3.81955 37.9859 1.6298C38.4836 1.50657 39.0097 1.62032 39.4126 1.93314C39.8154 2.2507 40.0525 2.73416 40.0525 3.24605V15.394C40.0525 16.1096 39.5975 16.7448 38.9197 16.9723C33.8008 18.7023 29.2648 21.5271 25.4256 25.3663C21.5912 29.2007 18.7664 33.7414 17.0316 38.8603C16.8041 39.5381 16.169 39.9931 15.4533 39.9931H3.30542C2.85988 39.9931 2.43328 39.8177 2.1252 39.5096L2.12995 39.5049ZM36.7204 5.4358C29.3644 7.64451 22.6434 11.6591 17.1786 17.1239C11.7137 22.5888 7.70387 29.3098 5.49042 36.6658H14.2778C16.1974 31.5185 19.1503 26.9352 23.07 23.0154C26.985 19.1004 31.5731 16.1476 36.7204 14.2232V5.4358Z"/>
    <path d="M77.2676 23.0107C62.328 8.07108 38.0133 8.06634 23.0737 23.0107C8.12933 37.955 8.13407 62.265 23.0737 77.2046C38.0133 92.1442 62.3232 92.1489 77.2676 77.2046C92.2119 62.2603 92.2072 37.9503 77.2676 23.0107Z"/>
    <path d="M63.9943 63.7852L36.4666 63.9678C35.307 63.9755 34.3732 64.9217 34.3809 66.0813L34.3874 67.0624C34.3951 68.222 35.3414 69.1558 36.501 69.1482L64.0286 68.9656C65.1882 68.9579 66.1221 68.0116 66.1144 66.852L66.1079 65.8709C66.1002 64.7113 65.1539 63.7775 63.9943 63.7852Z"/>
    <path d="M40.2172 47.1689C39.9186 47.1689 39.6152 47.1026 39.3403 46.9699L37.1932 45.9319C36.2595 45.4769 35.8329 44.3725 36.2216 43.4104L37.2075 40.9552C37.5108 40.2063 38.2265 39.7181 39.0323 39.7134C39.3783 39.7134 39.7195 39.7987 40.0228 39.9741L42.5823 41.4339C43.061 41.7041 43.407 42.1733 43.5302 42.7136C43.6535 43.2539 43.5445 43.8227 43.2316 44.2777L41.8287 46.3111C41.4637 46.8419 40.857 47.1642 40.2124 47.1642L40.2172 47.1689Z"/>
    <path d="M60.032 47.0365C59.3874 47.0365 58.776 46.7284 58.4063 46.2023L57.0176 44.2448C56.6953 43.7945 56.5816 43.2257 56.6953 42.6854C56.8091 42.1451 57.1503 41.6711 57.629 41.3915L60.269 39.8416C60.5676 39.6662 60.9089 39.5714 61.2549 39.5667C62.0607 39.5619 62.7859 40.0406 63.0987 40.7848L64.094 43.1689C64.4921 44.1263 64.0798 45.2401 63.1555 45.7046L60.9089 46.8279C60.6388 46.9606 60.3354 47.0365 60.0368 47.0365H60.032Z"/>
    <path d="M38.0546 62.1276C36.846 62.1371 35.7606 61.3787 35.3482 60.2412L30.7555 47.6003C30.4616 47.7425 30.1488 47.8516 29.8312 47.9321C29.4568 48.0269 29.0776 48.0743 28.6937 48.0743C28.4709 48.0743 28.2529 48.0648 28.0396 48.0364C25.646 47.7331 23.8307 45.6808 23.8165 43.2635C23.7976 40.5903 25.9588 38.4006 28.632 38.3816C31.3052 38.3626 33.495 40.524 33.5092 43.1972C33.5092 43.8133 33.4049 44.4058 33.1869 44.9603C33.0684 45.2637 32.9215 45.5528 32.7509 45.8277L41.4862 50.0555L48.1692 40.3723C47.8896 40.2538 47.6194 40.1069 47.3634 39.9315C46.88 39.6044 46.4581 39.1968 46.1169 38.7181C45.5386 37.9029 45.2258 36.9407 45.2211 35.9454C45.2021 33.2722 47.3634 31.0824 50.0366 31.0635C50.1551 31.0635 50.2784 31.0635 50.3969 31.073C52.7904 31.2341 54.7242 33.1537 54.8996 35.5472C54.9802 36.68 54.6816 37.7654 54.037 38.6897C53.6957 39.1731 53.2786 39.5855 52.7999 39.9125C52.5487 40.0879 52.2785 40.2348 51.9989 40.3533L58.8004 49.937L67.3935 45.6381C67.2323 45.33 67.1044 45.0077 67.0096 44.6712C66.8958 44.2636 66.8342 43.837 66.8342 43.4057C66.8342 43.2114 66.8437 43.017 66.8626 42.8275C67.1375 40.3912 69.1946 38.5428 71.645 38.5285C74.3182 38.5096 76.508 40.6709 76.5222 43.3441C76.5411 45.8941 74.5599 48.0364 72.0147 48.2118L71.7114 48.2212C71.2184 48.2212 70.735 48.1549 70.2658 48.0127C69.9624 47.9179 69.6685 47.7994 69.3936 47.6477L65.0805 60.0421C64.6871 61.1844 63.6064 61.9522 62.3978 61.9617L38.0546 62.1228V62.1276Z"/>
</symbol><symbol viewBox="0 0 100 221" id="crown-big" xmlns="http://www.w3.org/2000/svg">
    <path d="M14.617 206.26C-4.87267 186.77 -4.87267 155.061 14.617 135.572C34.1068 116.082 65.8155 116.082 85.3052 135.572C104.795 155.061 104.795 186.77 85.3052 206.26C65.8155 225.75 34.1068 225.75 14.617 206.26ZM82.9496 137.927C64.7585 119.736 35.1637 119.736 16.9774 137.927C-1.21362 156.118 -1.21362 185.713 16.9774 203.899C35.1685 222.09 64.7633 222.09 82.9496 203.899C101.141 185.708 101.141 156.114 82.9496 137.927Z"/>
    <path d="M83.4928 160.313C83.3175 160.138 83.1753 159.915 83.0947 159.668C81.3647 154.55 78.5398 150.014 74.7006 146.174C70.8662 142.34 66.3255 139.515 61.2067 137.78C60.5289 137.548 60.0739 136.918 60.0739 136.202V124.054C60.0739 123.542 60.3108 123.059 60.7137 122.741C61.1213 122.424 61.6474 122.315 62.1404 122.438C70.8899 124.628 78.9 129.168 85.2986 135.572C91.6972 141.975 96.2379 149.98 98.4277 158.73C98.5509 159.228 98.4372 159.754 98.1243 160.161C97.8068 160.569 97.3233 160.801 96.8114 160.801H84.6635C84.2085 160.801 83.7914 160.616 83.4833 160.308L83.4928 160.313ZM77.0562 143.819C80.9713 147.734 83.9241 152.322 85.8484 157.469H94.6359C92.4272 150.113 88.4126 143.392 82.9477 137.927C77.4828 132.462 70.7619 128.448 63.4106 126.244V135.031C68.558 136.951 73.146 139.904 77.061 143.824L77.0562 143.819Z"/>
    <path d="M14.6157 206.26C8.21713 199.861 3.67173 191.851 1.48198 183.101C1.35874 182.604 1.4725 182.078 1.78532 181.675C2.10289 181.267 2.58632 181.035 3.09821 181.035H15.2461C15.9618 181.035 16.5969 181.49 16.8244 182.168C18.5544 187.287 21.3793 191.823 25.2185 195.662C29.0529 199.496 33.5936 202.321 38.7125 204.056C39.3903 204.283 39.8452 204.918 39.8452 205.634V217.782C39.8452 218.294 39.6083 218.777 39.2054 219.095C38.7978 219.412 38.2717 219.521 37.774 219.398C29.0245 217.208 21.0191 212.668 14.6157 206.269V206.26ZM5.28324 184.362C7.49195 191.718 11.5065 198.439 16.9714 203.904C22.4363 209.369 29.1572 213.384 36.5133 215.592V206.805C31.3659 204.885 26.7778 201.932 22.8628 198.017C18.9478 194.102 15.995 189.514 14.0707 184.367H5.28324V184.362Z"/>
    <path d="M60.5621 218.953C60.2492 218.64 60.0739 218.218 60.0739 217.773V205.625C60.0739 204.909 60.5289 204.274 61.2067 204.046C66.3255 202.316 70.8614 199.492 74.7006 195.652C78.5398 191.813 81.3599 187.277 83.0946 182.158C83.3221 181.481 83.9573 181.026 84.673 181.026H96.8209C97.3328 181.026 97.8163 181.263 98.1338 181.665C98.4514 182.068 98.5604 182.599 98.4372 183.092C96.2427 191.842 91.702 199.847 85.3034 206.25C78.9047 212.654 70.8946 217.194 62.1451 219.384C61.6474 219.507 61.1213 219.394 60.7184 219.081C60.6663 219.033 60.6142 218.991 60.5668 218.943L60.5621 218.953ZM63.4059 206.8V215.588C70.7619 213.379 77.4828 209.364 82.9477 203.9C88.4126 198.435 92.4224 191.714 94.6359 184.358H85.8484C83.9289 189.505 80.976 194.088 77.0562 198.008C73.1412 201.923 68.5532 204.881 63.4059 206.8Z"/>
    <path d="M1.91877 160.313C1.87137 160.266 1.82399 160.213 1.78607 160.161C1.46851 159.758 1.35949 159.228 1.48272 158.73C3.67247 149.98 8.21313 141.97 14.6165 135.572C21.0199 129.173 29.0252 124.628 37.7747 122.438C38.2724 122.315 38.7985 122.428 39.2014 122.741C39.6043 123.059 39.8413 123.542 39.8413 124.054V136.202C39.8413 136.918 39.3863 137.553 38.7085 137.78C33.5896 139.51 29.0536 142.335 25.2145 146.174C21.38 150.009 18.5552 154.549 16.8204 159.668C16.5929 160.346 15.9578 160.801 15.2421 160.801H3.09424C2.6487 160.801 2.2221 160.626 1.91402 160.318L1.91877 160.313ZM36.5093 126.244C29.1532 128.453 22.4323 132.467 16.9674 137.932C11.5025 143.397 7.49269 150.118 5.27924 157.474H14.0667C15.9863 152.327 18.9391 147.743 22.8588 143.824C26.7738 139.909 31.3619 136.956 36.5093 135.031V126.244Z"/>
    <path d="M77.0603 143.819C62.1207 128.879 37.806 128.874 22.8664 143.819C7.92205 158.763 7.92679 183.073 22.8664 198.013C37.806 212.952 62.116 212.957 77.0603 198.013C92.0046 183.068 91.9999 158.758 77.0603 143.819Z"/>
    <path d="M63.7793 184.593L36.2517 184.776C35.092 184.784 34.1582 185.73 34.1659 186.889L34.1724 187.871C34.1801 189.03 35.1264 189.964 36.286 189.956L63.8137 189.774C64.9733 189.766 65.9071 188.82 65.8994 187.66L65.8929 186.679C65.8852 185.519 64.9389 184.586 63.7793 184.593Z"/>
    <path d="M40.0021 167.977C39.7035 167.977 39.4002 167.911 39.1253 167.778L36.9781 166.74C36.0444 166.285 35.6178 165.181 36.0065 164.218L36.9924 161.763C37.2957 161.014 38.0114 160.526 38.8172 160.521C39.1632 160.521 39.5044 160.607 39.8077 160.782L42.3672 162.242C42.8459 162.512 43.1919 162.981 43.3152 163.522C43.4384 164.062 43.3294 164.631 43.0165 165.086L41.6136 167.119C41.2487 167.65 40.642 167.972 39.9973 167.972L40.0021 167.977Z"/>
    <path d="M59.8208 167.844C59.1762 167.844 58.5649 167.536 58.1952 167.01L56.8064 165.053C56.4841 164.602 56.3704 164.034 56.4841 163.493C56.5979 162.953 56.9391 162.479 57.4178 162.199L60.0578 160.65C60.3564 160.474 60.6977 160.379 61.0437 160.375C61.8495 160.37 62.5747 160.849 62.8875 161.593L63.8828 163.977C64.281 164.934 63.8686 166.048 62.9444 166.513L60.6977 167.636C60.4276 167.769 60.1242 167.844 59.8256 167.844H59.8208Z"/>
    <path d="M37.8395 182.936C36.6309 182.945 35.5455 182.187 35.1332 181.049L30.5404 168.408C30.2465 168.551 29.9337 168.66 29.6161 168.74C29.2417 168.835 28.8625 168.882 28.4786 168.882C28.2558 168.882 28.0378 168.873 27.8245 168.844C25.4309 168.541 23.6157 166.489 23.6014 164.071C23.5825 161.398 25.7438 159.209 28.417 159.19C31.0902 159.171 33.2799 161.332 33.2941 164.005C33.2941 164.621 33.1898 165.214 32.9718 165.768C32.8533 166.072 32.7064 166.361 32.5358 166.636L41.2711 170.864L47.9541 161.18C47.6745 161.062 47.4043 160.915 47.1483 160.739C46.6649 160.412 46.243 160.005 45.9018 159.526C45.3235 158.711 45.0107 157.749 45.006 156.753C44.987 154.08 47.1483 151.89 49.8215 151.871C49.94 151.871 50.0633 151.871 50.1818 151.881C52.5753 152.042 54.5091 153.962 54.6845 156.355C54.7651 157.488 54.4665 158.573 53.8219 159.498C53.4806 159.981 53.0635 160.393 52.5848 160.721C52.3336 160.896 52.0634 161.043 51.7838 161.161L58.5853 170.745L67.1784 166.446C67.0172 166.138 66.8893 165.816 66.7945 165.479C66.6807 165.072 66.6191 164.645 66.6191 164.214C66.6191 164.019 66.6286 163.825 66.6475 163.635C66.9224 161.199 68.9795 159.351 71.4299 159.337C74.1031 159.318 76.2929 161.479 76.3071 164.152C76.326 166.702 74.3448 168.844 71.7996 169.02L71.4963 169.029C71.0033 169.029 70.5199 168.963 70.0507 168.821C69.7473 168.726 69.4534 168.607 69.1785 168.456L64.8654 180.85C64.472 181.992 63.3913 182.76 62.1827 182.77L37.8395 182.931V182.936Z"/>
    <path d="M99.5402 50.0401V169.635C99.5402 170.624 98.7387 171.415 97.7603 171.415C96.7819 171.415 95.9805 170.614 95.9805 169.635V50.0401C95.9805 49.0513 96.7819 48.2603 97.7603 48.2603C98.7387 48.2603 99.5402 49.0617 99.5402 50.0401Z"/>
    <path d="M3.99724 49.7799V169.375C3.99724 170.364 3.19581 171.155 2.2174 171.155C1.23899 171.155 0.4375 170.354 0.4375 169.375V49.7799C0.4375 48.791 1.23899 48 2.2174 48C3.19581 48 3.99724 48.8015 3.99724 49.7799Z"/>
    <path d="M99.4975 49.6971H99.479V50.1971C99.479 50.9225 98.8942 51.5 98.1832 51.5C97.474 51.5 96.8873 50.9138 96.8873 50.1971C96.8873 24.2391 75.8503 3.11637 49.9895 3.11637C24.1286 3.11637 3.09167 24.2391 3.09167 50.1971C3.09167 50.9225 2.5069 51.5 1.7958 51.5C1.08663 51.5 0.5 50.9139 0.5 50.1971C0.5 22.7949 22.7102 0.5 50 0.5C77.1236 0.5 99.2293 22.5243 99.4975 49.6971Z"/>
</symbol><symbol viewBox="0 0 1133 1265" id="dot-light1" xmlns="http://www.w3.org/2000/svg">
    <g opacity="0.55" filter="url(#ffilter0_f_1_5905)">
        <path d="M427.543 539.728C716.38 747.191 859.015 915.806 828.448 958.362C797.881 1000.92 512.211 879.363 223.374 671.9C-65.4628 464.437 -260.309 241.537 -244.265 219.201C-228.222 196.865 138.706 332.266 427.543 539.728Z"/>
    </g>
    <defs>
        <filter id="ffilter0_f_1_5905" x="-545.187" y="-83.2024" width="1677.7" height="1350.02" filterUnits="userSpaceOnUse" color-interpolation-filters="sRGB">
            <feFlood flood-opacity="0" result="BackgroundImageFix"/>
            <feBlend mode="normal" in="SourceGraphic" in2="BackgroundImageFix" result="shape"/>
            <feGaussianBlur stdDeviation="150" result="effect1_foregroundBlur_1_5905"/>
        </filter>
        <linearGradient id="fpaint0_linear_1_5905" x1="-233.556" y1="204.291" x2="824.309" y2="964.124" gradientUnits="userSpaceOnUse">
            <stop stop-color="#F947BC"/>
            <stop offset="1" stop-color="#F9477C" stop-opacity="0.4"/>
        </linearGradient>
    </defs>
</symbol><symbol viewBox="0 0 15 15" id="facebook" xmlns="http://www.w3.org/2000/svg">
    <path d="M9.24928 3.74276H10.3068V1.95401C9.79476 1.90077 9.2803 1.87448 8.76553 1.87526C7.23553 1.87526 6.18928 2.80901 6.18928 4.51901V5.99276H4.4624V7.99526H6.18928V13.1253H8.25928V7.99526H9.98053L10.2393 5.99276H8.25928V4.71589C8.25928 4.12526 8.41678 3.74276 9.24928 3.74276Z"/>
</symbol><symbol viewBox="0 0 100 100" id="fishka" xmlns="http://www.w3.org/2000/svg">
    <path d="M49.7325 100C37.0339 100 24.3458 95.1705 14.6762 85.5009C-4.65264 66.1721 -4.65264 34.7276 14.6762 15.3987C24.044 6.03095 36.4927 0.878662 49.7325 0.878662C62.9722 0.878662 75.421 6.03095 84.7888 15.3987C104.118 34.7276 104.118 66.1721 84.7888 85.5009C75.1296 95.1601 62.431 100 49.7325 100ZM17.2784 82.8988C35.1708 100.791 64.2838 100.791 82.1762 82.8988C100.069 65.0063 100.069 35.8933 82.1762 18.0009C73.5058 9.33049 61.9835 4.56336 49.7221 4.56336C37.4607 4.56336 25.9383 9.3409 17.2679 18.0009C-0.624513 35.8933 -0.624513 65.0063 17.2679 82.8988H17.2784Z"/>
    <path d="M49.0769 68.9929C49.2538 69.4196 49.6701 69.6693 50.1073 69.6693C50.253 69.6693 50.3987 69.6382 50.5445 69.5861C54.0418 68.1185 57.2268 65.8493 59.7457 63.0182C60.1517 62.5602 60.11 61.8525 59.652 61.4466C59.194 61.0407 58.4862 61.0823 58.0803 61.5403C55.78 64.132 52.876 66.2033 49.6805 67.5356C49.1185 67.775 48.8478 68.4308 49.0872 68.9929H49.0769Z"/>
    <path d="M68.6225 33.312L50.1368 25.9218C49.8661 25.8177 49.5747 25.8177 49.3041 25.9218L30.8183 33.312C30.3916 33.4785 30.121 33.8844 30.121 34.3424V47.5822C30.1418 59.8019 37.865 70.8455 49.3353 75.0506C49.4602 75.0922 49.5851 75.1131 49.7204 75.1131C49.8558 75.1131 49.9807 75.0922 50.1056 75.0506C61.5759 70.8351 69.299 59.8019 69.3199 47.5822V34.3424C69.3199 33.8844 69.0493 33.4785 68.6225 33.312ZM67.0925 47.5822C67.0716 58.6986 60.0978 68.8262 49.7308 72.8127C39.3638 68.8262 32.3796 58.6986 32.3588 47.5822V35.1022L49.7308 28.1597L67.0925 35.1022V47.5822Z"/>
    <path d="M42.0083 35.0502C41.7376 34.9357 41.4358 34.9357 41.1548 35.0502L36.7519 36.8094C36.3252 36.9759 36.0546 37.3818 36.0546 37.8398V42.5341C36.0546 43.1482 36.5542 43.6478 37.1683 43.6478C37.7824 43.6478 38.282 43.1482 38.282 42.5341V38.5996L41.9771 37.1217C42.2581 37.0072 42.4663 36.7989 42.5912 36.5179C42.7056 36.2473 42.7056 35.9455 42.5912 35.6644C42.4767 35.3834 42.2685 35.1751 41.9979 35.0502H42.0083Z"/>
    <path d="M77.8876 22.2998C70.3726 14.7743 60.3698 10.6421 49.7322 10.6421C39.0946 10.6421 29.1023 14.7847 21.5768 22.2998C6.05756 37.819 6.05756 63.0808 21.5768 78.6105C29.3417 86.3754 39.5317 90.2473 49.7322 90.2473C59.9326 90.2473 70.1227 86.365 77.8876 78.6105C93.4069 63.0913 93.4069 37.8295 77.8876 22.2998ZM72.3814 47.5823C72.4126 61.7068 63.3883 74.0619 49.9299 78.3399C49.805 78.3815 49.6697 78.3815 49.5344 78.3399C36.076 74.0619 27.0518 61.7068 27.083 47.5823V31.959C27.083 31.6987 27.2391 31.4594 27.4889 31.3553L49.4928 22.56C49.5657 22.5288 49.6489 22.5184 49.7322 22.5184C49.8154 22.5184 49.8988 22.5288 49.9716 22.56L71.9755 31.3657C72.2253 31.4594 72.3814 31.6987 72.3814 31.9694V47.5927V47.5823Z"/>
</symbol><symbol viewBox="0 0 15 15" id="instagram" xmlns="http://www.w3.org/2000/svg">
    <path d="M7.5 2.01562C8.9901 2.01562 9.17602 2.02111 9.76066 2.04853C10.3447 2.07595 10.7424 2.16754 11.0923 2.30355C11.4542 2.44286 11.7592 2.63152 12.0641 2.9359C12.343 3.21006 12.5588 3.5417 12.6964 3.90773C12.8319 4.25709 12.924 4.65525 12.9515 5.23934C12.9772 5.82397 12.9844 6.0099 12.9844 7.5C12.9844 8.9901 12.9789 9.17602 12.9515 9.76066C12.924 10.3447 12.8319 10.7424 12.6964 11.0923C12.5592 11.4585 12.3433 11.7902 12.0641 12.0641C11.7899 12.3429 11.4582 12.5587 11.0923 12.6964C10.7429 12.8319 10.3447 12.924 9.76066 12.9515C9.17602 12.9772 8.9901 12.9844 7.5 12.9844C6.0099 12.9844 5.82397 12.9789 5.23934 12.9515C4.65525 12.924 4.25764 12.8319 3.90773 12.6964C3.54156 12.559 3.20986 12.3432 2.9359 12.0641C2.65697 11.79 2.44117 11.4583 2.30355 11.0923C2.16754 10.7429 2.07595 10.3447 2.04853 9.76066C2.02275 9.17602 2.01562 8.9901 2.01562 7.5C2.01562 6.0099 2.02111 5.82397 2.04853 5.23934C2.07595 4.65471 2.16754 4.25764 2.30355 3.90773C2.44079 3.54148 2.65664 3.20975 2.9359 2.9359C3.20994 2.65688 3.54161 2.44106 3.90773 2.30355C4.25764 2.16754 4.65471 2.07595 5.23934 2.04853C5.82397 2.02275 6.0099 2.01562 7.5 2.01562ZM7.5 4.75781C6.77273 4.75781 6.07524 5.04672 5.56098 5.56098C5.04672 6.07524 4.75781 6.77273 4.75781 7.5C4.75781 8.22727 5.04672 8.92476 5.56098 9.43902C6.07524 9.95328 6.77273 10.2422 7.5 10.2422C8.22727 10.2422 8.92476 9.95328 9.43902 9.43902C9.95328 8.92476 10.2422 8.22727 10.2422 7.5C10.2422 6.77273 9.95328 6.07524 9.43902 5.56098C8.92476 5.04672 8.22727 4.75781 7.5 4.75781ZM11.0648 4.6207C11.0648 4.43888 10.9926 4.26451 10.8641 4.13595C10.7355 4.00738 10.5611 3.93516 10.3793 3.93516C10.1975 3.93516 10.0231 4.00738 9.89454 4.13595C9.76598 4.26451 9.69375 4.43888 9.69375 4.6207C9.69375 4.80252 9.76598 4.97689 9.89454 5.10546C10.0231 5.23402 10.1975 5.30625 10.3793 5.30625C10.5611 5.30625 10.7355 5.23402 10.8641 5.10546C10.9926 4.97689 11.0648 4.80252 11.0648 4.6207ZM7.5 5.85469C7.93636 5.85469 8.35486 6.02803 8.66341 6.33659C8.97197 6.64514 9.14531 7.06364 9.14531 7.5C9.14531 7.93636 8.97197 8.35486 8.66341 8.66341C8.35486 8.97197 7.93636 9.14531 7.5 9.14531C7.06364 9.14531 6.64514 8.97197 6.33659 8.66341C6.02803 8.35486 5.85469 7.93636 5.85469 7.5C5.85469 7.06364 6.02803 6.64514 6.33659 6.33659C6.64514 6.02803 7.06364 5.85469 7.5 5.85469Z"/>
</symbol><symbol viewBox="0 0 16 16" id="lang" xmlns="http://www.w3.org/2000/svg">
    <g clip-path="url(#jclip0_24912_249)">
        <path d="M14.1692 3.71888C12.7989 1.84023 11.0012 0.775068 8.6355 0.5C9.74223 1.7817 10.5035 3.16875 10.9895 4.71966C12.0962 4.49141 13.1444 4.19294 14.1692 3.71888Z"/>
        <path d="M4.25006 5.52288C3.83001 5.41303 3.42197 5.30631 3.01989 5.18202C2.66058 5.06606 2.30606 4.93336 1.95173 4.80073C1.7517 4.72586 1.55173 4.65102 1.35101 4.57922C0.162292 6.66856 0.273551 9.63579 1.34515 11.3857C1.94399 11.1975 2.53794 11.0093 3.13731 10.8194L3.1384 10.8191C3.67559 10.6489 4.21745 10.4772 4.77076 10.303C4.45455 8.78132 4.4604 7.21285 4.77661 5.66193C4.59874 5.61407 4.42337 5.5682 4.25006 5.52288Z"/>
        <path d="M12.9458 5.15847C12.3749 5.33989 11.8035 5.52147 11.2297 5.70289C11.5459 7.23625 11.5342 8.79301 11.2297 10.2971C12.3891 10.6658 13.5193 11.0228 14.6612 11.3798C15.7855 9.45435 15.7737 6.52809 14.6612 4.61432C14.0874 4.7957 13.5166 4.97709 12.9458 5.15847Z"/>
        <path d="M5.7194 10.2269C5.39148 8.74034 5.40319 7.28307 5.70183 5.82579C5.94061 5.83983 6.17518 5.8565 6.40679 5.87296C6.9476 5.91139 7.47255 5.94869 7.99728 5.94869C8.52199 5.94869 9.0467 5.91141 9.58748 5.87298C9.81907 5.85652 10.054 5.83983 10.2927 5.82579C10.6148 7.25966 10.6031 8.72864 10.2869 10.221C8.75267 10.022 7.2536 10.0103 5.7194 10.2269Z"/>
        <path d="M14.1693 12.2753C12.8107 14.1539 11.0072 15.2132 8.64145 15.5C9.73062 14.2242 10.5094 12.843 10.9837 11.2862C12.0846 11.4969 13.1269 11.8129 14.1693 12.2753Z"/>
        <path d="M7.35894 0.5C4.99322 0.780921 3.18965 1.84608 1.78428 3.78326C2.88515 4.12271 3.92162 4.44459 4.99322 4.77819C5.49096 3.15704 6.26391 1.7817 7.35894 0.5Z"/>
        <path d="M7.35894 15.5C4.99907 15.2191 3.20136 14.1598 1.78428 12.2167C2.13525 12.1085 2.47968 12.0021 2.82079 11.8967L2.82228 11.8962C3.55057 11.6711 4.26377 11.4508 4.99322 11.2277C5.49096 12.8312 6.2522 14.2183 7.35894 15.5Z"/>
        <path d="M10.0408 4.86013C9.60158 3.48479 8.92817 2.28503 7.99711 1.19646C7.06019 2.30258 6.38093 3.4965 5.95931 4.86013C7.33541 5.04156 8.67052 5.04741 10.0408 4.86013Z"/>
        <path d="M8.00297 14.8035C7.07191 13.7208 6.39849 12.521 5.95931 11.1457C7.3237 10.9526 8.65881 10.9584 10.0466 11.1399C9.60744 12.5093 8.93403 13.7033 8.00297 14.8035Z"/>
    </g>
    <defs>
        <clipPath id="jclip0_24912_249">
            <rect width="16" height="16"/>
        </clipPath>
    </defs>
</symbol><symbol viewBox="0 0 15 15" id="linkedin" xmlns="http://www.w3.org/2000/svg">
    <path d="M2.33203 3.07234C2.33203 2.66343 2.67183 2.33203 3.09108 2.33203H11.9089C12.3282 2.33203 12.668 2.66343 12.668 3.07234V11.9277C12.668 12.3366 12.3282 12.668 11.9089 12.668H3.09108C2.67183 12.668 2.33203 12.3366 2.33203 11.9277V3.07234ZM5.52519 10.9845V6.31718H3.97415V10.9845H5.52519ZM4.74999 5.67958C5.29069 5.67958 5.62726 5.3217 5.62726 4.87338C5.61757 4.41537 5.29134 4.06718 4.76033 4.06718C4.22932 4.06718 3.88242 4.41601 3.88242 4.87338C3.88242 5.3217 4.21899 5.67958 4.73966 5.67958H4.74999ZM7.92054 10.9845V8.37791C7.92054 8.23837 7.93088 8.09884 7.97222 7.99935C8.08398 7.72093 8.33915 7.43217 8.76809 7.43217C9.32946 7.43217 9.55362 7.85982 9.55362 8.48773V10.9845H11.1047V8.3075C11.1047 6.87338 10.3398 6.20672 9.31913 6.20672C8.49613 6.20672 8.12726 6.65891 7.92054 6.97739V6.99354H7.91021C7.91364 6.98815 7.91708 6.98276 7.92054 6.97739V6.31718H6.37015C6.38953 6.75517 6.37015 10.9845 6.37015 10.9845H7.92054Z"/>
</symbol><symbol viewBox="0 0 100 100" id="logo__coin" xmlns="http://www.w3.org/2000/svg">
    <path d="M49.7326 99.3895C22.4099 99.3895 0.1875 77.1567 0.1875 49.8444C0.1875 22.5321 22.4203 0.299316 49.7326 0.299316C77.0448 0.299316 99.2777 22.5321 99.2777 49.8444C99.2777 77.1567 77.0448 99.3895 49.7326 99.3895ZM49.7326 3.59884C24.2314 3.59884 3.48702 24.3432 3.48702 49.8444C3.48702 75.3456 24.2314 96.09 49.7326 96.09C75.2337 96.09 95.9782 75.3456 95.9782 49.8444C95.9782 24.3432 75.2337 3.59884 49.7326 3.59884Z"/>
    <path d="M82.0648 14.4911L66.7266 29.8293L69.7442 32.847L85.0824 17.5087L82.0648 14.4911Z"/>
    <path d="M29.2639 67.2898L13.9257 82.6281L16.9432 85.6456L32.2815 70.3074L29.2639 67.2898Z"/>
    <path d="M70.1934 67.2976L67.1758 70.3152L82.514 85.6534L85.5316 82.6358L70.1934 67.2976Z"/>
    <path d="M16.9395 14.0365L13.9219 17.0541L29.2528 32.385L32.2704 29.3674L16.9395 14.0365Z"/>
    <path d="M61.8167 51.1768C62.816 50.1776 62.816 48.5642 61.8167 47.5754L59.6933 45.4625C58.6941 44.4632 57.0808 44.4632 56.092 45.4625L54.947 46.6074L53.6251 45.2855C52.6259 44.2863 51.0126 44.2863 50.0237 45.2855L48.8788 46.4409L47.5569 45.1086C46.5577 44.1093 44.9443 44.1093 43.9555 45.1086L36.9297 52.1344C36.8776 52.1864 36.8776 52.2697 36.9297 52.3321C37.8664 53.2689 39.3965 53.2689 40.3437 52.3321L44.8715 47.8044C45.3607 47.3152 46.1517 47.3152 46.6409 47.8044L46.974 48.1375C47.0365 48.2 47.0365 48.2936 46.974 48.356L43.1957 52.1344C43.1436 52.1864 43.1436 52.2697 43.1957 52.3321C44.1325 53.2689 45.6625 53.2689 46.6097 52.3321L50.9501 47.9918C51.4393 47.5026 52.2304 47.5026 52.7196 47.9918L53.0526 48.3248C53.1047 48.3769 53.1047 48.4602 53.0526 48.5226L49.4096 52.1656C49.3576 52.2177 49.3576 52.301 49.4096 52.3634C50.3464 53.3002 51.8765 53.3002 52.8237 52.3634L57.0183 48.1687C57.5075 47.6795 58.2986 47.6795 58.7878 48.1687L59.506 48.8869C59.787 49.1679 59.787 49.6363 59.506 49.9173L59.3915 50.0318C59.1105 50.3128 58.6421 50.3128 58.3611 50.0318L57.4347 49.1055C57.3826 49.0535 57.2994 49.0535 57.2369 49.1055L55.634 50.7084C55.582 50.7604 55.582 50.8437 55.634 50.9062L57.0808 52.353C58.08 53.3522 59.6933 53.3522 60.6822 52.353L61.8272 51.208L61.8167 51.1768Z"/>
    <path d="M49.7337 11.8529C28.7499 11.8529 11.7422 28.8606 11.7422 49.8444C11.7422 70.8282 28.7499 87.8359 49.7337 87.8359C70.7175 87.8359 87.7252 70.8282 87.7252 49.8444C87.7252 28.8606 70.7175 11.8529 49.7337 11.8529ZM51.2846 23.5835C57.3841 23.9374 62.9215 26.373 67.2098 30.1826L61.7245 35.6679C58.8621 33.2427 55.2503 31.671 51.2846 31.3379V23.5835ZM48.1932 23.5835V31.3379C44.2276 31.6606 40.6158 33.2427 37.7534 35.6679L32.268 30.1826C36.5564 26.373 42.0938 23.9374 48.1932 23.5835ZM30.0823 32.3683L35.5676 37.8537C33.1424 40.7161 31.5707 44.3279 31.2376 48.2935H23.4832C23.8371 42.1941 26.2727 36.6567 30.0823 32.3683ZM23.4832 51.3849H31.2376C31.5603 55.3506 33.1424 58.9624 35.5676 61.8248L30.0823 67.3101C26.2727 63.0218 23.8371 57.4844 23.4832 51.3849ZM48.1932 76.095C42.0938 75.7411 36.5564 73.3055 32.268 69.4959L37.7534 64.0106C40.6158 66.4358 44.2276 68.0075 48.1932 68.3406V76.095ZM33.7669 49.834C33.7669 41.0179 40.9176 33.8672 49.7337 33.8672C58.5498 33.8672 65.7006 41.0179 65.7006 49.834C65.7006 58.6501 58.5498 65.8009 49.7337 65.8009C40.9176 65.8009 33.7669 58.6501 33.7669 49.834ZM51.2846 76.095V68.3406C55.2503 68.0179 58.8621 66.4358 61.7245 64.0106L67.2098 69.4959C62.9215 73.3055 57.3841 75.7411 51.2846 76.095ZM69.3956 67.3101L63.9103 61.8248C66.3355 58.9624 67.9072 55.3506 68.2403 51.3849H75.9947C75.6408 57.4844 73.2052 63.0218 69.3956 67.3101ZM68.2403 48.2935C67.9176 44.3279 66.3355 40.7161 63.9103 37.8537L69.3956 32.3683C73.2052 36.6567 75.6408 42.1941 75.9947 48.2935H68.2403Z"/>
</symbol><symbol viewBox="0 0 100 100" id="logo__coin-left" xmlns="http://www.w3.org/2000/svg">
    <path d="M49.7326 99.3895C22.4099 99.3895 0.1875 77.1567 0.1875 49.8444C0.1875 22.5321 22.4203 0.299316 49.7326 0.299316C77.0448 0.299316 99.2777 22.5321 99.2777 49.8444C99.2777 77.1567 77.0448 99.3895 49.7326 99.3895ZM49.7326 3.59884C24.2314 3.59884 3.48702 24.3432 3.48702 49.8444C3.48702 75.3456 24.2314 96.09 49.7326 96.09C75.2337 96.09 95.9782 75.3456 95.9782 49.8444C95.9782 24.3432 75.2337 3.59884 49.7326 3.59884Z"/>
    <path d="M82.0648 14.4911L66.7266 29.8293L69.7442 32.847L85.0824 17.5087L82.0648 14.4911Z"/>
    <path d="M29.2639 67.2898L13.9257 82.6281L16.9432 85.6456L32.2815 70.3074L29.2639 67.2898Z"/>
    <path d="M70.1934 67.2976L67.1758 70.3152L82.514 85.6534L85.5316 82.6358L70.1934 67.2976Z"/>
    <path d="M16.9395 14.0365L13.9219 17.0541L29.2528 32.385L32.2704 29.3674L16.9395 14.0365Z"/>
    <path d="M61.8167 51.1768C62.816 50.1776 62.816 48.5642 61.8167 47.5754L59.6933 45.4625C58.6941 44.4632 57.0808 44.4632 56.092 45.4625L54.947 46.6074L53.6251 45.2855C52.6259 44.2863 51.0126 44.2863 50.0237 45.2855L48.8788 46.4409L47.5569 45.1086C46.5577 44.1093 44.9443 44.1093 43.9555 45.1086L36.9297 52.1344C36.8776 52.1864 36.8776 52.2697 36.9297 52.3321C37.8664 53.2689 39.3965 53.2689 40.3437 52.3321L44.8715 47.8044C45.3607 47.3152 46.1517 47.3152 46.6409 47.8044L46.974 48.1375C47.0365 48.2 47.0365 48.2936 46.974 48.356L43.1957 52.1344C43.1436 52.1864 43.1436 52.2697 43.1957 52.3321C44.1325 53.2689 45.6625 53.2689 46.6097 52.3321L50.9501 47.9918C51.4393 47.5026 52.2304 47.5026 52.7196 47.9918L53.0526 48.3248C53.1047 48.3769 53.1047 48.4602 53.0526 48.5226L49.4096 52.1656C49.3576 52.2177 49.3576 52.301 49.4096 52.3634C50.3464 53.3002 51.8765 53.3002 52.8237 52.3634L57.0183 48.1687C57.5075 47.6795 58.2986 47.6795 58.7878 48.1687L59.506 48.8869C59.787 49.1679 59.787 49.6363 59.506 49.9173L59.3915 50.0318C59.1105 50.3128 58.6421 50.3128 58.3611 50.0318L57.4347 49.1055C57.3826 49.0535 57.2994 49.0535 57.2369 49.1055L55.634 50.7084C55.582 50.7604 55.582 50.8437 55.634 50.9062L57.0808 52.353C58.08 53.3522 59.6933 53.3522 60.6822 52.353L61.8272 51.208L61.8167 51.1768Z"/>
    <path d="M49.7337 11.8529C28.7499 11.8529 11.7422 28.8606 11.7422 49.8444C11.7422 70.8282 28.7499 87.8359 49.7337 87.8359C70.7175 87.8359 87.7252 70.8282 87.7252 49.8444C87.7252 28.8606 70.7175 11.8529 49.7337 11.8529ZM51.2846 23.5835C57.3841 23.9374 62.9215 26.373 67.2098 30.1826L61.7245 35.6679C58.8621 33.2427 55.2503 31.671 51.2846 31.3379V23.5835ZM48.1932 23.5835V31.3379C44.2276 31.6606 40.6158 33.2427 37.7534 35.6679L32.268 30.1826C36.5564 26.373 42.0938 23.9374 48.1932 23.5835ZM30.0823 32.3683L35.5676 37.8537C33.1424 40.7161 31.5707 44.3279 31.2376 48.2935H23.4832C23.8371 42.1941 26.2727 36.6567 30.0823 32.3683ZM23.4832 51.3849H31.2376C31.5603 55.3506 33.1424 58.9624 35.5676 61.8248L30.0823 67.3101C26.2727 63.0218 23.8371 57.4844 23.4832 51.3849ZM48.1932 76.095C42.0938 75.7411 36.5564 73.3055 32.268 69.4959L37.7534 64.0106C40.6158 66.4358 44.2276 68.0075 48.1932 68.3406V76.095ZM33.7669 49.834C33.7669 41.0179 40.9176 33.8672 49.7337 33.8672C58.5498 33.8672 65.7006 41.0179 65.7006 49.834C65.7006 58.6501 58.5498 65.8009 49.7337 65.8009C40.9176 65.8009 33.7669 58.6501 33.7669 49.834ZM51.2846 76.095V68.3406C55.2503 68.0179 58.8621 66.4358 61.7245 64.0106L67.2098 69.4959C62.9215 73.3055 57.3841 75.7411 51.2846 76.095ZM69.3956 67.3101L63.9103 61.8248C66.3355 58.9624 67.9072 55.3506 68.2403 51.3849H75.9947C75.6408 57.4844 73.2052 63.0218 69.3956 67.3101ZM68.2403 48.2935C67.9176 44.3279 66.3355 40.7161 63.9103 37.8537L69.3956 32.3683C73.2052 36.6567 75.6408 42.1941 75.9947 48.2935H68.2403Z"/>
</symbol><symbol viewBox="0 0 100 100" id="logo__coin-mid" xmlns="http://www.w3.org/2000/svg">
    <path d="M49.7326 99.3895C22.4099 99.3895 0.1875 77.1567 0.1875 49.8444C0.1875 22.5321 22.4203 0.299316 49.7326 0.299316C77.0448 0.299316 99.2777 22.5321 99.2777 49.8444C99.2777 77.1567 77.0448 99.3895 49.7326 99.3895ZM49.7326 3.59884C24.2314 3.59884 3.48702 24.3432 3.48702 49.8444C3.48702 75.3456 24.2314 96.09 49.7326 96.09C75.2337 96.09 95.9782 75.3456 95.9782 49.8444C95.9782 24.3432 75.2337 3.59884 49.7326 3.59884Z"/>
    <path d="M82.0648 14.4911L66.7266 29.8293L69.7442 32.847L85.0824 17.5087L82.0648 14.4911Z"/>
    <path d="M29.2639 67.2898L13.9257 82.6281L16.9432 85.6456L32.2815 70.3074L29.2639 67.2898Z"/>
    <path d="M70.1934 67.2976L67.1758 70.3152L82.514 85.6534L85.5316 82.6358L70.1934 67.2976Z"/>
    <path d="M16.9395 14.0365L13.9219 17.0541L29.2528 32.385L32.2704 29.3674L16.9395 14.0365Z"/>
    <path d="M61.8167 51.1768C62.816 50.1776 62.816 48.5642 61.8167 47.5754L59.6933 45.4625C58.6941 44.4632 57.0808 44.4632 56.092 45.4625L54.947 46.6074L53.6251 45.2855C52.6259 44.2863 51.0126 44.2863 50.0237 45.2855L48.8788 46.4409L47.5569 45.1086C46.5577 44.1093 44.9443 44.1093 43.9555 45.1086L36.9297 52.1344C36.8776 52.1864 36.8776 52.2697 36.9297 52.3321C37.8664 53.2689 39.3965 53.2689 40.3437 52.3321L44.8715 47.8044C45.3607 47.3152 46.1517 47.3152 46.6409 47.8044L46.974 48.1375C47.0365 48.2 47.0365 48.2936 46.974 48.356L43.1957 52.1344C43.1436 52.1864 43.1436 52.2697 43.1957 52.3321C44.1325 53.2689 45.6625 53.2689 46.6097 52.3321L50.9501 47.9918C51.4393 47.5026 52.2304 47.5026 52.7196 47.9918L53.0526 48.3248C53.1047 48.3769 53.1047 48.4602 53.0526 48.5226L49.4096 52.1656C49.3576 52.2177 49.3576 52.301 49.4096 52.3634C50.3464 53.3002 51.8765 53.3002 52.8237 52.3634L57.0183 48.1687C57.5075 47.6795 58.2986 47.6795 58.7878 48.1687L59.506 48.8869C59.787 49.1679 59.787 49.6363 59.506 49.9173L59.3915 50.0318C59.1105 50.3128 58.6421 50.3128 58.3611 50.0318L57.4347 49.1055C57.3826 49.0535 57.2994 49.0535 57.2369 49.1055L55.634 50.7084C55.582 50.7604 55.582 50.8437 55.634 50.9062L57.0808 52.353C58.08 53.3522 59.6933 53.3522 60.6822 52.353L61.8272 51.208L61.8167 51.1768Z"/>
    <path d="M49.7337 11.8529C28.7499 11.8529 11.7422 28.8606 11.7422 49.8444C11.7422 70.8282 28.7499 87.8359 49.7337 87.8359C70.7175 87.8359 87.7252 70.8282 87.7252 49.8444C87.7252 28.8606 70.7175 11.8529 49.7337 11.8529ZM51.2846 23.5835C57.3841 23.9374 62.9215 26.373 67.2098 30.1826L61.7245 35.6679C58.8621 33.2427 55.2503 31.671 51.2846 31.3379V23.5835ZM48.1932 23.5835V31.3379C44.2276 31.6606 40.6158 33.2427 37.7534 35.6679L32.268 30.1826C36.5564 26.373 42.0938 23.9374 48.1932 23.5835ZM30.0823 32.3683L35.5676 37.8537C33.1424 40.7161 31.5707 44.3279 31.2376 48.2935H23.4832C23.8371 42.1941 26.2727 36.6567 30.0823 32.3683ZM23.4832 51.3849H31.2376C31.5603 55.3506 33.1424 58.9624 35.5676 61.8248L30.0823 67.3101C26.2727 63.0218 23.8371 57.4844 23.4832 51.3849ZM48.1932 76.095C42.0938 75.7411 36.5564 73.3055 32.268 69.4959L37.7534 64.0106C40.6158 66.4358 44.2276 68.0075 48.1932 68.3406V76.095ZM33.7669 49.834C33.7669 41.0179 40.9176 33.8672 49.7337 33.8672C58.5498 33.8672 65.7006 41.0179 65.7006 49.834C65.7006 58.6501 58.5498 65.8009 49.7337 65.8009C40.9176 65.8009 33.7669 58.6501 33.7669 49.834ZM51.2846 76.095V68.3406C55.2503 68.0179 58.8621 66.4358 61.7245 64.0106L67.2098 69.4959C62.9215 73.3055 57.3841 75.7411 51.2846 76.095ZM69.3956 67.3101L63.9103 61.8248C66.3355 58.9624 67.9072 55.3506 68.2403 51.3849H75.9947C75.6408 57.4844 73.2052 63.0218 69.3956 67.3101ZM68.2403 48.2935C67.9176 44.3279 66.3355 40.7161 63.9103 37.8537L69.3956 32.3683C73.2052 36.6567 75.6408 42.1941 75.9947 48.2935H68.2403Z"/>
</symbol><symbol viewBox="0 0 1058 1233" id="round-dot" xmlns="http://www.w3.org/2000/svg">
    <g opacity="0.7" filter="url(#ofilter0_f_1_5904)">
        <circle cx="937" cy="937" r="287"/>
    </g>
    <defs>
        <filter id="ofilter0_f_1_5904" x="0" y="0" width="1874" height="1874" filterUnits="userSpaceOnUse" color-interpolation-filters="sRGB">
            <feFlood flood-opacity="0" result="BackgroundImageFix"/>
            <feBlend mode="normal" in="SourceGraphic" in2="BackgroundImageFix" result="shape"/>
            <feGaussianBlur stdDeviation="325" result="effect1_foregroundBlur_1_5904"/>
        </filter>
        <linearGradient id="opaint0_linear_1_5904" x1="1224" y1="650" x2="548.706" y2="818.823" gradientUnits="userSpaceOnUse">
            <stop stop-color="#F99247"/>
            <stop offset="1" stop-color="#F29DA2"/>
        </linearGradient>
    </defs>
</symbol><symbol viewBox="0 0 100 100" id="soccer" xmlns="http://www.w3.org/2000/svg">
    <path d="M49.877 99.9324C22.5543 99.9324 0.331909 77.6996 0.331909 50.3874C0.331909 23.0751 22.5647 0.842285 49.877 0.842285C77.1893 0.842285 99.4221 23.0751 99.4221 50.3874C99.4221 77.6996 77.1893 99.9324 49.877 99.9324ZM49.877 4.14181C24.3758 4.14181 3.63143 24.8862 3.63143 50.3874C3.63143 75.8885 24.3758 96.6329 49.877 96.6329C75.3782 96.6329 96.1226 75.8885 96.1226 50.3874C96.1226 24.8862 75.3782 4.14181 49.877 4.14181Z"/>
    <path d="M65.9513 19.4529C65.7015 19.4529 65.4517 19.4009 65.2227 19.2864C60.4243 16.9132 55.2617 15.7058 49.8804 15.7058C44.4991 15.7058 39.3365 16.9132 34.5381 19.2864C33.9032 19.5986 33.1433 19.4737 32.6437 18.9741L24.1294 10.4599C23.7651 10.0956 23.5986 9.59593 23.661 9.08591C23.7235 8.57588 24.015 8.12833 24.4521 7.86811C32.1233 3.2675 40.9186 0.842285 49.8908 0.842285C58.8631 0.842285 67.6584 3.27791 75.3295 7.86811C75.7667 8.12833 76.0581 8.57588 76.1206 9.08591C76.183 9.59593 76.0061 10.0956 75.6522 10.4599L67.1379 18.9741C66.8153 19.2864 66.3989 19.4529 65.9618 19.4529H65.9513ZM49.8804 12.4063C55.3658 12.4063 60.6533 13.5512 65.6078 15.8099L71.7698 9.64795C65.0666 6.03615 57.5412 4.1418 49.8804 4.1418C42.2196 4.1418 34.6942 6.03615 27.9911 9.64795L34.153 15.8099C39.1075 13.5512 44.3951 12.4063 49.8804 12.4063Z"/>
    <path d="M49.8786 99.9324C40.9064 99.9324 32.1111 97.4968 24.4399 92.9066C24.0027 92.6464 23.7113 92.1988 23.6488 91.6888C23.5864 91.1788 23.7633 90.6792 24.1172 90.3149L32.6315 81.8006C33.1311 81.301 33.9014 81.1761 34.5259 81.4884C39.3243 83.8615 44.4869 85.0689 49.8682 85.0689C55.2495 85.0689 60.4122 83.8615 65.2106 81.4884C65.8455 81.1761 66.6053 81.301 67.1049 81.8006L75.6192 90.3149C75.9835 90.6792 76.15 91.1788 76.0876 91.6888C76.0251 92.1988 75.7337 92.6464 75.2965 92.9066C67.6253 97.5072 58.8301 99.9324 49.8578 99.9324H49.8786ZM27.9893 91.1268C34.6924 94.7386 42.2179 96.6329 49.8786 96.6329C57.5394 96.6329 65.0648 94.7386 71.768 91.1268L65.606 84.9649C60.6515 87.2235 55.364 88.3685 49.8786 88.3685C44.3933 88.3685 39.1057 87.2235 34.1512 84.9649L27.9893 91.1268Z"/>
    <path d="M90.9826 76.6275C90.5454 76.6275 90.1291 76.4609 89.8168 76.1487L81.3026 67.6344C80.8029 67.1348 80.6781 66.3646 80.9903 65.7401C83.3635 60.9417 84.5709 55.779 84.5709 50.3977C84.5709 45.0165 83.3635 39.8538 80.9903 35.0554C80.6781 34.4205 80.8029 33.6502 81.3026 33.161L89.8168 24.6468C90.1811 24.2825 90.6807 24.1159 91.1908 24.1784C91.7008 24.2408 92.1483 24.5323 92.4086 24.9694C97.0092 32.6406 99.4344 41.4359 99.4344 50.4082C99.4344 59.3804 97.0092 68.1757 92.4086 75.8469C92.1483 76.284 91.7008 76.5755 91.1908 76.6379C91.1179 76.6379 91.0554 76.6379 90.9826 76.6379V76.6275ZM84.4564 66.1147L90.6183 72.2767C94.2301 65.5735 96.1244 58.0481 96.1244 50.3873C96.1244 42.7266 94.2301 35.2012 90.6183 28.498L84.4564 34.6599C86.7151 39.6144 87.86 44.902 87.86 50.3873C87.86 55.8727 86.7151 61.1602 84.4564 66.1147Z"/>
    <path d="M8.77305 76.6276C8.70019 76.6276 8.63774 76.6276 8.57529 76.6172C8.06526 76.5547 7.61771 76.2633 7.35749 75.8261C2.75688 68.1549 0.331665 59.3596 0.331665 50.3874C0.331665 41.4152 2.75688 32.6199 7.35749 24.9487C7.61771 24.5115 8.06526 24.2201 8.57529 24.1576C9.08531 24.0952 9.58493 24.2721 9.94923 24.626L18.4635 33.1403C18.9631 33.6399 19.088 34.4101 18.7757 35.0347C16.4026 39.833 15.1952 44.9957 15.1952 50.377C15.1952 55.7582 16.4026 60.9209 18.7757 65.7193C19.088 66.3542 18.9631 67.1245 18.4635 67.6137L9.94923 76.1279C9.63697 76.4402 9.22063 76.6172 8.78347 76.6172L8.77305 76.6276ZM9.13733 28.4981C5.52553 35.2012 3.63118 42.7266 3.63118 50.3874C3.63118 58.0481 5.52553 65.5736 9.13733 72.2768L15.2993 66.1148C13.0406 61.1603 11.8956 55.8727 11.8956 50.3874C11.8956 44.902 13.0406 39.6145 15.2993 34.66L9.13733 28.4981Z"/>
    <path d="M49.8781 12.3958C28.9359 12.3958 11.8866 29.4347 11.8866 50.3873C11.8866 71.3399 28.9255 88.3788 49.8781 88.3788C70.8307 88.3788 87.8696 71.3399 87.8696 50.3873C87.8696 29.4347 70.8307 12.3958 49.8781 12.3958ZM71.2575 37.9073C73.0582 40.9883 74.1511 44.3503 74.505 47.9204C74.5154 48.0662 74.4529 48.2015 74.328 48.2743C71.6113 49.9397 69.1757 51.9798 67.0732 54.3634C66.9795 54.4779 66.8234 54.5195 66.6881 54.4674L61.9938 52.9374C61.8585 52.8958 61.7648 52.7813 61.744 52.6356C61.2131 48.7532 60.0057 45.0372 58.153 41.5815C58.0905 41.4566 58.101 41.3109 58.1842 41.1964L61.0882 37.1995C61.1611 37.1059 61.2756 37.0434 61.3901 37.0434C61.4213 37.0434 61.4421 37.0434 61.4734 37.0434C64.5751 37.7304 67.7602 37.9594 70.9244 37.6991C71.0701 37.6887 71.2054 37.7616 71.2783 37.8865L71.2575 37.9073ZM59.1834 53.2913C59.1938 53.3953 59.1626 53.4995 59.1002 53.5723C56.6333 56.4139 53.4899 58.6934 50.0238 60.1506C49.9302 60.1922 49.8365 60.1922 49.7428 60.1506C46.2767 58.683 43.1333 56.4035 40.6665 53.5723C40.604 53.4995 40.5728 53.3953 40.5832 53.2913C41.062 49.5233 42.2382 45.922 44.0597 42.5912C44.1118 42.4975 44.195 42.4351 44.2991 42.4143C46.131 42.0292 48.0046 41.8314 49.8885 41.8314C51.7725 41.8314 53.646 42.0292 55.478 42.4143C55.5821 42.4351 55.6653 42.4975 55.7173 42.5912C57.5389 45.922 58.7047 49.5233 59.1939 53.2913H59.1834ZM58.6214 27.4571C58.6214 27.4571 58.7463 27.353 58.8712 27.353C58.9128 27.353 58.9649 27.353 59.0169 27.3842C62.8473 28.9039 66.2717 31.4019 68.9363 34.5974C69.0716 34.7535 69.0196 34.9201 68.9884 34.9825C68.9675 35.0345 68.8739 35.2011 68.6553 35.2011C66.2926 35.2323 63.9402 34.9617 61.6607 34.4205C61.567 34.3996 61.4838 34.3372 61.4317 34.2539C60.2139 32.245 59.2355 30.08 58.5277 27.8318C58.4652 27.634 58.5798 27.4987 58.6318 27.4571H58.6214ZM44.6218 26.208C48.067 25.469 51.6996 25.469 55.1449 26.208C55.2802 26.2393 55.3947 26.3434 55.4259 26.4787C56.1649 29.57 57.3619 32.5261 58.9753 35.2636C59.0481 35.3885 59.0377 35.5445 58.9545 35.6694L56.0713 39.6456C55.988 39.76 55.8423 39.8225 55.707 39.7913C51.8974 39.021 47.8693 39.021 44.0597 39.7913C43.9244 39.8225 43.7787 39.76 43.6954 39.6456L40.8122 35.6694C40.729 35.555 40.7185 35.3885 40.7914 35.2636C42.4047 32.5261 43.6017 29.57 44.3407 26.4787C44.3719 26.3434 44.4865 26.2393 44.6218 26.208ZM30.8303 34.5974C33.4949 31.3915 36.9194 28.8935 40.7498 27.3842C40.8018 27.3634 40.8538 27.353 40.8955 27.353C41.0308 27.353 41.114 27.4259 41.1453 27.4571C41.1973 27.5091 41.3118 27.634 41.2494 27.8318C40.5416 30.0905 39.5631 32.245 38.3453 34.2539C38.2933 34.3372 38.21 34.3996 38.1164 34.4205C35.8369 34.9617 33.4846 35.2323 31.1218 35.2011C30.9032 35.2011 30.8095 35.0345 30.7887 34.9825C30.7575 34.9201 30.7054 34.7535 30.8407 34.5974H30.8303ZM28.5092 37.9073C28.5717 37.7928 28.6966 37.72 28.8319 37.72C28.8319 37.72 28.8527 37.72 28.8631 37.72C32.0377 37.9698 35.2228 37.7512 38.3141 37.0642C38.4599 37.033 38.6056 37.0851 38.6888 37.21L41.5929 41.2068C41.6762 41.3213 41.6865 41.4775 41.6241 41.592C39.7713 45.0476 38.5639 48.7635 38.0331 52.6459C38.0123 52.7812 37.9186 52.8958 37.7833 52.9478L33.089 54.4779C32.9537 54.5195 32.7975 54.4779 32.7039 54.3738C30.6013 51.9902 28.1657 49.9501 25.4491 48.2847C25.3346 48.2118 25.2617 48.0766 25.2721 47.9308C25.626 44.3607 26.7189 40.9883 28.5196 37.9177L28.5092 37.9073ZM29.6437 63.5542C29.5813 63.752 29.4043 63.7936 29.3315 63.804C29.2586 63.804 29.0921 63.804 28.9776 63.6374C26.7605 60.1506 25.4491 56.112 25.1889 51.9694C25.1785 51.7612 25.3138 51.6571 25.3762 51.6259C25.4387 51.5947 25.6052 51.5218 25.7717 51.6467C27.6973 53.0103 29.446 54.6132 30.9761 56.3931C31.0385 56.4659 31.0697 56.5596 31.0593 56.6637C30.8719 59.0056 30.3931 61.3268 29.6333 63.5646L29.6437 63.5542ZM39.9275 73.0573C36.68 71.6313 33.8176 69.5392 31.4236 66.8537C31.3299 66.7497 31.2987 66.5935 31.3508 66.4686C32.5686 63.5334 33.3388 60.442 33.6407 57.2778C33.6511 57.1321 33.7552 57.0072 33.8905 56.9655L38.5327 55.4563C38.5327 55.4563 38.6056 55.4354 38.6472 55.4354C38.7513 55.4354 38.845 55.4771 38.9179 55.5604C41.52 58.4748 44.7779 60.8479 48.3481 62.4197C48.4834 62.4821 48.5666 62.607 48.5666 62.7527V67.6344C48.5666 67.7801 48.4834 67.9154 48.3481 67.9675C45.4337 69.2269 42.7274 70.9235 40.3022 72.9949C40.1981 73.0885 40.0419 73.1093 39.917 73.0469L39.9275 73.0573ZM56.3002 74.0878C56.2898 74.1606 56.2378 74.3271 56.0297 74.3792C52.0119 75.3992 47.7651 75.3992 43.7474 74.3792C43.5497 74.3271 43.4873 74.1606 43.4768 74.0878C43.4664 74.0149 43.4456 73.8484 43.6225 73.7131C45.5169 72.3079 47.5778 71.1317 49.7532 70.2261C49.8469 70.1845 49.9406 70.1845 50.0343 70.2261C52.1993 71.1317 54.2602 72.3079 56.165 73.7131C56.3315 73.838 56.3211 74.0149 56.3106 74.0878H56.3002ZM68.3639 66.8642C65.9699 69.5496 63.1075 71.6313 59.86 73.0573C59.7247 73.1198 59.579 73.0885 59.4749 73.0052C57.0497 70.9339 54.3538 69.2373 51.429 67.9779C51.2937 67.9154 51.2104 67.7905 51.2104 67.6448V62.7632C51.2104 62.6174 51.2937 62.4821 51.429 62.4301C54.9992 60.8584 58.2675 58.4852 60.8592 55.5708C60.9321 55.4875 61.0258 55.4459 61.1298 55.4459C61.1715 55.4459 61.2027 55.4459 61.2443 55.4667L65.8866 56.976C66.0219 57.0176 66.126 57.1425 66.1364 57.2882C66.4382 60.4524 67.2085 63.5334 68.4263 66.479C68.4784 66.6039 68.4575 66.7601 68.3534 66.8642H68.3639ZM70.7995 63.6479C70.685 63.8248 70.508 63.8248 70.4456 63.8144C70.3727 63.8144 70.2062 63.7624 70.1333 63.5646C69.3839 61.3268 68.9051 59.0056 68.7074 56.6637C68.7074 56.57 68.7281 56.4659 68.7906 56.3931C70.3207 54.6132 72.0693 53.0207 73.9949 51.6467C74.0678 51.5947 74.1406 51.5739 74.2031 51.5739C74.2864 51.5739 74.3488 51.6051 74.3904 51.6259C74.4529 51.6571 74.5987 51.7612 74.5779 51.9694C74.3176 56.112 73.0061 60.1506 70.7891 63.6374L70.7995 63.6479Z"/>
</symbol><symbol viewBox="0 0 100 100" id="soccer-right" xmlns="http://www.w3.org/2000/svg">
    <path d="M49.877 99.9324C22.5543 99.9324 0.331909 77.6996 0.331909 50.3874C0.331909 23.0751 22.5647 0.842285 49.877 0.842285C77.1893 0.842285 99.4221 23.0751 99.4221 50.3874C99.4221 77.6996 77.1893 99.9324 49.877 99.9324ZM49.877 4.14181C24.3758 4.14181 3.63143 24.8862 3.63143 50.3874C3.63143 75.8885 24.3758 96.6329 49.877 96.6329C75.3782 96.6329 96.1226 75.8885 96.1226 50.3874C96.1226 24.8862 75.3782 4.14181 49.877 4.14181Z"/>
    <path d="M65.9513 19.4529C65.7015 19.4529 65.4517 19.4009 65.2227 19.2864C60.4243 16.9132 55.2617 15.7058 49.8804 15.7058C44.4991 15.7058 39.3365 16.9132 34.5381 19.2864C33.9032 19.5986 33.1433 19.4737 32.6437 18.9741L24.1294 10.4599C23.7651 10.0956 23.5986 9.59593 23.661 9.08591C23.7235 8.57588 24.015 8.12833 24.4521 7.86811C32.1233 3.2675 40.9186 0.842285 49.8908 0.842285C58.8631 0.842285 67.6584 3.27791 75.3295 7.86811C75.7667 8.12833 76.0581 8.57588 76.1206 9.08591C76.183 9.59593 76.0061 10.0956 75.6522 10.4599L67.1379 18.9741C66.8153 19.2864 66.3989 19.4529 65.9618 19.4529H65.9513ZM49.8804 12.4063C55.3658 12.4063 60.6533 13.5512 65.6078 15.8099L71.7698 9.64795C65.0666 6.03615 57.5412 4.1418 49.8804 4.1418C42.2196 4.1418 34.6942 6.03615 27.9911 9.64795L34.153 15.8099C39.1075 13.5512 44.3951 12.4063 49.8804 12.4063Z"/>
    <path d="M49.8786 99.9324C40.9064 99.9324 32.1111 97.4968 24.4399 92.9066C24.0027 92.6464 23.7113 92.1988 23.6488 91.6888C23.5864 91.1788 23.7633 90.6792 24.1172 90.3149L32.6315 81.8006C33.1311 81.301 33.9014 81.1761 34.5259 81.4884C39.3243 83.8615 44.4869 85.0689 49.8682 85.0689C55.2495 85.0689 60.4122 83.8615 65.2106 81.4884C65.8455 81.1761 66.6053 81.301 67.1049 81.8006L75.6192 90.3149C75.9835 90.6792 76.15 91.1788 76.0876 91.6888C76.0251 92.1988 75.7337 92.6464 75.2965 92.9066C67.6253 97.5072 58.8301 99.9324 49.8578 99.9324H49.8786ZM27.9893 91.1268C34.6924 94.7386 42.2179 96.6329 49.8786 96.6329C57.5394 96.6329 65.0648 94.7386 71.768 91.1268L65.606 84.9649C60.6515 87.2235 55.364 88.3685 49.8786 88.3685C44.3933 88.3685 39.1057 87.2235 34.1512 84.9649L27.9893 91.1268Z"/>
    <path d="M90.9826 76.6275C90.5454 76.6275 90.1291 76.4609 89.8168 76.1487L81.3026 67.6344C80.8029 67.1348 80.6781 66.3646 80.9903 65.7401C83.3635 60.9417 84.5709 55.779 84.5709 50.3977C84.5709 45.0165 83.3635 39.8538 80.9903 35.0554C80.6781 34.4205 80.8029 33.6502 81.3026 33.161L89.8168 24.6468C90.1811 24.2825 90.6807 24.1159 91.1908 24.1784C91.7008 24.2408 92.1483 24.5323 92.4086 24.9694C97.0092 32.6406 99.4344 41.4359 99.4344 50.4082C99.4344 59.3804 97.0092 68.1757 92.4086 75.8469C92.1483 76.284 91.7008 76.5755 91.1908 76.6379C91.1179 76.6379 91.0554 76.6379 90.9826 76.6379V76.6275ZM84.4564 66.1147L90.6183 72.2767C94.2301 65.5735 96.1244 58.0481 96.1244 50.3873C96.1244 42.7266 94.2301 35.2012 90.6183 28.498L84.4564 34.6599C86.7151 39.6144 87.86 44.902 87.86 50.3873C87.86 55.8727 86.7151 61.1602 84.4564 66.1147Z"/>
    <path d="M8.77305 76.6276C8.70019 76.6276 8.63774 76.6276 8.57529 76.6172C8.06526 76.5547 7.61771 76.2633 7.35749 75.8261C2.75688 68.1549 0.331665 59.3596 0.331665 50.3874C0.331665 41.4152 2.75688 32.6199 7.35749 24.9487C7.61771 24.5115 8.06526 24.2201 8.57529 24.1576C9.08531 24.0952 9.58493 24.2721 9.94923 24.626L18.4635 33.1403C18.9631 33.6399 19.088 34.4101 18.7757 35.0347C16.4026 39.833 15.1952 44.9957 15.1952 50.377C15.1952 55.7582 16.4026 60.9209 18.7757 65.7193C19.088 66.3542 18.9631 67.1245 18.4635 67.6137L9.94923 76.1279C9.63697 76.4402 9.22063 76.6172 8.78347 76.6172L8.77305 76.6276ZM9.13733 28.4981C5.52553 35.2012 3.63118 42.7266 3.63118 50.3874C3.63118 58.0481 5.52553 65.5736 9.13733 72.2768L15.2993 66.1148C13.0406 61.1603 11.8956 55.8727 11.8956 50.3874C11.8956 44.902 13.0406 39.6145 15.2993 34.66L9.13733 28.4981Z"/>
    <path d="M49.8781 12.3958C28.9359 12.3958 11.8866 29.4347 11.8866 50.3873C11.8866 71.3399 28.9255 88.3788 49.8781 88.3788C70.8307 88.3788 87.8696 71.3399 87.8696 50.3873C87.8696 29.4347 70.8307 12.3958 49.8781 12.3958ZM71.2575 37.9073C73.0582 40.9883 74.1511 44.3503 74.505 47.9204C74.5154 48.0662 74.4529 48.2015 74.328 48.2743C71.6113 49.9397 69.1757 51.9798 67.0732 54.3634C66.9795 54.4779 66.8234 54.5195 66.6881 54.4674L61.9938 52.9374C61.8585 52.8958 61.7648 52.7813 61.744 52.6356C61.2131 48.7532 60.0057 45.0372 58.153 41.5815C58.0905 41.4566 58.101 41.3109 58.1842 41.1964L61.0882 37.1995C61.1611 37.1059 61.2756 37.0434 61.3901 37.0434C61.4213 37.0434 61.4421 37.0434 61.4734 37.0434C64.5751 37.7304 67.7602 37.9594 70.9244 37.6991C71.0701 37.6887 71.2054 37.7616 71.2783 37.8865L71.2575 37.9073ZM59.1834 53.2913C59.1938 53.3953 59.1626 53.4995 59.1002 53.5723C56.6333 56.4139 53.4899 58.6934 50.0238 60.1506C49.9302 60.1922 49.8365 60.1922 49.7428 60.1506C46.2767 58.683 43.1333 56.4035 40.6665 53.5723C40.604 53.4995 40.5728 53.3953 40.5832 53.2913C41.062 49.5233 42.2382 45.922 44.0597 42.5912C44.1118 42.4975 44.195 42.4351 44.2991 42.4143C46.131 42.0292 48.0046 41.8314 49.8885 41.8314C51.7725 41.8314 53.646 42.0292 55.478 42.4143C55.5821 42.4351 55.6653 42.4975 55.7173 42.5912C57.5389 45.922 58.7047 49.5233 59.1939 53.2913H59.1834ZM58.6214 27.4571C58.6214 27.4571 58.7463 27.353 58.8712 27.353C58.9128 27.353 58.9649 27.353 59.0169 27.3842C62.8473 28.9039 66.2717 31.4019 68.9363 34.5974C69.0716 34.7535 69.0196 34.9201 68.9884 34.9825C68.9675 35.0345 68.8739 35.2011 68.6553 35.2011C66.2926 35.2323 63.9402 34.9617 61.6607 34.4205C61.567 34.3996 61.4838 34.3372 61.4317 34.2539C60.2139 32.245 59.2355 30.08 58.5277 27.8318C58.4652 27.634 58.5798 27.4987 58.6318 27.4571H58.6214ZM44.6218 26.208C48.067 25.469 51.6996 25.469 55.1449 26.208C55.2802 26.2393 55.3947 26.3434 55.4259 26.4787C56.1649 29.57 57.3619 32.5261 58.9753 35.2636C59.0481 35.3885 59.0377 35.5445 58.9545 35.6694L56.0713 39.6456C55.988 39.76 55.8423 39.8225 55.707 39.7913C51.8974 39.021 47.8693 39.021 44.0597 39.7913C43.9244 39.8225 43.7787 39.76 43.6954 39.6456L40.8122 35.6694C40.729 35.555 40.7185 35.3885 40.7914 35.2636C42.4047 32.5261 43.6017 29.57 44.3407 26.4787C44.3719 26.3434 44.4865 26.2393 44.6218 26.208ZM30.8303 34.5974C33.4949 31.3915 36.9194 28.8935 40.7498 27.3842C40.8018 27.3634 40.8538 27.353 40.8955 27.353C41.0308 27.353 41.114 27.4259 41.1453 27.4571C41.1973 27.5091 41.3118 27.634 41.2494 27.8318C40.5416 30.0905 39.5631 32.245 38.3453 34.2539C38.2933 34.3372 38.21 34.3996 38.1164 34.4205C35.8369 34.9617 33.4846 35.2323 31.1218 35.2011C30.9032 35.2011 30.8095 35.0345 30.7887 34.9825C30.7575 34.9201 30.7054 34.7535 30.8407 34.5974H30.8303ZM28.5092 37.9073C28.5717 37.7928 28.6966 37.72 28.8319 37.72C28.8319 37.72 28.8527 37.72 28.8631 37.72C32.0377 37.9698 35.2228 37.7512 38.3141 37.0642C38.4599 37.033 38.6056 37.0851 38.6888 37.21L41.5929 41.2068C41.6762 41.3213 41.6865 41.4775 41.6241 41.592C39.7713 45.0476 38.5639 48.7635 38.0331 52.6459C38.0123 52.7812 37.9186 52.8958 37.7833 52.9478L33.089 54.4779C32.9537 54.5195 32.7975 54.4779 32.7039 54.3738C30.6013 51.9902 28.1657 49.9501 25.4491 48.2847C25.3346 48.2118 25.2617 48.0766 25.2721 47.9308C25.626 44.3607 26.7189 40.9883 28.5196 37.9177L28.5092 37.9073ZM29.6437 63.5542C29.5813 63.752 29.4043 63.7936 29.3315 63.804C29.2586 63.804 29.0921 63.804 28.9776 63.6374C26.7605 60.1506 25.4491 56.112 25.1889 51.9694C25.1785 51.7612 25.3138 51.6571 25.3762 51.6259C25.4387 51.5947 25.6052 51.5218 25.7717 51.6467C27.6973 53.0103 29.446 54.6132 30.9761 56.3931C31.0385 56.4659 31.0697 56.5596 31.0593 56.6637C30.8719 59.0056 30.3931 61.3268 29.6333 63.5646L29.6437 63.5542ZM39.9275 73.0573C36.68 71.6313 33.8176 69.5392 31.4236 66.8537C31.3299 66.7497 31.2987 66.5935 31.3508 66.4686C32.5686 63.5334 33.3388 60.442 33.6407 57.2778C33.6511 57.1321 33.7552 57.0072 33.8905 56.9655L38.5327 55.4563C38.5327 55.4563 38.6056 55.4354 38.6472 55.4354C38.7513 55.4354 38.845 55.4771 38.9179 55.5604C41.52 58.4748 44.7779 60.8479 48.3481 62.4197C48.4834 62.4821 48.5666 62.607 48.5666 62.7527V67.6344C48.5666 67.7801 48.4834 67.9154 48.3481 67.9675C45.4337 69.2269 42.7274 70.9235 40.3022 72.9949C40.1981 73.0885 40.0419 73.1093 39.917 73.0469L39.9275 73.0573ZM56.3002 74.0878C56.2898 74.1606 56.2378 74.3271 56.0297 74.3792C52.0119 75.3992 47.7651 75.3992 43.7474 74.3792C43.5497 74.3271 43.4873 74.1606 43.4768 74.0878C43.4664 74.0149 43.4456 73.8484 43.6225 73.7131C45.5169 72.3079 47.5778 71.1317 49.7532 70.2261C49.8469 70.1845 49.9406 70.1845 50.0343 70.2261C52.1993 71.1317 54.2602 72.3079 56.165 73.7131C56.3315 73.838 56.3211 74.0149 56.3106 74.0878H56.3002ZM68.3639 66.8642C65.9699 69.5496 63.1075 71.6313 59.86 73.0573C59.7247 73.1198 59.579 73.0885 59.4749 73.0052C57.0497 70.9339 54.3538 69.2373 51.429 67.9779C51.2937 67.9154 51.2104 67.7905 51.2104 67.6448V62.7632C51.2104 62.6174 51.2937 62.4821 51.429 62.4301C54.9992 60.8584 58.2675 58.4852 60.8592 55.5708C60.9321 55.4875 61.0258 55.4459 61.1298 55.4459C61.1715 55.4459 61.2027 55.4459 61.2443 55.4667L65.8866 56.976C66.0219 57.0176 66.126 57.1425 66.1364 57.2882C66.4382 60.4524 67.2085 63.5334 68.4263 66.479C68.4784 66.6039 68.4575 66.7601 68.3534 66.8642H68.3639ZM70.7995 63.6479C70.685 63.8248 70.508 63.8248 70.4456 63.8144C70.3727 63.8144 70.2062 63.7624 70.1333 63.5646C69.3839 61.3268 68.9051 59.0056 68.7074 56.6637C68.7074 56.57 68.7281 56.4659 68.7906 56.3931C70.3207 54.6132 72.0693 53.0207 73.9949 51.6467C74.0678 51.5947 74.1406 51.5739 74.2031 51.5739C74.2864 51.5739 74.3488 51.6051 74.3904 51.6259C74.4529 51.6571 74.5987 51.7612 74.5779 51.9694C74.3176 56.112 73.0061 60.1506 70.7891 63.6374L70.7995 63.6479Z"/>
</symbol><symbol viewBox="0 0 15 15" id="telegram" xmlns="http://www.w3.org/2000/svg">
    <path d="M11.4181 3.3927C11.4181 3.3927 12.3742 3.01987 12.2942 3.92524C12.2679 4.29808 12.0289 5.60311 11.8429 7.01446L11.2055 11.1956C11.2055 11.1956 11.1523 11.8081 10.6742 11.9147C10.1963 12.021 9.47916 11.5418 9.34627 11.4353C9.23996 11.3553 7.35439 10.1568 6.69042 9.57113C6.50438 9.41117 6.29175 9.09174 6.717 8.7189L9.50549 6.05568C9.82418 5.73625 10.1429 4.99058 8.81495 5.89596L5.09647 8.42581C5.09647 8.42581 4.67147 8.69233 3.87487 8.45263L2.14827 7.91984C2.14827 7.91984 1.51089 7.52043 2.59985 7.12102C5.25594 5.86939 8.52284 4.59117 11.4176 3.3927H11.4181Z"/>
</symbol><symbol viewBox="0 0 9 11" id="tiktok" xmlns="http://www.w3.org/2000/svg">
    <path fill-rule="evenodd" clip-rule="evenodd" d="M5.3543 0.374023C5.66884 0.374023 5.92383 0.629011 5.92383 0.943555C5.92383 1.54775 6.16385 2.1272 6.59108 2.55443C7.01831 2.98166 7.59776 3.22168 8.20196 3.22168C8.5165 3.22168 8.77149 3.47667 8.77149 3.79121C8.77149 4.10575 8.5165 4.36074 8.20196 4.36074C7.35925 4.36074 6.54863 4.04946 5.92383 3.49058V7.77793C5.92383 8.34114 5.75682 8.89171 5.44391 9.36C5.13101 9.8283 4.68627 10.1933 4.16592 10.4088C3.64558 10.6244 3.07301 10.6807 2.52062 10.5709C1.96823 10.461 1.46083 10.1898 1.06258 9.79153C0.664324 9.39328 0.393111 8.88587 0.283234 8.33348C0.173356 7.78109 0.229749 7.20852 0.445282 6.68818C0.660814 6.16784 1.02581 5.72309 1.4941 5.41019C1.96239 5.09729 2.51296 4.93027 3.07617 4.93027C3.39072 4.93027 3.6457 5.18526 3.6457 5.4998C3.6457 5.81435 3.39072 6.06934 3.07617 6.06934C2.73825 6.06934 2.40791 6.16954 2.12693 6.35729C1.84595 6.54503 1.62696 6.81187 1.49764 7.12408C1.36832 7.43628 1.33448 7.77982 1.40041 8.11126C1.46634 8.44269 1.62906 8.74714 1.86802 8.98609C2.10697 9.22504 2.41141 9.38777 2.74284 9.45369C3.07428 9.51962 3.41782 9.48578 3.73002 9.35646C4.04223 9.22715 4.30907 9.00815 4.49682 8.72717C4.68456 8.4462 4.78477 8.11586 4.78477 7.77793V0.943555C4.78477 0.629011 5.03976 0.374023 5.3543 0.374023Z"/>
</symbol><symbol viewBox="0 0 100 100" id="timer" xmlns="http://www.w3.org/2000/svg">
    <path d="M49.6153 99.4071C36.9167 99.4071 24.2286 94.5775 14.559 84.9078C-4.76983 65.579 -4.76983 34.1345 14.559 14.8057C23.9268 5.43793 36.3755 0.285645 49.6153 0.285645C62.8551 0.285645 75.3038 5.43793 84.6716 14.8057C104 34.1345 104 65.579 84.6716 84.9078C75.0124 94.5671 62.3138 99.4071 49.6153 99.4071ZM17.1612 82.3057C35.0536 100.198 64.1665 100.198 82.059 82.3057C99.9514 64.4132 99.9514 35.3003 82.059 17.4079C73.3886 8.73747 61.8662 3.97028 49.6049 3.97028C37.3435 3.97028 25.8211 8.74788 17.1507 17.4079C-0.7417 35.3003 -0.7417 64.4132 17.1507 82.3057H17.1612Z"/>
    <path d="M51.4497 39.4224L42.2693 52.2874H47.7754V61.4678L56.9559 48.6131H51.4497V39.4224Z"/>
    <path d="M49.6055 32.2715C39.5508 32.2715 31.3904 40.4319 31.3904 50.4866C31.3904 60.5413 39.5508 68.6809 49.6055 68.6809C59.6602 68.6809 67.8206 60.5205 67.8206 50.4866C67.8206 40.4527 59.6602 32.2715 49.6055 32.2715ZM49.6055 66.4326C40.779 66.4326 33.6178 59.2715 33.6178 50.445C33.6178 41.6185 40.779 34.4573 49.6055 34.4573C58.432 34.4573 65.5932 41.6185 65.5932 50.445C65.5932 59.2715 58.432 66.4326 49.6055 66.4326Z"/>
    <path d="M77.7625 21.7068C70.2474 14.1813 60.2447 10.0491 49.6071 10.0491C38.9694 10.0491 28.9772 14.1917 21.4517 21.7068C5.93244 37.226 5.93244 62.4878 21.4517 78.0175C29.2166 85.7823 39.4066 89.6647 49.6071 89.6647C59.8075 89.6647 69.9976 85.7823 77.7625 78.0175C93.2817 62.4982 93.2817 37.2364 77.7625 21.7068ZM49.6071 75.1968C35.9926 75.1968 24.9074 64.1115 24.9074 50.497C24.9074 44.4808 27.062 38.9643 30.6426 34.6551L27.624 31.6366C26.7601 30.7727 26.7601 29.3675 27.624 28.4932C28.4879 27.6189 29.8931 27.6293 30.7675 28.4932L33.786 31.5117C37.5331 28.3787 42.2481 26.3178 47.39 25.8806V23.8405H45.35C43.5493 23.8405 42.0608 22.3521 42.0608 20.5514V18.834C42.0608 17.0125 43.5493 15.5449 45.35 15.5449H53.8851C55.6857 15.5449 57.1742 17.0125 57.1742 18.834V20.5514C57.1742 22.3521 55.6857 23.8405 53.8851 23.8405H51.8449V25.8806C56.9972 26.3282 61.7019 28.3891 65.449 31.5117L68.4675 28.4932C69.3314 27.6293 70.7366 27.6293 71.6109 28.4932C72.4748 29.3571 72.4748 30.7622 71.6109 31.6366L68.5924 34.6551C72.173 38.9643 74.3276 44.4704 74.3276 50.497C74.3276 64.1115 63.2424 75.1968 49.6279 75.1968H49.6071Z"/>
</symbol><symbol viewBox="0 0 15 15" id="twitter" xmlns="http://www.w3.org/2000/svg">
    <path d="M11.9818 5.42312V5.73888C11.9818 8.9186 9.65878 12.5625 5.40811 12.5625C4.15326 12.5653 2.92506 12.1866 1.875 11.4731C2.05736 11.4988 2.24132 11.5104 2.42534 11.5078C3.46551 11.5108 4.47643 11.1505 5.29561 10.4848C4.81237 10.4774 4.34367 10.312 3.95612 10.0121C3.56857 9.71225 3.28189 9.29316 3.13682 8.8144C3.28077 8.84609 3.42752 8.86196 3.57466 8.86176C3.78013 8.86181 3.98467 8.83314 4.18277 8.77651C3.65937 8.66815 3.18849 8.37427 2.85071 7.94515C2.51293 7.51602 2.32924 6.97834 2.33108 6.42409V6.39251C2.65131 6.57828 3.01033 6.68016 3.37703 6.68933C2.8889 6.35574 2.54185 5.84118 2.40678 5.25078C2.27172 4.66038 2.35884 4.0387 2.65034 3.51277C3.23116 4.25465 3.95582 4.86128 4.77721 5.29323C5.5986 5.72517 6.49833 5.97277 7.4179 6.01991C7.37239 5.84069 7.3509 5.65581 7.35405 5.47049C7.33693 4.98071 7.46558 4.49736 7.72248 4.08624C7.97938 3.67512 8.35204 3.35622 8.78973 3.17295C9.22742 2.98969 9.70887 2.95096 10.1685 3.06206C10.6282 3.17315 11.0437 3.42866 11.3584 3.7938C11.8759 3.68535 12.3722 3.48792 12.827 3.20964C12.6546 3.77528 12.2877 4.25522 11.7963 4.55794C12.2553 4.49226 12.7028 4.35826 13.125 4.16008C12.819 4.64813 12.4319 5.0758 11.9818 5.42312Z"/>
</symbol><symbol viewBox="0 0 14 9" id="vk" xmlns="http://www.w3.org/2000/svg">
    <path fill-rule="evenodd" clip-rule="evenodd" d="M0.311366 0.540354C0.371931 0.452124 0.468821 0.399902 0.571954 0.399902H2.78376C2.90777 0.399902 3.02076 0.475186 3.07424 0.593447C3.20876 0.89094 3.3395 1.19186 3.46885 1.48956C3.76915 2.18075 4.0619 2.85456 4.37691 3.42766C4.60015 3.8338 4.82287 4.16627 5.05001 4.40235C5.14614 4.50227 5.23943 4.58119 5.33039 4.64085V1.82015L4.66793 0.954135C4.58994 0.852168 4.57431 0.711904 4.62776 0.593574C4.68121 0.475244 4.79423 0.399902 4.91829 0.399902H7.99293C8.17074 0.399902 8.31488 0.552254 8.31488 0.740189V3.9274C8.68263 3.54399 8.9704 3.10703 9.23319 2.63856C9.38446 2.3689 9.52466 2.09411 9.66843 1.81235C9.70318 1.74424 9.73814 1.67572 9.77351 1.60677C9.95336 1.25619 10.142 0.898417 10.3578 0.552775C10.4173 0.457333 10.5183 0.399902 10.6265 0.399902H12.7449C12.8448 0.399902 12.9391 0.448911 13 0.532562C13.061 0.616213 13.0817 0.725028 13.0562 0.827107C12.6506 2.44996 11.8611 3.58348 11.1084 4.66435C11.0786 4.70704 11.049 4.74966 11.0194 4.79221C12.0413 5.75879 12.8603 6.94273 13.4219 8.26775C13.4665 8.37303 13.4576 8.49504 13.3983 8.59187C13.3389 8.68869 13.2372 8.74714 13.128 8.74714H10.7971C10.7199 8.74714 10.6453 8.71782 10.5868 8.66452C10.3405 8.43995 10.1286 8.19418 9.93331 7.95925C9.89333 7.91117 9.85426 7.86381 9.81578 7.81716C9.6622 7.63102 9.51793 7.45615 9.36262 7.2915C9.06504 6.97604 8.74511 6.71853 8.31488 6.5742V8.40686C8.31488 8.57823 8.1943 8.72287 8.03345 8.74444C5.41928 9.09501 3.66121 7.73669 2.47696 5.99732C1.33877 4.32559 0.704335 2.2678 0.302569 0.964676C0.290123 0.924305 0.277899 0.884657 0.265891 0.845768C0.233892 0.742141 0.2508 0.628584 0.311366 0.540354ZM1.01594 1.08048C1.42013 2.37792 2.01304 4.15076 2.9996 5.59979C4.04888 7.14093 5.51702 8.28159 7.67098 8.10006V6.14735C7.67098 6.04814 7.71194 5.95388 7.78313 5.88923C7.85433 5.82459 7.94867 5.796 8.04145 5.81095C8.84935 5.94114 9.38121 6.34731 9.8186 6.81097C9.99065 6.99336 10.1527 7.18987 10.3075 7.37763C10.3444 7.42236 10.3809 7.46658 10.417 7.51001C10.5818 7.70825 10.7436 7.89574 10.9196 8.06657H12.6159C12.0631 6.93407 11.3028 5.92685 10.3774 5.10451C10.2481 4.98959 10.2249 4.78857 10.3241 4.64409C10.4125 4.51555 10.5007 4.38858 10.5885 4.26236C11.2699 3.28221 11.9196 2.34769 12.314 1.08048H10.8021C10.6395 1.35381 10.4898 1.63825 10.3396 1.93118C10.3058 1.99698 10.2719 2.06336 10.2379 2.13016C10.0936 2.41292 9.94567 2.7029 9.78705 2.98566C9.39216 3.68961 8.91397 4.38129 8.17971 4.93406C8.08154 5.00796 7.95254 5.01773 7.84542 4.95936C7.73829 4.901 7.67098 4.78428 7.67098 4.65689V1.08048H5.59261L5.9027 1.48585C5.94902 1.54641 5.97429 1.62193 5.97429 1.6998V5.11968C5.97429 5.21677 5.93506 5.30924 5.86645 5.37381C5.79785 5.43838 5.70642 5.4689 5.61518 5.4577C5.22148 5.40934 4.88503 5.18537 4.59854 4.88762C4.31247 4.59029 4.05609 4.1988 3.82014 3.76954C3.48888 3.16686 3.17473 2.44394 2.8684 1.73901C2.7716 1.51625 2.67558 1.29528 2.58004 1.08048H1.01594Z"/>
    <path d="M2.9996 5.59979C2.01304 4.15076 1.42013 2.37792 1.01594 1.08048H2.58004C2.67558 1.29528 2.7716 1.51625 2.8684 1.73901C3.17473 2.44394 3.48888 3.16686 3.82014 3.76954C4.05609 4.1988 4.31247 4.59029 4.59854 4.88762C4.88503 5.18537 5.22148 5.40934 5.61518 5.4577C5.70642 5.4689 5.79785 5.43838 5.86645 5.37381C5.93506 5.30924 5.97429 5.21677 5.97429 5.11968V1.6998C5.97429 1.62193 5.94902 1.54641 5.9027 1.48585L5.59261 1.08048H7.67098V4.65689C7.67098 4.78428 7.73829 4.901 7.84542 4.95936C7.95254 5.01773 8.08154 5.00796 8.17971 4.93406C8.91397 4.38129 9.39216 3.68961 9.78705 2.98566C9.94567 2.7029 10.0936 2.41292 10.2379 2.13016C10.2719 2.06336 10.3058 1.99698 10.3396 1.93118C10.4898 1.63825 10.6395 1.35381 10.8021 1.08048H12.314C11.9196 2.34769 11.2699 3.28221 10.5885 4.26236C10.5007 4.38858 10.4125 4.51555 10.3241 4.64409C10.2249 4.78857 10.2481 4.98959 10.3774 5.10451C11.3028 5.92685 12.0631 6.93407 12.6159 8.06657H10.9196C10.7436 7.89574 10.5818 7.70825 10.417 7.51001C10.3809 7.46658 10.3444 7.42236 10.3075 7.37763C10.1527 7.18987 9.99065 6.99336 9.8186 6.81097C9.38121 6.34731 8.84935 5.94114 8.04145 5.81095C7.94867 5.796 7.85433 5.82459 7.78313 5.88923C7.71194 5.95388 7.67098 6.04814 7.67098 6.14735V8.10006C5.51702 8.28159 4.04888 7.14093 2.9996 5.59979Z"/>
</symbol><symbol viewBox="0 0 100 222" id="world" xmlns="http://www.w3.org/2000/svg">
    <path d="M0.546753 50.4613C0.546753 23.1386 22.7796 0.905762 50.1023 0.905762C77.425 0.905762 99.6578 23.1386 99.6578 50.4613C99.6578 77.7839 77.425 100.017 50.1023 100.017C22.7796 100.017 0.546753 77.7839 0.546753 50.4613ZM96.0877 50.4613C96.0877 25.1058 75.4577 4.47592 50.1023 4.47592C24.7469 4.47592 4.11697 25.1058 4.11697 50.4613C4.11697 75.8167 24.7469 96.4466 50.1023 96.4466C75.4577 96.4466 96.0877 75.8167 96.0877 50.4613Z"/>
    <path d="M0.544089 171.607C0.544089 170.618 1.34558 169.827 2.32399 169.827C3.3024 169.827 4.10389 170.629 4.10389 171.607C4.10389 196.963 24.7338 217.593 50.0892 217.593C75.4447 217.593 96.0746 196.963 96.0746 171.607C96.0746 170.618 96.8761 169.827 97.8545 169.827C98.8329 169.827 99.6343 170.629 99.6343 171.607C99.6343 198.93 77.4015 221.163 50.0788 221.163C22.7561 221.163 0.523315 198.93 0.523315 171.607H0.544089Z"/>
    <path d="M98.1434 49.2644H76.4414V53.5423H98.1434V49.2644Z"/>
    <path d="M23.4207 49.2644H1.71863V53.5423H23.4207V49.2644Z"/>
    <path d="M52.4107 78.2419H48.1328V99.944H52.4107V78.2419Z"/>
    <path d="M52.4107 2.86255H48.1328V24.5645H52.4107V2.86255Z"/>
    <path d="M75.7859 24.2522C60.9432 9.40944 36.868 9.40944 22.0148 24.2522C7.17213 39.0949 7.17213 63.1701 22.0148 78.0232C36.8576 92.8659 60.9328 92.8659 75.7859 78.0232C90.6286 63.1805 90.6286 39.1053 75.7859 24.2522ZM56.2489 27.4684C60.5789 28.8112 64.4613 31.3196 67.4798 34.7337L68.0626 35.3894L67.2092 35.5872C64.9505 36.118 62.5357 36.5552 60.0376 36.8778L59.5901 36.9403L59.4652 36.5031C59.0488 35.0772 58.5596 33.7032 57.9975 32.4333C57.3001 30.8408 56.5195 29.446 55.666 28.2699L54.7292 26.9896L56.2489 27.458V27.4684ZM38.8768 49.9511L38.8977 49.4098C39.0018 46.1207 39.3661 42.9773 39.9906 40.0837L40.0843 39.6257L40.5526 39.6673C46.0276 40.1461 51.8773 40.1253 57.321 39.6153L57.7893 39.5737L57.8934 40.0317C58.5284 42.9565 58.8927 46.1103 58.9863 49.4098V49.9511H38.8873H38.8768ZM58.9863 52.3659V52.9072C58.8718 56.2067 58.5075 59.3605 57.8726 62.2853L57.7685 62.7433L57.3001 62.7017C51.8564 62.1916 46.0068 62.1812 40.5319 62.6496L40.0634 62.6912L39.9697 62.2333C39.3452 59.3396 38.9809 56.2067 38.8768 52.9072L38.856 52.3659H58.9655H58.9863ZM48.9316 26.5629C51.9605 26.5629 55.0415 30.4036 56.9671 36.5968L57.1648 37.2213L56.5091 37.2734C53.9486 37.4919 51.3048 37.6064 48.6506 37.6064C46.1837 37.6064 43.7273 37.5127 41.3333 37.315L40.6775 37.2629L40.8753 36.628C42.8009 30.4141 45.8923 26.5525 48.9316 26.5525V26.5629ZM30.2793 34.8481C33.3186 31.3821 37.2323 28.832 41.6143 27.4789L43.1444 27.0105L42.1972 28.3011C41.3437 29.4669 40.5527 30.872 39.8657 32.4542C39.314 33.7032 38.8144 35.0979 38.3773 36.5968L38.2524 37.0236L37.8048 36.9715C35.2859 36.6593 32.8503 36.2429 30.5604 35.7121L29.6964 35.5143L30.2793 34.8481ZM24.2007 49.389C24.4921 45.3297 25.7932 41.3744 27.9686 37.9291L28.1768 37.6064L28.5515 37.7001C31.2161 38.3767 34.0889 38.9179 37.1074 39.3031L37.6695 39.3759L37.5549 39.938C36.9304 42.9565 36.5766 46.1519 36.4829 49.4411V49.9511H24.1694L24.2111 49.389H24.2007ZM28.1768 64.7105L27.9686 64.3878C25.7932 60.953 24.4921 56.9873 24.2007 52.9279L24.159 52.3659H36.462V52.8759C36.5661 56.165 36.9305 59.3709 37.5446 62.379L37.6591 62.941L37.097 63.0139C34.0889 63.399 31.2057 63.9403 28.5411 64.6169L28.1664 64.7105H28.1768ZM41.6143 74.8485C37.2323 73.4954 33.3186 70.9453 30.2793 67.4792L29.6964 66.8131L30.5604 66.6153C32.8503 66.0949 35.2859 65.6681 37.8048 65.3558L38.2524 65.3038L38.3773 65.7306C38.8144 67.2294 39.314 68.6242 39.8657 69.8732C40.5631 71.4657 41.3437 72.8605 42.1972 74.0367L43.1444 75.3273L41.6143 74.8589V74.8485ZM48.9316 75.7541C45.8923 75.7541 42.8009 71.8925 40.8753 65.6785L40.6775 65.0436L41.3333 64.9916C46.2982 64.596 51.5858 64.6064 56.5091 65.0332L57.1648 65.0852L56.9671 65.7098C55.0311 71.8925 51.9501 75.7437 48.9316 75.7437V75.7541ZM67.4798 67.5833C64.4613 70.9973 60.5684 73.5058 56.2489 74.8485L54.7292 75.3169L55.666 74.0367C56.5195 72.8709 57.3001 71.4657 57.9975 69.8732C58.5492 68.593 59.0488 67.2294 59.4652 65.8034L59.5901 65.3663L60.0376 65.4287C62.5357 65.7514 64.9505 66.1885 67.2092 66.7194L68.0626 66.9276L67.4798 67.5833ZM73.6521 52.9279C73.3607 57.0289 72.0388 61.0363 69.8113 64.5127L69.6032 64.8354L69.2285 64.7418C66.5951 64.0444 63.7327 63.4927 60.735 63.0868L60.1729 63.0139L60.2874 62.4623C60.9119 59.4438 61.2762 56.2275 61.3699 52.8863V52.3763H73.6833L73.6417 52.9383L73.6521 52.9279ZM61.3907 49.9511V49.4411C61.2866 46.0999 60.9224 42.8732 60.2978 39.8651L60.1834 39.3135L60.7454 39.2406C63.7431 38.8347 66.595 38.283 69.2388 37.5856L69.6136 37.492L69.8217 37.8146C72.0491 41.2911 73.3815 45.288 73.6625 49.3994L73.7042 49.9615H61.4011L61.3907 49.9511Z"/>
    <path d="M0.484375 172.357V52.7616C0.484375 51.7728 1.28586 50.9817 2.26427 50.9817C3.24269 50.9817 4.04417 51.7832 4.04417 52.7616V172.357C4.04417 173.346 3.24269 174.137 2.26427 174.137C1.28586 174.137 0.484375 173.335 0.484375 172.357Z"/>
    <path d="M96.0352 172.628V53.0323C96.0352 52.0435 96.8366 51.2524 97.815 51.2524C98.7934 51.2524 99.5949 52.0539 99.5949 53.0323V172.628C99.5949 173.616 98.7934 174.407 97.815 174.407C96.8366 174.407 96.0352 173.606 96.0352 172.628Z"/>
</symbol><symbol viewBox="0 0 13 9" id="youtube" xmlns="http://www.w3.org/2000/svg">
    <path d="M5.375 6.1875L8.29437 4.5L5.375 2.8125V6.1875ZM11.8775 1.78313C11.9506 2.0475 12.0013 2.40188 12.035 2.85188C12.0744 3.30188 12.0913 3.69 12.0913 4.0275L12.125 4.5C12.125 5.73188 12.035 6.6375 11.8775 7.21688C11.7369 7.72313 11.4106 8.04938 10.9044 8.19C10.64 8.26313 10.1562 8.31375 9.41375 8.3475C8.6825 8.38688 8.01312 8.40375 7.39437 8.40375L6.5 8.4375C4.14313 8.4375 2.675 8.3475 2.09563 8.19C1.58938 8.04938 1.26313 7.72313 1.1225 7.21688C1.04938 6.9525 0.99875 6.59813 0.965 6.14813C0.925625 5.69813 0.90875 5.31 0.90875 4.9725L0.875 4.5C0.875 3.26813 0.965 2.3625 1.1225 1.78313C1.26313 1.27688 1.58938 0.950625 2.09563 0.81C2.36 0.736875 2.84375 0.68625 3.58625 0.6525C4.3175 0.613125 4.98688 0.59625 5.60563 0.59625L6.5 0.5625C8.85687 0.5625 10.325 0.6525 10.9044 0.81C11.4106 0.950625 11.7369 1.27688 11.8775 1.78313Z"/>
</symbol></svg>