<?xml version="1.0" encoding="utf-8"?><svg xmlns="http://www.w3.org/2000/svg" xmlns:xlink="http://www.w3.org/1999/xlink"><symbol viewBox="0 0 27 27" id="BG_Vector" xmlns="http://www.w3.org/2000/svg">
    <path fill-rule="evenodd" clip-rule="evenodd" d="M0 13.5C0 20.942 6.05516 27 13.5 27C20.942 27 27 20.942 27 13.5C27 6.05798 20.942 0 13.5 0C6.05799 0 0 6.05798 0 13.5ZM5.01349 4.1929C7.25443 2.14778 10.2341 0.89905 13.5 0.89905C16.765 0.89905 19.7438 2.14702 21.9845 4.19103L20.9825 5.19303C19.0012 3.40726 16.3776 2.32031 13.5 2.32031C10.6214 2.32031 7.99701 3.40801 6.01547 5.19488L5.01349 4.1929ZM4.19133 5.01521C2.14714 7.25594 0.89905 10.2349 0.89905 13.5C0.89905 16.7648 2.14693 19.7435 4.1908 21.9842L5.19278 20.9822C3.40716 19.0009 2.32031 16.3775 2.32031 13.5C2.32031 10.6222 3.40738 7.99854 5.19332 6.01719L4.19133 5.01521ZM5.0129 22.8065C7.25391 24.852 10.2338 26.1009 13.5 26.1009C16.7646 26.1009 19.7431 24.8532 21.9837 22.8096L20.9817 21.8077C19.0005 23.593 16.3773 24.6797 13.5 24.6797C10.6211 24.6797 7.99648 23.5918 6.01487 21.8046L5.0129 22.8065ZM26.101 13.5C26.101 16.7665 24.8518 19.7465 22.8061 21.9876L21.8042 20.9856C23.5916 19.0039 24.6797 16.3792 24.6797 13.5C24.6797 10.6212 23.5919 7.99673 21.8048 6.01515L22.8068 5.01317C24.8521 7.25414 26.101 10.2339 26.101 13.5Z"/>
</symbol><symbol viewBox="0 0 15 15" id="Facebook" xmlns="http://www.w3.org/2000/svg">
    <path d="M9.24928 3.74276H10.3068V1.95401C9.79476 1.90077 9.2803 1.87448 8.76553 1.87526C7.23553 1.87526 6.18928 2.80901 6.18928 4.51901V5.99276H4.4624V7.99526H6.18928V13.1253H8.25928V7.99526H9.98053L10.2393 5.99276H8.25928V4.71589C8.25928 4.12526 8.41678 3.74276 9.24928 3.74276Z"/>
</symbol><symbol viewBox="0 0 15 15" id="Instagram" xmlns="http://www.w3.org/2000/svg">
    <path d="M7.5 2.01562C8.9901 2.01562 9.17602 2.02111 9.76066 2.04853C10.3447 2.07595 10.7424 2.16754 11.0923 2.30355C11.4542 2.44286 11.7592 2.63152 12.0641 2.9359C12.343 3.21006 12.5588 3.5417 12.6964 3.90773C12.8319 4.25709 12.924 4.65525 12.9515 5.23934C12.9772 5.82397 12.9844 6.0099 12.9844 7.5C12.9844 8.9901 12.9789 9.17602 12.9515 9.76066C12.924 10.3447 12.8319 10.7424 12.6964 11.0923C12.5592 11.4585 12.3433 11.7902 12.0641 12.0641C11.7899 12.3429 11.4582 12.5587 11.0923 12.6964C10.7429 12.8319 10.3447 12.924 9.76066 12.9515C9.17602 12.9772 8.9901 12.9844 7.5 12.9844C6.0099 12.9844 5.82397 12.9789 5.23934 12.9515C4.65525 12.924 4.25764 12.8319 3.90773 12.6964C3.54156 12.559 3.20986 12.3432 2.9359 12.0641C2.65697 11.79 2.44117 11.4583 2.30355 11.0923C2.16754 10.7429 2.07595 10.3447 2.04853 9.76066C2.02275 9.17602 2.01562 8.9901 2.01562 7.5C2.01562 6.0099 2.02111 5.82397 2.04853 5.23934C2.07595 4.65471 2.16754 4.25764 2.30355 3.90773C2.44079 3.54148 2.65664 3.20975 2.9359 2.9359C3.20994 2.65688 3.54161 2.44106 3.90773 2.30355C4.25764 2.16754 4.65471 2.07595 5.23934 2.04853C5.82397 2.02275 6.0099 2.01562 7.5 2.01562ZM7.5 4.75781C6.77273 4.75781 6.07524 5.04672 5.56098 5.56098C5.04672 6.07524 4.75781 6.77273 4.75781 7.5C4.75781 8.22727 5.04672 8.92476 5.56098 9.43902C6.07524 9.95328 6.77273 10.2422 7.5 10.2422C8.22727 10.2422 8.92476 9.95328 9.43902 9.43902C9.95328 8.92476 10.2422 8.22727 10.2422 7.5C10.2422 6.77273 9.95328 6.07524 9.43902 5.56098C8.92476 5.04672 8.22727 4.75781 7.5 4.75781ZM11.0648 4.6207C11.0648 4.43888 10.9926 4.26451 10.8641 4.13595C10.7355 4.00738 10.5611 3.93516 10.3793 3.93516C10.1975 3.93516 10.0231 4.00738 9.89454 4.13595C9.76598 4.26451 9.69375 4.43888 9.69375 4.6207C9.69375 4.80252 9.76598 4.97689 9.89454 5.10546C10.0231 5.23402 10.1975 5.30625 10.3793 5.30625C10.5611 5.30625 10.7355 5.23402 10.8641 5.10546C10.9926 4.97689 11.0648 4.80252 11.0648 4.6207ZM7.5 5.85469C7.93636 5.85469 8.35486 6.02803 8.66341 6.33659C8.97197 6.64514 9.14531 7.06364 9.14531 7.5C9.14531 7.93636 8.97197 8.35486 8.66341 8.66341C8.35486 8.97197 7.93636 9.14531 7.5 9.14531C7.06364 9.14531 6.64514 8.97197 6.33659 8.66341C6.02803 8.35486 5.85469 7.93636 5.85469 7.5C5.85469 7.06364 6.02803 6.64514 6.33659 6.33659C6.64514 6.02803 7.06364 5.85469 7.5 5.85469Z"/>
</symbol><symbol viewBox="0 0 15 15" id="LinkedIn" xmlns="http://www.w3.org/2000/svg">
    <path d="M2.33203 3.07234C2.33203 2.66343 2.67183 2.33203 3.09108 2.33203H11.9089C12.3282 2.33203 12.668 2.66343 12.668 3.07234V11.9277C12.668 12.3366 12.3282 12.668 11.9089 12.668H3.09108C2.67183 12.668 2.33203 12.3366 2.33203 11.9277V3.07234ZM5.52519 10.9845V6.31718H3.97415V10.9845H5.52519ZM4.74999 5.67958C5.29069 5.67958 5.62726 5.3217 5.62726 4.87338C5.61757 4.41537 5.29134 4.06718 4.76033 4.06718C4.22932 4.06718 3.88242 4.41601 3.88242 4.87338C3.88242 5.3217 4.21899 5.67958 4.73966 5.67958H4.74999ZM7.92054 10.9845V8.37791C7.92054 8.23837 7.93088 8.09884 7.97222 7.99935C8.08398 7.72093 8.33915 7.43217 8.76809 7.43217C9.32946 7.43217 9.55362 7.85982 9.55362 8.48773V10.9845H11.1047V8.3075C11.1047 6.87338 10.3398 6.20672 9.31913 6.20672C8.49613 6.20672 8.12726 6.65891 7.92054 6.97739V6.99354H7.91021C7.91364 6.98815 7.91708 6.98276 7.92054 6.97739V6.31718H6.37015C6.38953 6.75517 6.37015 10.9845 6.37015 10.9845H7.92054Z"/>
</symbol><symbol viewBox="0 0 15 15" id="Telegram" xmlns="http://www.w3.org/2000/svg">
    <path d="M11.4181 3.3927C11.4181 3.3927 12.3742 3.01987 12.2942 3.92524C12.2679 4.29808 12.0289 5.60311 11.8429 7.01446L11.2055 11.1956C11.2055 11.1956 11.1523 11.8081 10.6742 11.9147C10.1963 12.021 9.47916 11.5418 9.34627 11.4353C9.23996 11.3553 7.35439 10.1568 6.69042 9.57113C6.50438 9.41117 6.29175 9.09174 6.717 8.7189L9.50549 6.05568C9.82418 5.73625 10.1429 4.99058 8.81495 5.89596L5.09647 8.42581C5.09647 8.42581 4.67147 8.69233 3.87487 8.45263L2.14827 7.91984C2.14827 7.91984 1.51089 7.52043 2.59985 7.12102C5.25594 5.86939 8.52284 4.59117 11.4176 3.3927H11.4181Z"/>
</symbol><symbol viewBox="0 0 9 11" id="TikTok" xmlns="http://www.w3.org/2000/svg">
    <path fill-rule="evenodd" clip-rule="evenodd" d="M5.3543 0.374023C5.66884 0.374023 5.92383 0.629011 5.92383 0.943555C5.92383 1.54775 6.16385 2.1272 6.59108 2.55443C7.01831 2.98166 7.59776 3.22168 8.20196 3.22168C8.5165 3.22168 8.77149 3.47667 8.77149 3.79121C8.77149 4.10575 8.5165 4.36074 8.20196 4.36074C7.35925 4.36074 6.54863 4.04946 5.92383 3.49058V7.77793C5.92383 8.34114 5.75682 8.89171 5.44391 9.36C5.13101 9.8283 4.68627 10.1933 4.16592 10.4088C3.64558 10.6244 3.07301 10.6807 2.52062 10.5709C1.96823 10.461 1.46083 10.1898 1.06258 9.79153C0.664324 9.39328 0.393111 8.88587 0.283234 8.33348C0.173356 7.78109 0.229749 7.20852 0.445282 6.68818C0.660814 6.16784 1.02581 5.72309 1.4941 5.41019C1.96239 5.09729 2.51296 4.93027 3.07617 4.93027C3.39072 4.93027 3.6457 5.18526 3.6457 5.4998C3.6457 5.81435 3.39072 6.06934 3.07617 6.06934C2.73825 6.06934 2.40791 6.16954 2.12693 6.35729C1.84595 6.54503 1.62696 6.81187 1.49764 7.12408C1.36832 7.43628 1.33448 7.77982 1.40041 8.11126C1.46634 8.44269 1.62906 8.74714 1.86802 8.98609C2.10697 9.22504 2.41141 9.38777 2.74284 9.45369C3.07428 9.51962 3.41782 9.48578 3.73002 9.35646C4.04223 9.22715 4.30907 9.00815 4.49682 8.72717C4.68456 8.4462 4.78477 8.11586 4.78477 7.77793V0.943555C4.78477 0.629011 5.03976 0.374023 5.3543 0.374023Z"/>
</symbol><symbol viewBox="0 0 15 15" id="Twitter" xmlns="http://www.w3.org/2000/svg">
    <path d="M11.9818 5.42312V5.73888C11.9818 8.9186 9.65878 12.5625 5.40811 12.5625C4.15326 12.5653 2.92506 12.1866 1.875 11.4731C2.05736 11.4988 2.24132 11.5104 2.42534 11.5078C3.46551 11.5108 4.47643 11.1505 5.29561 10.4848C4.81237 10.4774 4.34367 10.312 3.95612 10.0121C3.56857 9.71225 3.28189 9.29316 3.13682 8.8144C3.28077 8.84609 3.42752 8.86196 3.57466 8.86176C3.78013 8.86181 3.98467 8.83314 4.18277 8.77651C3.65937 8.66815 3.18849 8.37427 2.85071 7.94515C2.51293 7.51602 2.32924 6.97834 2.33108 6.42409V6.39251C2.65131 6.57828 3.01033 6.68016 3.37703 6.68933C2.8889 6.35574 2.54185 5.84118 2.40678 5.25078C2.27172 4.66038 2.35884 4.0387 2.65034 3.51277C3.23116 4.25465 3.95582 4.86128 4.77721 5.29323C5.5986 5.72517 6.49833 5.97277 7.4179 6.01991C7.37239 5.84069 7.3509 5.65581 7.35405 5.47049C7.33693 4.98071 7.46558 4.49736 7.72248 4.08624C7.97938 3.67512 8.35204 3.35622 8.78973 3.17295C9.22742 2.98969 9.70887 2.95096 10.1685 3.06206C10.6282 3.17315 11.0437 3.42866 11.3584 3.7938C11.8759 3.68535 12.3722 3.48792 12.827 3.20964C12.6546 3.77528 12.2877 4.25522 11.7963 4.55794C12.2553 4.49226 12.7028 4.35826 13.125 4.16008C12.819 4.64813 12.4319 5.0758 11.9818 5.42312Z"/>
</symbol><symbol viewBox="0 0 12 8" id="VK" xmlns="http://www.w3.org/2000/svg">
    <path fill-rule="evenodd" clip-rule="evenodd" d="M0.856465 0.580909C0.907566 0.506465 0.989318 0.462402 1.07634 0.462402H2.94255C3.04718 0.462402 3.14251 0.525923 3.18764 0.625706C3.30114 0.876715 3.41146 1.13062 3.52059 1.3818C3.77397 1.96499 4.02098 2.53352 4.28677 3.01707C4.47512 3.35976 4.66304 3.64028 4.85469 3.83947C4.93581 3.92377 5.01452 3.99037 5.09127 4.04071V1.66074L4.53232 0.930037C4.46651 0.844002 4.45332 0.725654 4.49842 0.625813C4.54352 0.525972 4.63888 0.462402 4.74356 0.462402H7.33778C7.48781 0.462402 7.60943 0.590949 7.60943 0.74952V3.43873C7.91972 3.11523 8.16252 2.74654 8.38425 2.35127C8.51189 2.12374 8.63018 1.89189 8.75149 1.65415C8.78081 1.59668 8.8103 1.53887 8.84015 1.48069C8.9919 1.1849 9.15105 0.883024 9.33311 0.591389C9.38339 0.51086 9.46857 0.462402 9.55985 0.462402H11.3473C11.4316 0.462402 11.5111 0.503754 11.5625 0.574334C11.6139 0.644914 11.6314 0.736727 11.6099 0.822856C11.2677 2.19214 10.6016 3.14855 9.96644 4.06053C9.94135 4.09655 9.91631 4.13251 9.89134 4.16842C10.7536 4.98396 11.4447 5.98291 11.9185 7.1009C11.9561 7.18973 11.9486 7.29268 11.8985 7.37437C11.8485 7.45607 11.7626 7.50539 11.6705 7.50539H9.70382C9.63868 7.50539 9.5757 7.48064 9.52638 7.43567C9.31857 7.24619 9.13978 7.03882 8.97498 6.8406C8.94125 6.80003 8.90828 6.76008 8.87581 6.72072C8.74623 6.56366 8.62451 6.41611 8.49346 6.27719C8.24238 6.01102 7.97243 5.79374 7.60943 5.67197V7.21827C7.60943 7.36287 7.50769 7.4849 7.37197 7.5031C5.16627 7.7989 3.6829 6.65282 2.68369 5.18522C1.72334 3.7747 1.18803 2.03844 0.849043 0.93893C0.838541 0.904867 0.828227 0.871414 0.818095 0.838602C0.791097 0.751167 0.805363 0.655353 0.856465 0.580909ZM1.45095 1.03664C1.79198 2.13135 2.29225 3.62719 3.12466 4.84981C4.01 6.15015 5.24874 7.11257 7.06614 6.95941V5.31181C7.06614 5.22811 7.1007 5.14857 7.16077 5.09403C7.22084 5.03948 7.30044 5.01536 7.37873 5.02797C8.06039 5.13783 8.50915 5.48053 8.87819 5.87174C9.02336 6.02563 9.16009 6.19144 9.29074 6.34986C9.32185 6.3876 9.35263 6.42492 9.38309 6.46155C9.52215 6.62882 9.65865 6.78702 9.80719 6.93115H11.2384C10.772 5.97561 10.1305 5.12577 9.34972 4.43191C9.24061 4.33495 9.22097 4.16534 9.30474 4.04343C9.37926 3.93498 9.45374 3.82785 9.52777 3.72135C10.1027 2.89435 10.6509 2.10585 10.9837 1.03664H9.70801C9.5708 1.26726 9.44455 1.50725 9.31775 1.75442C9.28927 1.80993 9.26069 1.86595 9.23194 1.9223C9.11023 2.16088 8.98541 2.40556 8.85158 2.64414C8.51838 3.2381 8.11491 3.8217 7.49538 4.2881C7.41255 4.35045 7.30371 4.35869 7.21332 4.30945C7.12293 4.2602 7.06614 4.16172 7.06614 4.05424V1.03664H5.31252L5.57415 1.37867C5.61324 1.42977 5.63456 1.49348 5.63456 1.55919V4.44472C5.63456 4.52664 5.60145 4.60466 5.54357 4.65914C5.48569 4.71362 5.40854 4.73937 5.33155 4.72992C4.99937 4.68911 4.71549 4.50014 4.47377 4.24891C4.2324 3.99804 4.01607 3.66772 3.817 3.30553C3.53749 2.79702 3.27243 2.18706 3.01396 1.59227C2.93229 1.40432 2.85127 1.21788 2.77066 1.03664H1.45095Z"/>
    <path d="M3.12466 4.84981C2.29225 3.62719 1.79198 2.13135 1.45095 1.03664H2.77066C2.85127 1.21788 2.93229 1.40432 3.01396 1.59227C3.27243 2.18706 3.53749 2.79702 3.817 3.30553C4.01607 3.66772 4.2324 3.99804 4.47377 4.24891C4.71549 4.50014 4.99937 4.68911 5.33155 4.72992C5.40854 4.73937 5.48569 4.71362 5.54357 4.65914C5.60145 4.60466 5.63456 4.52664 5.63456 4.44472V1.55919C5.63456 1.49348 5.61324 1.42977 5.57415 1.37867L5.31252 1.03664H7.06614V4.05424C7.06614 4.16172 7.12293 4.2602 7.21332 4.30945C7.30371 4.35869 7.41255 4.35045 7.49538 4.2881C8.11491 3.8217 8.51838 3.2381 8.85158 2.64414C8.98541 2.40556 9.11023 2.16088 9.23194 1.9223C9.26069 1.86595 9.28927 1.80993 9.31775 1.75442C9.44455 1.50725 9.5708 1.26726 9.70801 1.03664H10.9837C10.6509 2.10585 10.1027 2.89435 9.52777 3.72135C9.45374 3.82785 9.37926 3.93498 9.30474 4.04343C9.22097 4.16534 9.24061 4.33495 9.34972 4.43191C10.1305 5.12577 10.772 5.97561 11.2384 6.93115H9.80719C9.65865 6.78702 9.52215 6.62882 9.38309 6.46155C9.35263 6.42492 9.32185 6.3876 9.29074 6.34986C9.16009 6.19144 9.02336 6.02563 8.87819 5.87174C8.50915 5.48053 8.06039 5.13783 7.37873 5.02797C7.30044 5.01536 7.22084 5.03948 7.16077 5.09403C7.1007 5.14857 7.06614 5.22811 7.06614 5.31181V6.95941C5.24874 7.11257 4.01 6.15015 3.12466 4.84981Z"/>
</symbol><symbol viewBox="0 0 13 9" id="Youtube" xmlns="http://www.w3.org/2000/svg">
    <path d="M5.375 6.1875L8.29437 4.5L5.375 2.8125V6.1875ZM11.8775 1.78313C11.9506 2.0475 12.0013 2.40188 12.035 2.85188C12.0744 3.30188 12.0913 3.69 12.0913 4.0275L12.125 4.5C12.125 5.73188 12.035 6.6375 11.8775 7.21688C11.7369 7.72313 11.4106 8.04938 10.9044 8.19C10.64 8.26313 10.1562 8.31375 9.41375 8.3475C8.6825 8.38688 8.01312 8.40375 7.39437 8.40375L6.5 8.4375C4.14313 8.4375 2.675 8.3475 2.09563 8.19C1.58938 8.04938 1.26313 7.72313 1.1225 7.21688C1.04938 6.9525 0.99875 6.59813 0.965 6.14813C0.925625 5.69813 0.90875 5.31 0.90875 4.9725L0.875 4.5C0.875 3.26813 0.965 2.3625 1.1225 1.78313C1.26313 1.27688 1.58938 0.950625 2.09563 0.81C2.36 0.736875 2.84375 0.68625 3.58625 0.6525C4.3175 0.613125 4.98688 0.59625 5.60563 0.59625L6.5 0.5625C8.85687 0.5625 10.325 0.6525 10.9044 0.81C11.4106 0.950625 11.7369 1.27688 11.8775 1.78313Z"/>
</symbol><symbol viewBox="0 0 16 16" id="lang" xmlns="http://www.w3.org/2000/svg">
    <g clip-path="url(#dclip0_24912_249)">
        <path d="M14.1692 3.71888C12.7989 1.84023 11.0012 0.775068 8.6355 0.5C9.74223 1.7817 10.5035 3.16875 10.9895 4.71966C12.0962 4.49141 13.1444 4.19294 14.1692 3.71888Z"/>
        <path d="M4.25006 5.52288C3.83001 5.41303 3.42197 5.30631 3.01989 5.18202C2.66058 5.06606 2.30606 4.93336 1.95173 4.80073C1.7517 4.72586 1.55173 4.65102 1.35101 4.57922C0.162292 6.66856 0.273551 9.63579 1.34515 11.3857C1.94399 11.1975 2.53794 11.0093 3.13731 10.8194L3.1384 10.8191C3.67559 10.6489 4.21745 10.4772 4.77076 10.303C4.45455 8.78132 4.4604 7.21285 4.77661 5.66193C4.59874 5.61407 4.42337 5.5682 4.25006 5.52288Z"/>
        <path d="M12.9458 5.15847C12.3749 5.33989 11.8035 5.52147 11.2297 5.70289C11.5459 7.23625 11.5342 8.79301 11.2297 10.2971C12.3891 10.6658 13.5193 11.0228 14.6612 11.3798C15.7855 9.45435 15.7737 6.52809 14.6612 4.61432C14.0874 4.7957 13.5166 4.97709 12.9458 5.15847Z"/>
        <path d="M5.7194 10.2269C5.39148 8.74034 5.40319 7.28307 5.70183 5.82579C5.94061 5.83983 6.17518 5.8565 6.40679 5.87296C6.9476 5.91139 7.47255 5.94869 7.99728 5.94869C8.52199 5.94869 9.0467 5.91141 9.58748 5.87298C9.81907 5.85652 10.054 5.83983 10.2927 5.82579C10.6148 7.25966 10.6031 8.72864 10.2869 10.221C8.75267 10.022 7.2536 10.0103 5.7194 10.2269Z"/>
        <path d="M14.1693 12.2753C12.8107 14.1539 11.0072 15.2132 8.64145 15.5C9.73062 14.2242 10.5094 12.843 10.9837 11.2862C12.0846 11.4969 13.1269 11.8129 14.1693 12.2753Z"/>
        <path d="M7.35894 0.5C4.99322 0.780921 3.18965 1.84608 1.78428 3.78326C2.88515 4.12271 3.92162 4.44459 4.99322 4.77819C5.49096 3.15704 6.26391 1.7817 7.35894 0.5Z"/>
        <path d="M7.35894 15.5C4.99907 15.2191 3.20136 14.1598 1.78428 12.2167C2.13525 12.1085 2.47968 12.0021 2.82079 11.8967L2.82228 11.8962C3.55057 11.6711 4.26377 11.4508 4.99322 11.2277C5.49096 12.8312 6.2522 14.2183 7.35894 15.5Z"/>
        <path d="M10.0408 4.86013C9.60158 3.48479 8.92817 2.28503 7.99711 1.19646C7.06019 2.30258 6.38093 3.4965 5.95931 4.86013C7.33541 5.04156 8.67052 5.04741 10.0408 4.86013Z"/>
        <path d="M8.00297 14.8035C7.07191 13.7208 6.39849 12.521 5.95931 11.1457C7.3237 10.9526 8.65881 10.9584 10.0466 11.1399C9.60744 12.5093 8.93403 13.7033 8.00297 14.8035Z"/>
    </g>
    <defs>
        <clipPath id="dclip0_24912_249">
            <rect width="16" height="16"/>
        </clipPath>
    </defs>
</symbol></svg>