<?xml version="1.0" encoding="utf-8"?><svg viewBox="0 0 27 27" xmlns="http://www.w3.org/2000/svg" xmlns:xlink="http://www.w3.org/1999/xlink"><style>:root>svg{display:none}:root>svg:target{display:block}</style><svg fill="none" viewBox="0 0 27 27" id="BG_Vector" xmlns="http://www.w3.org/2000/svg">
    <path fill-rule="evenodd" clip-rule="evenodd" d="M0 13.5C0 20.942 6.055 27 13.5 27 20.942 27 27 20.942 27 13.5S20.942 0 13.5 0 0 6.058 0 13.5Zm5.013-9.307A12.553 12.553 0 0 1 13.5.899c3.265 0 6.244 1.248 8.485 3.292l-1.002 1.002A11.139 11.139 0 0 0 13.5 2.32a11.139 11.139 0 0 0-7.485 2.875L5.013 4.193Zm-.822.822A12.553 12.553 0 0 0 .9 13.5c0 3.265 1.248 6.244 3.292 8.484l1.002-1.002A11.139 11.139 0 0 1 2.32 13.5c0-2.878 1.087-5.501 2.873-7.483L4.191 5.015Zm.822 17.791a12.552 12.552 0 0 0 8.487 3.295c3.265 0 6.243-1.248 8.484-3.291l-1.002-1.002A11.139 11.139 0 0 1 13.5 24.68a11.139 11.139 0 0 1-7.485-2.875l-1.002 1.002ZM26.1 13.5c0 3.267-1.25 6.247-3.295 8.488l-1.002-1.002A11.139 11.139 0 0 0 24.68 13.5c0-2.879-1.088-5.503-2.875-7.485l1.002-1.002A12.553 12.553 0 0 1 26.1 13.5Z" fill="#F97247"/>
</svg><svg fill="none" viewBox="0 0 15 15" id="Facebook" xmlns="http://www.w3.org/2000/svg">
    <path d="M9.25 3.743h1.057V1.954a14.688 14.688 0 0 0-1.541-.079c-1.53 0-2.577.934-2.577 2.644v1.474H4.462v2.002H6.19v5.13h2.07v-5.13h1.722l.258-2.002H8.26V4.716c0-.59.158-.973.99-.973Z" fill="#191D0A"/>
</svg><svg fill="none" viewBox="0 0 16 16" id="Icon_-_Planet" xmlns="http://www.w3.org/2000/svg">
    <g clip-path="url(#ca)" fill="#EBF29D">
        <path d="M14.17 3.719C12.798 1.84 11 .775 8.635.5a11.684 11.684 0 0 1 2.354 4.22c1.106-.229 2.154-.527 3.18-1.001ZM4.25 5.523c-.42-.11-.828-.217-1.23-.341-.36-.116-.714-.249-1.068-.381-.2-.075-.4-.15-.601-.222C.162 6.67.274 9.636 1.345 11.386c.599-.188 1.193-.377 1.792-.567h.001l1.633-.516c-.316-1.522-.31-3.09.006-4.641a76.544 76.544 0 0 0-.527-.14ZM12.946 5.158l-1.716.545c.316 1.533.304 3.09 0 4.594 1.16.369 2.29.726 3.431 1.083 1.125-1.926 1.113-4.852 0-6.766l-1.715.544ZM5.72 10.227a10.424 10.424 0 0 1-.018-4.401c.239.014.473.03.705.047.54.038 1.066.076 1.59.076.525 0 1.05-.038 1.59-.076.232-.016.467-.033.706-.047.322 1.434.31 2.903-.006 4.395a16.81 16.81 0 0 0-4.568.006ZM14.17 12.275c-1.36 1.879-3.163 2.938-5.529 3.225 1.09-1.276 1.868-2.657 2.343-4.214 1.1.21 2.143.527 3.185.99ZM7.359.5c-2.366.28-4.17 1.346-5.575 3.283 1.101.34 2.138.662 3.21.995C5.49 3.157 6.263 1.782 7.358.5ZM7.359 15.5c-2.36-.28-4.158-1.34-5.575-3.283l1.037-.32h.001l2.171-.67A11.673 11.673 0 0 0 7.36 15.5ZM10.04 4.86a10.412 10.412 0 0 0-2.043-3.664C7.06 2.303 6.381 3.496 5.96 4.86a15.13 15.13 0 0 0 4.082 0ZM8.003 14.803a10.336 10.336 0 0 1-2.044-3.657c1.365-.193 2.7-.188 4.088-.006a10.567 10.567 0 0 1-2.044 3.663Z"/>
    </g>
    <defs>
        <clipPath id="ca">
            <path fill="#fff" d="M0 0h16v16H0z"/>
        </clipPath>
    </defs>
</svg><svg fill="none" viewBox="0 0 15 15" id="Instagram" xmlns="http://www.w3.org/2000/svg">
    <path d="M7.5 2.016c1.49 0 1.676.005 2.26.033.585.027.982.119 1.332.255.362.139.667.328.972.632.279.274.495.606.632.972.136.35.228.747.255 1.331.026.585.033.77.033 2.261 0 1.49-.005 1.676-.033 2.26-.027.585-.12.982-.255 1.332a2.677 2.677 0 0 1-.632.972 2.694 2.694 0 0 1-.972.632c-.35.136-.747.228-1.331.255-.585.026-.77.033-2.261.033-1.49 0-1.676-.005-2.26-.033-.585-.027-.982-.12-1.332-.255a2.682 2.682 0 0 1-.972-.632 2.69 2.69 0 0 1-.632-.972c-.136-.35-.228-.747-.255-1.331-.026-.585-.033-.77-.033-2.261 0-1.49.005-1.676.033-2.26.027-.585.119-.982.255-1.332.137-.367.353-.698.632-.972.274-.28.606-.495.972-.632.35-.136.747-.228 1.331-.255.585-.026.77-.033 2.261-.033Zm0 2.742a2.742 2.742 0 1 0 0 5.484 2.742 2.742 0 0 0 0-5.484Zm3.565-.137a.686.686 0 1 0-1.372 0 .686.686 0 0 0 1.372 0ZM7.5 5.855a1.645 1.645 0 1 1 0 3.29 1.645 1.645 0 0 1 0-3.29Z" fill="#191D0A"/>
</svg><svg fill="none" viewBox="0 0 15 15" id="LinkedIn" xmlns="http://www.w3.org/2000/svg">
    <path d="M2.332 3.072c0-.409.34-.74.76-.74h8.817c.42 0 .759.331.759.74v8.856a.75.75 0 0 1-.76.74H3.092a.75.75 0 0 1-.759-.74V3.072Zm3.193 7.912V6.318h-1.55v4.668h1.55ZM4.75 5.68c.54 0 .877-.358.877-.807-.01-.458-.336-.806-.867-.806-.53 0-.878.349-.878.806 0 .449.337.807.858.807h.01Zm3.17 5.305V8.378c0-.14.01-.28.052-.379.112-.278.367-.567.796-.567.561 0 .786.428.786 1.056v2.497h1.55V8.306c0-1.434-.764-2.1-1.785-2.1-.823 0-1.192.452-1.398.77v.017h-.01l.01-.017v-.66H6.37c.019.438 0 4.668 0 4.668h1.55Z" fill="#191D0A"/>
</svg><svg fill="none" viewBox="0 0 15 15" id="Telegram" xmlns="http://www.w3.org/2000/svg">
    <path d="M11.418 3.393s.956-.373.876.532c-.026.373-.265 1.678-.451 3.09l-.637 4.18s-.054.613-.532.72c-.478.106-1.195-.373-1.328-.48-.106-.08-1.992-1.278-2.656-1.864-.186-.16-.398-.48.027-.852l2.788-2.663c.32-.32.638-1.065-.69-.16l-3.719 2.53s-.425.266-1.221.027L2.148 7.92s-.637-.4.452-.799c2.656-1.252 5.923-2.53 8.818-3.728Z" fill="#191D0A"/>
</svg><svg fill="none" viewBox="0 0 9 11" id="TikTok" xmlns="http://www.w3.org/2000/svg">
    <path fill-rule="evenodd" clip-rule="evenodd" d="M5.354.374a.57.57 0 0 1 .57.57 2.278 2.278 0 0 0 2.278 2.278.57.57 0 0 1 0 1.139 3.417 3.417 0 0 1-2.278-.87v4.287A2.848 2.848 0 1 1 3.076 4.93a.57.57 0 1 1 0 1.14 1.709 1.709 0 1 0 1.709 1.708V.944a.57.57 0 0 1 .57-.57Z" fill="#191D0A"/>
</svg><svg fill="none" viewBox="0 0 15 15" id="Twitter" xmlns="http://www.w3.org/2000/svg">
    <path d="M11.982 5.423v.316c0 3.18-2.323 6.824-6.574 6.824a6.257 6.257 0 0 1-3.533-1.09 4.528 4.528 0 0 0 3.42-.988 2.244 2.244 0 0 1-1.339-.473 2.387 2.387 0 0 1-.82-1.198c.145.032.292.048.439.048.205 0 .41-.029.608-.085a2.288 2.288 0 0 1-1.332-.832 2.448 2.448 0 0 1-.52-1.52v-.032c.32.185.68.287 1.046.296a2.382 2.382 0 0 1-.97-1.438 2.46 2.46 0 0 1 .243-1.738 6.614 6.614 0 0 0 2.127 1.78c.822.432 1.721.68 2.64.727a2.089 2.089 0 0 1-.063-.55c-.017-.49.112-.973.368-1.384.257-.41.63-.73 1.068-.913.437-.183.919-.222 1.379-.11.46.11.875.366 1.19.73a4.635 4.635 0 0 0 1.468-.583 2.401 2.401 0 0 1-1.03 1.348 4.69 4.69 0 0 0 1.328-.398 4.844 4.844 0 0 1-1.143 1.263Z" fill="#191D0A"/>
</svg><svg fill="none" viewBox="0 0 12 8" id="VK" xmlns="http://www.w3.org/2000/svg">
    <path fill-rule="evenodd" clip-rule="evenodd" d="M.856.58a.267.267 0 0 1 .22-.118h1.867c.104 0 .2.064.245.164.113.25.223.505.333.756.253.583.5 1.152.766 1.635.188.343.376.623.568.822.08.085.16.151.236.202V1.66L4.532.93a.3.3 0 0 1-.034-.304.27.27 0 0 1 .246-.164h2.594a.28.28 0 0 1 .271.288v2.689c.31-.324.554-.692.775-1.088.128-.227.246-.46.367-.697l.09-.173c.15-.296.31-.598.492-.89A.268.268 0 0 1 9.56.462h1.787c.085 0 .164.042.216.112a.3.3 0 0 1 .047.249c-.342 1.37-1.008 2.326-1.644 3.238l-.075.107a8.71 8.71 0 0 1 2.027 2.933.301.301 0 0 1-.02.273.268.268 0 0 1-.227.131H9.704a.263.263 0 0 1-.178-.07 5.856 5.856 0 0 1-.551-.594l-.1-.12c-.129-.157-.25-.305-.382-.444-.25-.266-.52-.483-.884-.605v1.546a.282.282 0 0 1-.237.285c-2.206.296-3.69-.85-4.688-2.318C1.724 3.775 1.188 2.038.849.94l-.03-.1A.3.3 0 0 1 .855.58Zm.595.457c.341 1.094.841 2.59 1.674 3.813.885 1.3 2.124 2.263 3.941 2.11V5.311c0-.084.035-.163.095-.218a.262.262 0 0 1 .218-.066c.681.11 1.13.453 1.5.844.144.154.281.32.412.478l.092.112c.14.167.276.325.424.47h1.431a8.082 8.082 0 0 0-1.888-2.5.299.299 0 0 1-.045-.389l.223-.322c.575-.827 1.123-1.615 1.456-2.684H9.708c-.137.23-.263.47-.39.717l-.086.168c-.122.239-.247.484-.38.722-.334.594-.737 1.178-1.357 1.644a.26.26 0 0 1-.282.021.29.29 0 0 1-.147-.255V1.037H5.313l.261.342c.04.05.06.114.06.18v2.886c0 .082-.033.16-.09.214a.262.262 0 0 1-.212.07c-.333-.04-.617-.229-.858-.48-.242-.251-.458-.581-.657-.943-.28-.509-.545-1.119-.803-1.714a71.278 71.278 0 0 0-.243-.555H1.45Z" fill="#191D0A"/>
    <path d="M3.125 4.85C2.292 3.627 1.792 2.13 1.45 1.037h1.32c.08.18.161.367.243.555.258.595.523 1.205.803 1.714.2.362.415.692.657.943.241.251.525.44.858.48a.262.262 0 0 0 .212-.07.295.295 0 0 0 .09-.214V1.559a.297.297 0 0 0-.06-.18l-.261-.342h1.753v3.017a.29.29 0 0 0 .147.255c.09.05.2.041.282-.02.62-.467 1.023-1.05 1.357-1.645.133-.238.258-.483.38-.722l.086-.168c.127-.247.253-.487.39-.717h1.276c-.333 1.069-.881 1.857-1.456 2.684l-.223.322a.299.299 0 0 0 .045.389 8.082 8.082 0 0 1 1.888 2.5h-1.43a5.923 5.923 0 0 1-.425-.47l-.092-.112c-.13-.159-.268-.324-.413-.478-.369-.391-.818-.734-1.5-.844a.262.262 0 0 0-.217.066.294.294 0 0 0-.095.218v1.647C5.25 7.113 4.01 6.15 3.125 4.85Z" fill="#191D0A"/>
</svg><svg fill="none" viewBox="0 0 13 9" id="Youtube" xmlns="http://www.w3.org/2000/svg">
    <path d="M5.375 6.188 8.295 4.5l-2.92-1.688v3.376Zm6.502-4.405c.074.264.124.619.158 1.069.04.45.056.838.056 1.175l.034.473c0 1.232-.09 2.138-.248 2.717-.14.506-.466.832-.973.973-.264.073-.748.124-1.49.158-.732.039-1.4.056-2.02.056l-.894.034c-2.357 0-3.825-.09-4.404-.248-.507-.14-.833-.467-.974-.973C1.05 6.953 1 6.598.966 6.148c-.04-.45-.056-.838-.056-1.175L.875 4.5c0-1.232.09-2.138.248-2.717.14-.506.466-.832.973-.973.264-.073.748-.124 1.49-.158.732-.039 1.4-.056 2.02-.056L6.5.563c2.357 0 3.825.09 4.404.247.507.14.833.467.973.973Z" fill="#191D0A"/>
</svg></svg>