<?xml version="1.0" encoding="utf-8"?><svg viewBox="0 0 1133 1265" xmlns="http://www.w3.org/2000/svg" xmlns:xlink="http://www.w3.org/1999/xlink"><style>:root>svg{display:none}:root>svg:target{display:block}</style><svg fill="none" viewBox="0 0 27 27" id="BG_Vector" xmlns="http://www.w3.org/2000/svg">
    <path fill-rule="evenodd" clip-rule="evenodd" d="M0 13.5C0 20.942 6.055 27 13.5 27 20.942 27 27 20.942 27 13.5S20.942 0 13.5 0 0 6.058 0 13.5Zm5.013-9.307A12.553 12.553 0 0 1 13.5.899c3.265 0 6.244 1.248 8.485 3.292l-1.002 1.002A11.139 11.139 0 0 0 13.5 2.32a11.139 11.139 0 0 0-7.485 2.875L5.013 4.193Zm-.822.822A12.553 12.553 0 0 0 .9 13.5c0 3.265 1.248 6.244 3.292 8.484l1.002-1.002A11.139 11.139 0 0 1 2.32 13.5c0-2.878 1.087-5.501 2.873-7.483L4.191 5.015Zm.822 17.791a12.552 12.552 0 0 0 8.487 3.295c3.265 0 6.243-1.248 8.484-3.291l-1.002-1.002A11.139 11.139 0 0 1 13.5 24.68a11.139 11.139 0 0 1-7.485-2.875l-1.002 1.002ZM26.1 13.5c0 3.267-1.25 6.247-3.295 8.488l-1.002-1.002A11.139 11.139 0 0 0 24.68 13.5c0-2.879-1.088-5.503-2.875-7.485l1.002-1.002A12.553 12.553 0 0 1 26.1 13.5Z" fill="#F97247"/>
</svg><svg fill="none" viewBox="0 0 32 31" id="bg" xmlns="http://www.w3.org/2000/svg">
    <path fill-rule="evenodd" clip-rule="evenodd" d="M0 16c0 8.82 7.176 16 16 16 8.82 0 16-7.18 16-16S24.82 0 16 0 0 7.18 0 16ZM5.942 4.97A14.877 14.877 0 0 1 16 1.065c3.87 0 7.4 1.479 10.056 3.901l-1.188 1.188A13.201 13.201 0 0 0 16 2.75c-3.412 0-6.522 1.29-8.87 3.407L5.941 4.969Zm-.974.974A14.877 14.877 0 0 0 1.066 16c0 3.87 1.479 7.4 3.9 10.055l1.188-1.187A13.201 13.201 0 0 1 2.75 16c0-3.41 1.288-6.52 3.405-8.869L4.968 5.944ZM5.94 27.03A14.877 14.877 0 0 0 16 30.934c3.87 0 7.4-1.478 10.055-3.9l-1.188-1.188A13.201 13.201 0 0 1 16 29.25c-3.412 0-6.523-1.29-8.871-3.407L5.94 27.03ZM30.934 16c0 3.871-1.48 7.403-3.905 10.06l-1.187-1.188A13.201 13.201 0 0 0 29.25 16c0-3.412-1.29-6.522-3.407-8.87l1.187-1.188A14.877 14.877 0 0 1 30.934 16Z" fill="#F97247"/>
</svg><svg fill="none" viewBox="0 0 100 221" id="big__coin" xmlns="http://www.w3.org/2000/svg">
    <path d="M98.611 171.065c0 27.047-22.009 49.056-49.056 49.056C22.51 220.121.5 198.112.5 171.065c0-27.047 22.009-49.055 49.056-49.055 27.046 0 49.055 22.008 49.055 49.055Zm-95.54 0c0 25.632 20.853 46.485 46.485 46.485 25.631 0 46.485-20.853 46.485-46.485 0-25.632-20.854-46.485-46.485-46.485-25.632 0-46.486 20.853-46.486 46.485ZM98.632 49.43h-.018v.5a1.28 1.28 0 1 1-2.56 0c0-25.632-20.854-46.486-46.486-46.486-25.631 0-46.485 20.854-46.485 46.485a1.28 1.28 0 1 1-2.56 0C.523 22.883 22.533.874 49.58.874c26.88 0 48.784 21.738 49.053 48.555Z" fill="#11F8A5" stroke="#000"/>
    <path d="M43.988 158.846h1.894v7.508l-2.74-.687h-.002a3.452 3.452 0 0 1-2.618-3.086v-.27a3.471 3.471 0 0 1 3.466-3.465ZM55.96 176.463h.001a3.453 3.453 0 0 1 2.628 3.356 3.471 3.471 0 0 1-3.466 3.465H53.22v-7.508l2.74.687Z" fill="#11F8A5" stroke="#000"/>
    <path d="M65.46 165.205h.5v-3.685c0-5.543-4.501-10.044-10.044-10.044h-2.685v-8.057h-7.36v8.057h-1.894c-5.97 0-10.825 4.855-10.825 10.825a10.81 10.81 0 0 0 8.195 10.498l4.524 1.133v9.352h-2.685a2.691 2.691 0 0 1-2.685-2.685v-3.685h-7.36v3.685c0 5.543 4.502 10.045 10.045 10.045h2.685V198.7h7.36V190.644h1.894c5.97 0 10.825-4.856 10.825-10.825a10.81 10.81 0 0 0-8.195-10.498l-4.524-1.134v-9.352h2.685a2.692 2.692 0 0 1 2.685 2.685v3.685h6.86Zm-55.737 5.87c0-21.967 17.877-39.833 39.833-39.833 21.968 0 39.834 17.866 39.834 39.833 0 21.968-17.867 39.834-39.834 39.834-21.967 0-39.833-17.866-39.833-39.834Z" fill="#11F8A5" stroke="#000"/>
    <path d="M99.173 49.17v119.595a1.779 1.779 0 1 1-3.56 0V49.17a1.78 1.78 0 1 1 3.56 0ZM3.638 48.91v119.594a1.78 1.78 0 1 1-3.56 0V48.909a1.779 1.779 0 1 1 3.56 0Z" fill="#11F8A5"/>
</svg><svg fill="none" viewBox="0 0 101 101" id="crown" xmlns="http://www.w3.org/2000/svg">
    <path d="M14.828 85.452c-19.49-19.49-19.49-51.199 0-70.688 19.49-19.49 51.198-19.49 70.688 0 19.49 19.49 19.49 51.198 0 70.688-19.49 19.489-51.198 19.489-70.688 0Zm68.333-68.333c-18.191-18.19-47.786-18.19-65.972 0-18.192 18.191-18.192 47.786 0 65.972 18.19 18.191 47.785 18.191 65.972 0 18.191-18.19 18.191-47.785 0-65.972Z" fill="#fff"/>
    <path d="M83.7 39.505a1.643 1.643 0 0 1-.398-.645c-1.73-5.119-4.555-9.654-8.394-13.494a34.663 34.663 0 0 0-13.494-8.394 1.667 1.667 0 0 1-1.133-1.578V3.246a1.664 1.664 0 0 1 2.067-1.616 49.872 49.872 0 0 1 23.158 13.134 49.929 49.929 0 0 1 13.13 23.158c.122.498.009 1.024-.304 1.431a1.66 1.66 0 0 1-1.313.64H84.87c-.455 0-.872-.185-1.18-.493l.01.005ZM77.264 23.01a37.979 37.979 0 0 1 8.792 13.65h8.787A46.608 46.608 0 0 0 83.155 17.12 46.562 46.562 0 0 0 63.618 5.436v8.787a37.852 37.852 0 0 1 13.65 8.792l-.004-.004ZM14.827 85.452A49.913 49.913 0 0 1 1.693 62.293a1.673 1.673 0 0 1 .304-1.426 1.66 1.66 0 0 1 1.312-.64h12.148c.716 0 1.351.455 1.579 1.133 1.73 5.118 4.554 9.654 8.394 13.494a34.664 34.664 0 0 0 13.494 8.394 1.663 1.663 0 0 1 1.132 1.578v12.148c0 .512-.237.995-.64 1.313a1.671 1.671 0 0 1-1.43.303 49.929 49.929 0 0 1-23.16-13.129v-.01ZM5.494 63.554a46.608 46.608 0 0 0 11.689 19.542 46.608 46.608 0 0 0 19.541 11.688v-8.787a37.905 37.905 0 0 1-13.65-8.788 37.98 37.98 0 0 1-8.792-13.65H5.494v-.005ZM60.777 98.145a1.663 1.663 0 0 1-.488-1.18V84.817c0-.716.455-1.351 1.133-1.579 5.119-1.73 9.655-4.555 13.494-8.394A34.642 34.642 0 0 0 83.31 61.35a1.663 1.663 0 0 1 1.578-1.133h12.148c.512 0 .995.238 1.313.64.318.403.427.934.303 1.427A49.978 49.978 0 0 1 85.52 85.442 49.873 49.873 0 0 1 62.36 98.576a1.673 1.673 0 0 1-1.426-.303c-.052-.048-.105-.09-.152-.138l-.005.01Zm2.844-12.153v8.787a46.607 46.607 0 0 0 19.542-11.688A46.657 46.657 0 0 0 94.85 63.55h-8.787c-1.92 5.147-4.873 9.73-8.792 13.65-3.916 3.915-8.504 6.873-13.65 8.792ZM2.13 39.505a1.667 1.667 0 0 1-.436-1.583 49.872 49.872 0 0 1 13.134-23.158A49.936 49.936 0 0 1 37.986 1.63a1.673 1.673 0 0 1 1.427.303c.402.318.64.801.64 1.313v12.148c0 .716-.456 1.35-1.133 1.578-5.12 1.73-9.655 4.555-13.494 8.394a34.664 34.664 0 0 0-8.394 13.494 1.663 1.663 0 0 1-1.579 1.133H3.305c-.445 0-.872-.175-1.18-.483l.005-.005Zm34.59-34.07A46.609 46.609 0 0 0 17.18 17.125 46.658 46.658 0 0 0 5.49 36.666h8.788c1.92-5.147 4.872-9.73 8.792-13.65a37.981 37.981 0 0 1 13.65-8.793V5.436Z" fill="#fff"/>
    <path d="M77.268 23.01c-14.94-14.939-39.255-14.944-54.194 0-14.945 14.945-14.94 39.255 0 54.195 14.94 14.94 39.25 14.944 54.194 0 14.944-14.945 14.94-39.255 0-54.194Z" fill="#fff"/>
    <path d="m63.994 63.785-27.527.183a2.1 2.1 0 0 0-2.086 2.113l.006.981a2.1 2.1 0 0 0 2.114 2.086l27.528-.182a2.1 2.1 0 0 0 2.085-2.114l-.006-.981a2.1 2.1 0 0 0-2.114-2.086ZM40.217 47.169c-.298 0-.602-.066-.877-.2l-2.147-1.037a1.984 1.984 0 0 1-.971-2.522l.986-2.455a1.977 1.977 0 0 1 2.815-.98l2.56 1.459a1.985 1.985 0 0 1 .65 2.844l-1.404 2.033c-.365.53-.972.853-1.617.853l.005.005ZM60.032 47.036a1.986 1.986 0 0 1-1.626-.834l-1.388-1.957c-.323-.45-.436-1.02-.323-1.56.114-.54.455-1.014.934-1.294l2.64-1.55c.299-.175.64-.27.986-.274a1.983 1.983 0 0 1 1.844 1.218l.995 2.384a1.991 1.991 0 0 1-.938 2.536l-2.247 1.123a2 2 0 0 1-.872.208h-.005Z" fill="#191D0A"/>
    <path d="M38.055 62.128a2.86 2.86 0 0 1-2.707-1.887l-4.592-12.64a4.877 4.877 0 0 1-2.716.435 4.85 4.85 0 0 1-4.223-4.773 4.855 4.855 0 0 1 4.815-4.881 4.848 4.848 0 0 1 4.877 4.815 4.79 4.79 0 0 1-.322 1.763 5.304 5.304 0 0 1-.436.868l8.735 4.227 6.683-9.683a4.893 4.893 0 0 1-2.052-1.654 4.82 4.82 0 0 1-.896-2.773 4.855 4.855 0 0 1 5.176-4.872 4.858 4.858 0 0 1 4.503 4.474 4.833 4.833 0 0 1-.863 3.143 4.892 4.892 0 0 1-1.237 1.223 4.397 4.397 0 0 1-.801.44l6.801 9.584 8.594-4.299a5.01 5.01 0 0 1-.384-.967 4.713 4.713 0 0 1-.176-1.265 4.844 4.844 0 1 1 9.688-.062 4.853 4.853 0 0 1-4.507 4.868l-.304.01a4.96 4.96 0 0 1-1.445-.21 4.705 4.705 0 0 1-.872-.364L65.08 60.042a2.86 2.86 0 0 1-2.682 1.92l-24.343.16v.006Z" fill="#191D0A"/>
</svg><svg fill="none" viewBox="0 0 100 221" id="crown-big" xmlns="http://www.w3.org/2000/svg">
    <path d="M14.617 206.26c-19.49-19.49-19.49-51.199 0-70.688 19.49-19.49 51.198-19.49 70.688 0 19.49 19.489 19.49 51.198 0 70.688-19.49 19.49-51.198 19.49-70.688 0Zm68.333-68.333c-18.192-18.191-47.786-18.191-65.973 0-18.19 18.191-18.19 47.786 0 65.972 18.192 18.191 47.786 18.191 65.973 0 18.191-18.191 18.191-47.785 0-65.972Z" fill="#C92626"/>
    <path d="M83.493 160.313a1.64 1.64 0 0 1-.398-.645c-1.73-5.118-4.555-9.654-8.394-13.494a34.671 34.671 0 0 0-13.494-8.394 1.666 1.666 0 0 1-1.133-1.578v-12.148a1.666 1.666 0 0 1 2.066-1.616A49.87 49.87 0 0 1 85.3 135.572a49.924 49.924 0 0 1 13.129 23.158c.123.498.01 1.024-.304 1.431-.317.408-.8.64-1.313.64H84.663c-.454 0-.872-.185-1.18-.493l.01.005Zm-6.437-16.494a37.98 37.98 0 0 1 8.792 13.65h8.788a46.61 46.61 0 0 0-11.688-19.542 46.56 46.56 0 0 0-19.537-11.683v8.787a37.857 37.857 0 0 1 13.65 8.793l-.005-.005ZM14.616 206.26a49.916 49.916 0 0 1-13.134-23.159 1.672 1.672 0 0 1 .303-1.426c.318-.408.801-.64 1.313-.64h12.148c.716 0 1.35.455 1.578 1.133 1.73 5.119 4.555 9.655 8.394 13.494a34.671 34.671 0 0 0 13.494 8.394 1.662 1.662 0 0 1 1.133 1.578v12.148c0 .512-.237.995-.64 1.313a1.673 1.673 0 0 1-1.431.303 49.927 49.927 0 0 1-23.158-13.129v-.009Zm-9.333-21.898a46.61 46.61 0 0 0 11.688 19.542 46.6 46.6 0 0 0 19.542 11.688v-8.787a37.911 37.911 0 0 1-13.65-8.788 37.98 37.98 0 0 1-8.792-13.65H5.283v-.005ZM60.562 218.953a1.664 1.664 0 0 1-.488-1.18v-12.148c0-.716.455-1.351 1.133-1.579 5.119-1.73 9.654-4.554 13.494-8.394a34.64 34.64 0 0 0 8.394-13.494 1.663 1.663 0 0 1 1.578-1.132h12.148a1.661 1.661 0 0 1 1.616 2.066 49.973 49.973 0 0 1-13.134 23.158 49.87 49.87 0 0 1-23.158 13.134 1.673 1.673 0 0 1-1.427-.303c-.052-.048-.104-.09-.151-.138l-.005.01Zm2.844-12.153v8.788A46.62 46.62 0 0 0 82.948 203.9a46.66 46.66 0 0 0 11.688-19.542h-8.788c-1.92 5.147-4.872 9.73-8.792 13.65-3.915 3.915-8.503 6.873-13.65 8.792ZM1.919 160.313a1.666 1.666 0 0 1-.436-1.583 49.866 49.866 0 0 1 13.133-23.158 49.936 49.936 0 0 1 23.159-13.134 1.673 1.673 0 0 1 1.426.303c.403.318.64.801.64 1.313v12.148c0 .716-.455 1.351-1.133 1.578-5.118 1.73-9.654 4.555-13.493 8.394a34.667 34.667 0 0 0-8.395 13.494 1.663 1.663 0 0 1-1.578 1.133H3.094c-.445 0-.872-.175-1.18-.483l.005-.005Zm34.59-34.069a46.61 46.61 0 0 0-19.542 11.688A46.659 46.659 0 0 0 5.28 157.474h8.788c1.92-5.147 4.872-9.731 8.792-13.65a37.99 37.99 0 0 1 13.65-8.793v-8.787Z" fill="#C92626"/>
    <path d="M77.06 143.819c-14.94-14.94-39.254-14.945-54.194 0-14.944 14.944-14.94 39.254 0 54.194 14.94 14.939 39.25 14.944 54.194 0 14.945-14.945 14.94-39.255 0-54.194Z" fill="#C92626"/>
    <path d="m63.78 184.593-27.528.183a2.1 2.1 0 0 0-2.086 2.113l.006.982a2.1 2.1 0 0 0 2.114 2.085l27.528-.182a2.1 2.1 0 0 0 2.085-2.114l-.006-.981a2.1 2.1 0 0 0-2.114-2.086ZM40.002 167.977c-.299 0-.602-.066-.877-.199l-2.147-1.038a1.984 1.984 0 0 1-.971-2.522l.985-2.455a1.977 1.977 0 0 1 2.816-.981l2.56 1.46a1.985 1.985 0 0 1 .65 2.844l-1.404 2.033a1.967 1.967 0 0 1-1.617.853l.005.005ZM59.82 167.844a1.986 1.986 0 0 1-1.625-.834l-1.389-1.957c-.322-.451-.436-1.019-.322-1.56.114-.54.455-1.014.934-1.294l2.64-1.549a1.99 1.99 0 0 1 .986-.275 1.983 1.983 0 0 1 1.844 1.218l.995 2.384a1.992 1.992 0 0 1-.939 2.536l-2.246 1.123c-.27.133-.574.208-.872.208h-.005Z" fill="#191D0A"/>
    <path d="M37.84 182.936a2.86 2.86 0 0 1-2.707-1.887l-4.593-12.641a4.79 4.79 0 0 1-.924.332 4.607 4.607 0 0 1-1.137.142c-.223 0-.441-.009-.654-.038a4.85 4.85 0 0 1-4.224-4.773 4.854 4.854 0 0 1 4.816-4.881 4.847 4.847 0 0 1 4.877 4.815c0 .616-.104 1.209-.322 1.763a5.29 5.29 0 0 1-.436.868l8.735 4.228 6.683-9.684a4.533 4.533 0 0 1-.806-.441 4.885 4.885 0 0 1-1.246-1.213 4.819 4.819 0 0 1-.896-2.773 4.855 4.855 0 0 1 5.176-4.872 4.858 4.858 0 0 1 4.502 4.474 4.835 4.835 0 0 1-2.1 4.366 4.387 4.387 0 0 1-.8.44l6.801 9.584 8.593-4.299a4.996 4.996 0 0 1-.383-.967 4.708 4.708 0 0 1-.176-1.265c0-.195.01-.389.028-.579a4.844 4.844 0 0 1 4.783-4.298 4.847 4.847 0 0 1 .37 9.683l-.304.009c-.493 0-.976-.066-1.445-.208a4.767 4.767 0 0 1-.873-.365l-4.313 12.394a2.862 2.862 0 0 1-2.682 1.92l-24.343.161v.005Z" fill="#191D0A"/>
    <path d="M99.54 50.04v119.595a1.78 1.78 0 1 1-3.56 0V50.04a1.779 1.779 0 1 1 3.56 0ZM3.997 49.78v119.595a1.779 1.779 0 1 1-3.56 0V49.78a1.78 1.78 0 1 1 3.56 0Z" fill="#C92626"/>
    <path d="M99.498 49.697h-.019v.5c0 .725-.585 1.303-1.296 1.303-.709 0-1.296-.586-1.296-1.303 0-25.958-21.037-47.08-46.898-47.08-25.86 0-46.897 21.122-46.897 47.08 0 .725-.585 1.303-1.296 1.303-.71 0-1.296-.586-1.296-1.303C.5 22.795 22.71.5 50 .5c27.124 0 49.23 22.024 49.498 49.197Z" fill="#C92626" stroke="#C92626"/>
</svg><svg fill="none" viewBox="0 0 1133 1265" id="dot-light1" xmlns="http://www.w3.org/2000/svg">
    <g opacity=".55" filter="url(#fa)">
        <path d="M427.543 539.728C716.38 747.191 859.015 915.806 828.448 958.362c-30.567 42.558-316.237-78.999-605.074-286.462-288.837-207.463-483.683-430.363-467.639-452.699 16.043-22.336 382.971 113.065 671.808 320.527Z" fill="url(#fb)"/>
    </g>
    <defs>
        <linearGradient id="fb" x1="-233.556" y1="204.291" x2="824.309" y2="964.124" gradientUnits="userSpaceOnUse">
            <stop stop-color="#F947BC"/>
            <stop offset="1" stop-color="#F9477C" stop-opacity=".4"/>
        </linearGradient>
        <filter id="fa" x="-545.187" y="-83.202" width="1677.7" height="1350.02" filterUnits="userSpaceOnUse" color-interpolation-filters="sRGB">
            <feFlood flood-opacity="0" result="BackgroundImageFix"/>
            <feBlend in="SourceGraphic" in2="BackgroundImageFix" result="shape"/>
            <feGaussianBlur stdDeviation="150" result="effect1_foregroundBlur_1_5905"/>
        </filter>
    </defs>
</svg><svg fill="none" viewBox="0 0 15 15" id="facebook" xmlns="http://www.w3.org/2000/svg">
    <path d="M9.25 3.743h1.057V1.954a14.688 14.688 0 0 0-1.541-.079c-1.53 0-2.577.934-2.577 2.644v1.474H4.462v2.002H6.19v5.13h2.07v-5.13h1.722l.258-2.002H8.26V4.716c0-.59.158-.973.99-.973Z" fill="#191D0A"/>
</svg><svg fill="none" viewBox="0 0 100 100" id="fishka" xmlns="http://www.w3.org/2000/svg">
    <path d="M49.733 100c-12.7 0-25.387-4.83-35.057-14.5-19.329-19.328-19.329-50.772 0-70.101C24.044 6.03 36.493.879 49.732.879c13.24 0 25.689 5.152 35.057 14.52 19.329 19.329 19.329 50.773 0 70.102C75.129 95.16 62.43 100 49.733 100ZM17.278 82.899c17.893 17.892 47.006 17.892 64.898 0 17.893-17.893 17.893-47.006 0-64.898-8.67-8.67-20.193-13.438-32.454-13.438S25.938 9.341 17.268 18.001c-17.893 17.892-17.893 47.005 0 64.898h.01Z" fill="#EBF29D"/>
    <path d="M49.077 68.993c.177.427.593.676 1.03.676a1.3 1.3 0 0 0 .438-.083 25.699 25.699 0 0 0 9.2-6.568 1.117 1.117 0 0 0-.093-1.571 1.117 1.117 0 0 0-1.572.093 23.265 23.265 0 0 1-8.4 5.996c-.562.239-.832.895-.593 1.457h-.01Z" fill="#EBF29D"/>
    <path d="m68.623 33.312-18.486-7.39a1.15 1.15 0 0 0-.833 0l-18.486 7.39a1.095 1.095 0 0 0-.697 1.03v13.24c.02 12.22 7.744 23.264 19.214 27.469a1.195 1.195 0 0 0 .77 0C61.576 70.835 69.3 59.8 69.32 47.582v-13.24c0-.458-.27-.864-.697-1.03Zm-1.53 14.27c-.021 11.117-6.995 21.244-17.362 25.23C39.364 68.827 32.38 58.7 32.359 47.583v-12.48L49.73 28.16l17.361 6.942v12.48Z" fill="#EBF29D"/>
    <path d="M42.008 35.05a1.103 1.103 0 0 0-.853 0l-4.403 1.76a1.095 1.095 0 0 0-.697 1.03v4.694c0 .614.5 1.114 1.113 1.114.614 0 1.114-.5 1.114-1.114V38.6l3.695-1.478c.281-.115.49-.323.614-.604.115-.27.115-.572 0-.854a1.143 1.143 0 0 0-.593-.614h.01Z" fill="#EBF29D"/>
    <path d="M77.888 22.3c-7.515-7.526-17.518-11.658-28.156-11.658-10.637 0-20.63 4.143-28.155 11.658-15.52 15.519-15.52 40.78 0 56.31 7.765 7.765 17.955 11.637 28.155 11.637 10.2 0 20.39-3.882 28.156-11.636 15.519-15.52 15.519-40.782 0-56.311ZM72.38 47.582c.032 14.125-8.993 26.48-22.451 30.758a.642.642 0 0 1-.396 0c-13.458-4.278-22.482-16.633-22.451-30.758V31.96c0-.26.156-.5.406-.604l22.004-8.795a.611.611 0 0 1 .24-.042c.082 0 .166.01.239.042l22.003 8.806c.25.093.406.333.406.603v15.624-.01Z" fill="#EBF29D"/>
</svg><svg fill="none" viewBox="0 0 15 15" id="instagram" xmlns="http://www.w3.org/2000/svg">
    <path d="M7.5 2.016c1.49 0 1.676.005 2.26.033.585.027.982.119 1.332.255.362.139.667.328.972.632.279.274.495.606.632.972.136.35.228.747.255 1.331.026.585.033.77.033 2.261 0 1.49-.005 1.676-.033 2.26-.027.585-.12.982-.255 1.332a2.677 2.677 0 0 1-.632.972 2.694 2.694 0 0 1-.972.632c-.35.136-.747.228-1.331.255-.585.026-.77.033-2.261.033-1.49 0-1.676-.005-2.26-.033-.585-.027-.982-.12-1.332-.255a2.682 2.682 0 0 1-.972-.632 2.69 2.69 0 0 1-.632-.972c-.136-.35-.228-.747-.255-1.331-.026-.585-.033-.77-.033-2.261 0-1.49.005-1.676.033-2.26.027-.585.119-.982.255-1.332.137-.367.353-.698.632-.972.274-.28.606-.495.972-.632.35-.136.747-.228 1.331-.255.585-.026.77-.033 2.261-.033Zm0 2.742a2.742 2.742 0 1 0 0 5.484 2.742 2.742 0 0 0 0-5.484Zm3.565-.137a.686.686 0 1 0-1.372 0 .686.686 0 0 0 1.372 0ZM7.5 5.855a1.645 1.645 0 1 1 0 3.29 1.645 1.645 0 0 1 0-3.29Z" fill="#191D0A"/>
</svg><svg fill="none" viewBox="0 0 16 16" id="lang" xmlns="http://www.w3.org/2000/svg">
    <g clip-path="url(#ja)" fill="#EBF29D">
        <path d="M14.17 3.719C12.798 1.84 11 .775 8.635.5a11.684 11.684 0 0 1 2.354 4.22c1.106-.229 2.154-.527 3.18-1.001ZM4.25 5.523c-.42-.11-.828-.217-1.23-.341-.36-.116-.714-.249-1.068-.381-.2-.075-.4-.15-.601-.222C.162 6.67.274 9.636 1.345 11.386c.599-.188 1.193-.377 1.792-.567h.001l1.633-.516c-.316-1.522-.31-3.09.006-4.641a76.544 76.544 0 0 0-.527-.14ZM12.946 5.158l-1.716.545c.316 1.533.304 3.09 0 4.594 1.16.369 2.29.726 3.431 1.083 1.125-1.926 1.113-4.852 0-6.766l-1.715.544ZM5.72 10.227a10.424 10.424 0 0 1-.018-4.401c.239.014.473.03.705.047.54.038 1.066.076 1.59.076.525 0 1.05-.038 1.59-.076.232-.016.467-.033.706-.047.322 1.434.31 2.903-.006 4.395a16.81 16.81 0 0 0-4.568.006ZM14.17 12.275c-1.36 1.879-3.163 2.938-5.529 3.225 1.09-1.276 1.868-2.657 2.343-4.214 1.1.21 2.143.527 3.185.99ZM7.359.5c-2.366.28-4.17 1.346-5.575 3.283 1.101.34 2.138.662 3.21.995C5.49 3.157 6.263 1.782 7.358.5ZM7.359 15.5c-2.36-.28-4.158-1.34-5.575-3.283l1.037-.32h.001l2.171-.67A11.673 11.673 0 0 0 7.36 15.5ZM10.04 4.86a10.412 10.412 0 0 0-2.043-3.664C7.06 2.303 6.381 3.496 5.96 4.86a15.13 15.13 0 0 0 4.082 0ZM8.003 14.803a10.336 10.336 0 0 1-2.044-3.657c1.365-.193 2.7-.188 4.088-.006a10.567 10.567 0 0 1-2.044 3.663Z"/>
    </g>
    <defs>
        <clipPath id="ja">
            <path fill="#fff" d="M0 0h16v16H0z"/>
        </clipPath>
    </defs>
</svg><svg fill="none" viewBox="0 0 15 15" id="linkedin" xmlns="http://www.w3.org/2000/svg">
    <path d="M2.332 3.072c0-.409.34-.74.76-.74h8.817c.42 0 .759.331.759.74v8.856a.75.75 0 0 1-.76.74H3.092a.75.75 0 0 1-.759-.74V3.072Zm3.193 7.912V6.318h-1.55v4.668h1.55ZM4.75 5.68c.54 0 .877-.358.877-.807-.01-.458-.336-.806-.867-.806-.53 0-.878.349-.878.806 0 .449.337.807.858.807h.01Zm3.17 5.305V8.378c0-.14.01-.28.052-.379.112-.278.367-.567.796-.567.561 0 .786.428.786 1.056v2.497h1.55V8.306c0-1.434-.764-2.1-1.785-2.1-.823 0-1.192.452-1.398.77v.017h-.01l.01-.017v-.66H6.37c.019.438 0 4.668 0 4.668h1.55Z" fill="#191D0A"/>
</svg><svg fill="none" viewBox="0 0 100 100" id="logo__coin" xmlns="http://www.w3.org/2000/svg">
    <path d="M49.733 99.39C22.41 99.39.188 77.156.188 49.843.188 22.532 22.42.3 49.733.3c27.312 0 49.545 22.233 49.545 49.545 0 27.313-22.233 49.545-49.545 49.545Zm0-95.791c-25.502 0-46.246 20.744-46.246 46.245 0 25.502 20.744 46.246 46.246 46.246 25.5 0 46.245-20.744 46.245-46.246 0-25.5-20.744-46.245-46.245-46.245Z" fill="#DA7DB5"/>
    <path d="M82.065 14.491 66.727 29.83l3.017 3.018 15.338-15.338-3.017-3.018ZM29.264 67.29 13.926 82.628l3.017 3.018 15.338-15.339-3.017-3.017ZM70.193 67.298l-3.017 3.017 15.338 15.338 3.018-3.017-15.339-15.338ZM16.94 14.037l-3.018 3.017 15.33 15.331 3.018-3.018-15.33-15.33ZM61.817 51.177c.999-1 .999-2.613 0-3.602l-2.124-2.113c-.999-.999-2.612-.999-3.601 0l-1.145 1.145-1.322-1.322c-1-.999-2.612-.999-3.601 0l-1.145 1.156-1.322-1.332c-1-1-2.613-1-3.602 0l-7.025 7.025c-.052.052-.052.136 0 .198a2.425 2.425 0 0 0 3.414 0l4.527-4.528a1.25 1.25 0 0 1 1.77 0l.333.334a.15.15 0 0 1 0 .218l-3.778 3.778c-.052.052-.052.136 0 .198a2.425 2.425 0 0 0 3.414 0l4.34-4.34a1.25 1.25 0 0 1 1.77 0l.333.333c.052.052.052.135 0 .198l-3.643 3.643c-.052.052-.052.135 0 .197a2.425 2.425 0 0 0 3.414 0l4.194-4.194a1.25 1.25 0 0 1 1.77 0l.718.718a.735.735 0 0 1 0 1.03l-.114.115a.735.735 0 0 1-1.03 0l-.927-.926c-.052-.053-.136-.053-.198 0l-1.603 1.602c-.052.052-.052.136 0 .198l1.447 1.447c.999 1 2.612 1 3.601 0l1.145-1.145-.01-.031Z" fill="#DA7DB5"/>
    <path d="M49.734 11.853c-20.984 0-37.992 17.008-37.992 37.991 0 20.984 17.008 37.992 37.992 37.992 20.983 0 37.991-17.008 37.991-37.992 0-20.983-17.007-37.991-37.991-37.991Zm1.55 11.73c6.1.354 11.638 2.79 15.926 6.6l-5.485 5.485a18.517 18.517 0 0 0-10.44-4.33v-7.755Zm-3.09 0v7.755a18.446 18.446 0 0 0-10.44 4.33l-5.486-5.485a26.214 26.214 0 0 1 15.925-6.6Zm-18.112 8.785 5.486 5.486a18.517 18.517 0 0 0-4.33 10.44h-7.755a26.214 26.214 0 0 1 6.6-15.926Zm-6.599 19.017h7.755a18.446 18.446 0 0 0 4.33 10.44l-5.486 5.485a26.214 26.214 0 0 1-6.599-15.925Zm24.71 24.71a26.214 26.214 0 0 1-15.925-6.6l5.485-5.484a18.517 18.517 0 0 0 10.44 4.33v7.754ZM33.767 49.834c0-8.816 7.15-15.967 15.967-15.967 8.816 0 15.967 7.15 15.967 15.967 0 8.816-7.151 15.967-15.967 15.967s-15.967-7.15-15.967-15.967Zm17.518 26.261v-7.754a18.446 18.446 0 0 0 10.44-4.33l5.485 5.485a26.214 26.214 0 0 1-15.925 6.599Zm18.11-8.785-5.485-5.485a18.517 18.517 0 0 0 4.33-10.44h7.755a26.214 26.214 0 0 1-6.6 15.925ZM68.24 48.293a18.446 18.446 0 0 0-4.33-10.44l5.486-5.485a26.214 26.214 0 0 1 6.599 15.925H68.24Z" fill="#DA7DB5"/>
</svg><svg fill="none" viewBox="0 0 100 100" id="logo__coin-left" xmlns="http://www.w3.org/2000/svg">
    <path d="M49.733 99.39C22.41 99.39.188 77.156.188 49.843.188 22.532 22.42.3 49.733.3c27.312 0 49.545 22.233 49.545 49.545 0 27.313-22.233 49.545-49.545 49.545Zm0-95.791c-25.502 0-46.246 20.744-46.246 46.245 0 25.502 20.744 46.246 46.246 46.246 25.5 0 46.245-20.744 46.245-46.246 0-25.5-20.744-46.245-46.245-46.245Z" fill="#DA7DB5"/>
    <path d="M82.065 14.491 66.727 29.83l3.017 3.018 15.338-15.338-3.017-3.018ZM29.264 67.29 13.926 82.628l3.017 3.018 15.338-15.339-3.017-3.017ZM70.193 67.298l-3.017 3.017 15.338 15.338 3.018-3.017-15.339-15.338ZM16.94 14.037l-3.018 3.017 15.33 15.331 3.018-3.018-15.33-15.33ZM61.817 51.177c.999-1 .999-2.613 0-3.602l-2.124-2.113c-.999-.999-2.612-.999-3.601 0l-1.145 1.145-1.322-1.322c-1-.999-2.612-.999-3.601 0l-1.145 1.156-1.322-1.332c-1-1-2.613-1-3.602 0l-7.025 7.025c-.052.052-.052.136 0 .198a2.425 2.425 0 0 0 3.414 0l4.527-4.528a1.25 1.25 0 0 1 1.77 0l.333.334a.15.15 0 0 1 0 .218l-3.778 3.778c-.052.052-.052.136 0 .198a2.425 2.425 0 0 0 3.414 0l4.34-4.34a1.25 1.25 0 0 1 1.77 0l.333.333c.052.052.052.135 0 .198l-3.643 3.643c-.052.052-.052.135 0 .197a2.425 2.425 0 0 0 3.414 0l4.194-4.194a1.25 1.25 0 0 1 1.77 0l.718.718a.735.735 0 0 1 0 1.03l-.114.115a.735.735 0 0 1-1.03 0l-.927-.926c-.052-.053-.136-.053-.198 0l-1.603 1.602c-.052.052-.052.136 0 .198l1.447 1.447c.999 1 2.612 1 3.601 0l1.145-1.145-.01-.031Z" fill="#DA7DB5"/>
    <path d="M49.734 11.853c-20.984 0-37.992 17.008-37.992 37.991 0 20.984 17.008 37.992 37.992 37.992 20.983 0 37.991-17.008 37.991-37.992 0-20.983-17.007-37.991-37.991-37.991Zm1.55 11.73c6.1.354 11.638 2.79 15.926 6.6l-5.485 5.485a18.517 18.517 0 0 0-10.44-4.33v-7.755Zm-3.09 0v7.755a18.446 18.446 0 0 0-10.44 4.33l-5.486-5.485a26.214 26.214 0 0 1 15.925-6.6Zm-18.112 8.785 5.486 5.486a18.517 18.517 0 0 0-4.33 10.44h-7.755a26.214 26.214 0 0 1 6.6-15.926Zm-6.599 19.017h7.755a18.446 18.446 0 0 0 4.33 10.44l-5.486 5.485a26.214 26.214 0 0 1-6.599-15.925Zm24.71 24.71a26.214 26.214 0 0 1-15.925-6.6l5.485-5.484a18.517 18.517 0 0 0 10.44 4.33v7.754ZM33.767 49.834c0-8.816 7.15-15.967 15.967-15.967 8.816 0 15.967 7.15 15.967 15.967 0 8.816-7.151 15.967-15.967 15.967s-15.967-7.15-15.967-15.967Zm17.518 26.261v-7.754a18.446 18.446 0 0 0 10.44-4.33l5.485 5.485a26.214 26.214 0 0 1-15.925 6.599Zm18.11-8.785-5.485-5.485a18.517 18.517 0 0 0 4.33-10.44h7.755a26.214 26.214 0 0 1-6.6 15.925ZM68.24 48.293a18.446 18.446 0 0 0-4.33-10.44l5.486-5.485a26.214 26.214 0 0 1 6.599 15.925H68.24Z" fill="#DA7DB5"/>
</svg><svg fill="none" viewBox="0 0 100 100" id="logo__coin-mid" xmlns="http://www.w3.org/2000/svg">
    <path d="M49.733 99.39C22.41 99.39.188 77.156.188 49.843.188 22.532 22.42.3 49.733.3c27.312 0 49.545 22.233 49.545 49.545 0 27.313-22.233 49.545-49.545 49.545Zm0-95.791c-25.502 0-46.246 20.744-46.246 46.245 0 25.502 20.744 46.246 46.246 46.246 25.5 0 46.245-20.744 46.245-46.246 0-25.5-20.744-46.245-46.245-46.245Z" fill="#DA7DB5"/>
    <path d="M82.065 14.491 66.727 29.83l3.017 3.018 15.338-15.338-3.017-3.018ZM29.264 67.29 13.926 82.628l3.017 3.018 15.338-15.339-3.017-3.017ZM70.193 67.298l-3.017 3.017 15.338 15.338 3.018-3.017-15.339-15.338ZM16.94 14.037l-3.018 3.017 15.33 15.331 3.018-3.018-15.33-15.33ZM61.817 51.177c.999-1 .999-2.613 0-3.602l-2.124-2.113c-.999-.999-2.612-.999-3.601 0l-1.145 1.145-1.322-1.322c-1-.999-2.612-.999-3.601 0l-1.145 1.156-1.322-1.332c-1-1-2.613-1-3.602 0l-7.025 7.025c-.052.052-.052.136 0 .198a2.425 2.425 0 0 0 3.414 0l4.527-4.528a1.25 1.25 0 0 1 1.77 0l.333.334a.15.15 0 0 1 0 .218l-3.778 3.778c-.052.052-.052.136 0 .198a2.425 2.425 0 0 0 3.414 0l4.34-4.34a1.25 1.25 0 0 1 1.77 0l.333.333c.052.052.052.135 0 .198l-3.643 3.643c-.052.052-.052.135 0 .197a2.425 2.425 0 0 0 3.414 0l4.194-4.194a1.25 1.25 0 0 1 1.77 0l.718.718a.735.735 0 0 1 0 1.03l-.114.115a.735.735 0 0 1-1.03 0l-.927-.926c-.052-.053-.136-.053-.198 0l-1.603 1.602c-.052.052-.052.136 0 .198l1.447 1.447c.999 1 2.612 1 3.601 0l1.145-1.145-.01-.031Z" fill="#DA7DB5"/>
    <path d="M49.734 11.853c-20.984 0-37.992 17.008-37.992 37.991 0 20.984 17.008 37.992 37.992 37.992 20.983 0 37.991-17.008 37.991-37.992 0-20.983-17.007-37.991-37.991-37.991Zm1.55 11.73c6.1.354 11.638 2.79 15.926 6.6l-5.485 5.485a18.517 18.517 0 0 0-10.44-4.33v-7.755Zm-3.09 0v7.755a18.446 18.446 0 0 0-10.44 4.33l-5.486-5.485a26.214 26.214 0 0 1 15.925-6.6Zm-18.112 8.785 5.486 5.486a18.517 18.517 0 0 0-4.33 10.44h-7.755a26.214 26.214 0 0 1 6.6-15.926Zm-6.599 19.017h7.755a18.446 18.446 0 0 0 4.33 10.44l-5.486 5.485a26.214 26.214 0 0 1-6.599-15.925Zm24.71 24.71a26.214 26.214 0 0 1-15.925-6.6l5.485-5.484a18.517 18.517 0 0 0 10.44 4.33v7.754ZM33.767 49.834c0-8.816 7.15-15.967 15.967-15.967 8.816 0 15.967 7.15 15.967 15.967 0 8.816-7.151 15.967-15.967 15.967s-15.967-7.15-15.967-15.967Zm17.518 26.261v-7.754a18.446 18.446 0 0 0 10.44-4.33l5.485 5.485a26.214 26.214 0 0 1-15.925 6.599Zm18.11-8.785-5.485-5.485a18.517 18.517 0 0 0 4.33-10.44h7.755a26.214 26.214 0 0 1-6.6 15.925ZM68.24 48.293a18.446 18.446 0 0 0-4.33-10.44l5.486-5.485a26.214 26.214 0 0 1 6.599 15.925H68.24Z" fill="#DA7DB5"/>
</svg><svg fill="none" viewBox="0 0 1058 1233" id="round-dot" xmlns="http://www.w3.org/2000/svg">
    <g opacity=".7" filter="url(#oa)">
        <circle cx="937" cy="937" r="287" fill="url(#ob)"/>
    </g>
    <defs>
        <linearGradient id="ob" x1="1224" y1="650" x2="548.706" y2="818.823" gradientUnits="userSpaceOnUse">
            <stop stop-color="#F99247"/>
            <stop offset="1" stop-color="#F29DA2"/>
        </linearGradient>
        <filter id="oa" x="0" y="0" width="1874" height="1874" filterUnits="userSpaceOnUse" color-interpolation-filters="sRGB">
            <feFlood flood-opacity="0" result="BackgroundImageFix"/>
            <feBlend in="SourceGraphic" in2="BackgroundImageFix" result="shape"/>
            <feGaussianBlur stdDeviation="325" result="effect1_foregroundBlur_1_5904"/>
        </filter>
    </defs>
</svg><svg fill="none" viewBox="0 0 100 100" id="soccer" xmlns="http://www.w3.org/2000/svg">
    <path d="M49.877 99.932C22.554 99.932.332 77.7.332 50.387.332 23.075 22.565.842 49.877.842s49.545 22.233 49.545 49.545c0 27.313-22.233 49.545-49.545 49.545Zm0-95.79c-25.501 0-46.246 20.744-46.246 46.245 0 25.501 20.745 46.246 46.246 46.246s46.246-20.745 46.246-46.246c0-25.5-20.745-46.245-46.246-46.245Z" fill="#EBF29D"/>
    <path d="M65.951 19.453c-.25 0-.5-.052-.728-.167a34.317 34.317 0 0 0-15.343-3.58 34.317 34.317 0 0 0-15.342 3.58 1.647 1.647 0 0 1-1.894-.312l-8.515-8.514a1.642 1.642 0 0 1-.468-1.374c.063-.51.354-.958.791-1.218A49.457 49.457 0 0 1 49.891.842a49.556 49.556 0 0 1 25.438 7.026c.438.26.73.708.792 1.218.062.51-.115 1.01-.469 1.374l-8.514 8.514a1.68 1.68 0 0 1-1.176.479h-.01Zm-16.07-7.047a37.64 37.64 0 0 1 15.727 3.404l6.162-6.162a46.152 46.152 0 0 0-21.89-5.506 46.152 46.152 0 0 0-21.889 5.506l6.162 6.162a37.64 37.64 0 0 1 15.727-3.404ZM49.879 99.932a49.557 49.557 0 0 1-25.44-7.025 1.646 1.646 0 0 1-.79-1.218c-.063-.51.114-1.01.468-1.374l8.515-8.514c.5-.5 1.27-.625 1.894-.313a34.318 34.318 0 0 0 15.342 3.58 34.318 34.318 0 0 0 15.343-3.58 1.647 1.647 0 0 1 1.894.313l8.514 8.514c.365.364.531.864.469 1.374-.063.51-.354.957-.791 1.218a49.456 49.456 0 0 1-25.44 7.025h.022Zm-21.89-8.805a46.152 46.152 0 0 0 21.89 5.506c7.66 0 15.186-1.894 21.889-5.506l-6.162-6.162a37.642 37.642 0 0 1-15.727 3.403 37.642 37.642 0 0 1-15.728-3.403l-6.162 6.162ZM90.983 76.627c-.438 0-.854-.166-1.166-.478l-8.514-8.515a1.65 1.65 0 0 1-.313-1.894 34.317 34.317 0 0 0 3.58-15.342 34.317 34.317 0 0 0-3.58-15.343 1.644 1.644 0 0 1 .313-1.894l8.514-8.514c.364-.364.864-.531 1.374-.469.51.063.957.354 1.218.791a49.457 49.457 0 0 1 7.025 25.44 49.457 49.457 0 0 1-7.025 25.438c-.26.437-.708.729-1.218.79h-.208v-.01Zm-6.527-10.512 6.162 6.162a46.152 46.152 0 0 0 5.506-21.89c0-7.66-1.894-15.186-5.506-21.889l-6.162 6.162a37.64 37.64 0 0 1 3.404 15.727 37.64 37.64 0 0 1-3.404 15.728ZM8.773 76.628c-.073 0-.135 0-.198-.01a1.645 1.645 0 0 1-1.218-.792A49.457 49.457 0 0 1 .332 50.387 49.457 49.457 0 0 1 7.357 24.95c.26-.438.708-.729 1.218-.791.51-.063 1.01.114 1.374.468l8.514 8.514c.5.5.625 1.27.313 1.895a34.317 34.317 0 0 0-3.58 15.342 34.318 34.318 0 0 0 3.58 15.342 1.644 1.644 0 0 1-.313 1.895L9.95 76.128c-.312.312-.728.49-1.166.49l-.01.01Zm.364-48.13a46.152 46.152 0 0 0-5.506 21.89c0 7.66 1.895 15.186 5.506 21.889l6.162-6.162a37.64 37.64 0 0 1-3.403-15.728 37.64 37.64 0 0 1 3.403-15.727l-6.162-6.162Z" fill="#EBF29D"/>
    <path d="M49.878 12.396c-20.942 0-37.991 17.039-37.991 37.991 0 20.953 17.038 37.992 37.991 37.992S87.87 71.339 87.87 50.387c0-20.952-17.04-37.991-37.992-37.991Zm21.38 25.511a24.473 24.473 0 0 1 3.247 10.013.368.368 0 0 1-.177.354 31.822 31.822 0 0 0-7.255 6.09.341.341 0 0 1-.385.103l-4.694-1.53a.36.36 0 0 1-.25-.301 32.68 32.68 0 0 0-3.591-11.055.368.368 0 0 1 .031-.385l2.904-3.996a.396.396 0 0 1 .302-.157h.083c3.102.687 6.287.916 9.451.656a.377.377 0 0 1 .354.188l-.02.02ZM59.182 53.291a.378.378 0 0 1-.083.281 24.853 24.853 0 0 1-9.076 6.579.332.332 0 0 1-.281 0 25.093 25.093 0 0 1-9.077-6.579.378.378 0 0 1-.083-.28 30.144 30.144 0 0 1 3.477-10.7.347.347 0 0 1 .24-.178 27.175 27.175 0 0 1 5.589-.583c1.883 0 3.757.198 5.589.583.104.021.187.084.24.177a30.352 30.352 0 0 1 3.476 10.7h-.01Zm-.562-25.834s.125-.104.25-.104c.042 0 .094 0 .146.031 3.83 1.52 7.255 4.018 9.92 7.213a.345.345 0 0 1 .051.386.357.357 0 0 1-.333.218 28.67 28.67 0 0 1-6.994-.78.37.37 0 0 1-.23-.167 29.502 29.502 0 0 1-2.903-6.422.345.345 0 0 1 .104-.375h-.01Zm-14-1.249a25.251 25.251 0 0 1 10.524 0c.135.031.25.135.28.27a31.901 31.901 0 0 0 3.55 8.786.382.382 0 0 1-.02.405l-2.884 3.977a.361.361 0 0 1-.364.145c-3.81-.77-7.838-.77-11.647 0a.361.361 0 0 1-.365-.145l-2.883-3.977a.381.381 0 0 1-.02-.405 31.904 31.904 0 0 0 3.549-8.785.373.373 0 0 1 .28-.271Zm-13.79 8.39c2.664-3.206 6.088-5.704 9.919-7.214a.35.35 0 0 1 .395.073c.052.052.167.177.104.375a29.279 29.279 0 0 1-2.904 6.422.37.37 0 0 1-.229.166 28.67 28.67 0 0 1-6.994.781.357.357 0 0 1-.333-.218.345.345 0 0 1 .052-.386h-.01Zm-2.322 3.31a.368.368 0 0 1 .323-.188h.031c3.175.25 6.36.031 9.451-.656a.352.352 0 0 1 .375.146l2.904 3.997a.37.37 0 0 1 .031.385 32.674 32.674 0 0 0-3.59 11.054.389.389 0 0 1-.25.302l-4.695 1.53a.378.378 0 0 1-.385-.104 31.826 31.826 0 0 0-7.255-6.09.389.389 0 0 1-.177-.353 24.423 24.423 0 0 1 3.248-10.013l-.01-.01Zm1.135 25.646c-.063.198-.24.24-.313.25-.072 0-.239 0-.353-.167a24.695 24.695 0 0 1-3.79-11.668.356.356 0 0 1 .188-.343c.063-.031.23-.104.396.02a28.915 28.915 0 0 1 5.204 4.747.354.354 0 0 1 .083.27 28.567 28.567 0 0 1-1.426 6.902l.01-.01Zm10.284 9.503c-3.248-1.426-6.11-3.518-8.504-6.203a.376.376 0 0 1-.073-.385 31.853 31.853 0 0 0 2.29-9.191.359.359 0 0 1 .25-.313l4.642-1.509s.073-.02.114-.02a.35.35 0 0 1 .27.124 27.694 27.694 0 0 0 9.431 6.86.363.363 0 0 1 .219.333v4.881a.352.352 0 0 1-.219.334 31.832 31.832 0 0 0-8.046 5.027.35.35 0 0 1-.385.052l.01.01Zm16.372 1.03a.347.347 0 0 1-.27.292 25.032 25.032 0 0 1-12.283 0 .364.364 0 0 1-.27-.291.367.367 0 0 1 .146-.375 29.036 29.036 0 0 1 6.13-3.487.332.332 0 0 1 .281 0 29.562 29.562 0 0 1 6.131 3.487.382.382 0 0 1 .146.375h-.01Zm12.064-7.223a24.547 24.547 0 0 1-8.504 6.193.366.366 0 0 1-.385-.052 31.653 31.653 0 0 0-8.046-5.027.363.363 0 0 1-.219-.333v-4.882c0-.146.084-.28.219-.333a27.593 27.593 0 0 0 9.43-6.86.35.35 0 0 1 .27-.124c.043 0 .074 0 .115.02l4.643 1.51c.135.042.239.166.25.312a31.934 31.934 0 0 0 2.29 9.191.355.355 0 0 1-.074.385h.01Zm2.435-3.216a.356.356 0 0 1-.353.166.359.359 0 0 1-.313-.25 29.591 29.591 0 0 1-1.426-6.9c0-.094.021-.198.084-.27a29.303 29.303 0 0 1 5.204-4.747.36.36 0 0 1 .208-.073c.083 0 .146.031.187.052a.34.34 0 0 1 .188.343 24.697 24.697 0 0 1-3.789 11.668l.01.01Z" fill="#EBF29D"/>
</svg><svg fill="none" viewBox="0 0 100 100" id="soccer-right" xmlns="http://www.w3.org/2000/svg">
    <path d="M49.877 99.932C22.554 99.932.332 77.7.332 50.387.332 23.075 22.565.842 49.877.842s49.545 22.233 49.545 49.545c0 27.313-22.233 49.545-49.545 49.545Zm0-95.79c-25.501 0-46.246 20.744-46.246 46.245 0 25.501 20.745 46.246 46.246 46.246s46.246-20.745 46.246-46.246c0-25.5-20.745-46.245-46.246-46.245Z" fill="#EBF29D"/>
    <path d="M65.951 19.453c-.25 0-.5-.052-.728-.167a34.317 34.317 0 0 0-15.343-3.58 34.317 34.317 0 0 0-15.342 3.58 1.647 1.647 0 0 1-1.894-.312l-8.515-8.514a1.642 1.642 0 0 1-.468-1.374c.063-.51.354-.958.791-1.218A49.457 49.457 0 0 1 49.891.842a49.556 49.556 0 0 1 25.438 7.026c.438.26.73.708.792 1.218.062.51-.115 1.01-.469 1.374l-8.514 8.514a1.68 1.68 0 0 1-1.176.479h-.01Zm-16.07-7.047a37.64 37.64 0 0 1 15.727 3.404l6.162-6.162a46.152 46.152 0 0 0-21.89-5.506 46.152 46.152 0 0 0-21.889 5.506l6.162 6.162a37.64 37.64 0 0 1 15.727-3.404ZM49.879 99.932a49.557 49.557 0 0 1-25.44-7.025 1.646 1.646 0 0 1-.79-1.218c-.063-.51.114-1.01.468-1.374l8.515-8.514c.5-.5 1.27-.625 1.894-.313a34.318 34.318 0 0 0 15.342 3.58 34.318 34.318 0 0 0 15.343-3.58 1.647 1.647 0 0 1 1.894.313l8.514 8.514c.365.364.531.864.469 1.374-.063.51-.354.957-.791 1.218a49.456 49.456 0 0 1-25.44 7.025h.022Zm-21.89-8.805a46.152 46.152 0 0 0 21.89 5.506c7.66 0 15.186-1.894 21.889-5.506l-6.162-6.162a37.642 37.642 0 0 1-15.727 3.403 37.642 37.642 0 0 1-15.728-3.403l-6.162 6.162ZM90.983 76.627c-.438 0-.854-.166-1.166-.478l-8.514-8.515a1.65 1.65 0 0 1-.313-1.894 34.317 34.317 0 0 0 3.58-15.342 34.317 34.317 0 0 0-3.58-15.343 1.644 1.644 0 0 1 .313-1.894l8.514-8.514c.364-.364.864-.531 1.374-.469.51.063.957.354 1.218.791a49.457 49.457 0 0 1 7.025 25.44 49.457 49.457 0 0 1-7.025 25.438c-.26.437-.708.729-1.218.79h-.208v-.01Zm-6.527-10.512 6.162 6.162a46.152 46.152 0 0 0 5.506-21.89c0-7.66-1.894-15.186-5.506-21.889l-6.162 6.162a37.64 37.64 0 0 1 3.404 15.727 37.64 37.64 0 0 1-3.404 15.728ZM8.773 76.628c-.073 0-.135 0-.198-.01a1.645 1.645 0 0 1-1.218-.792A49.457 49.457 0 0 1 .332 50.387 49.457 49.457 0 0 1 7.357 24.95c.26-.438.708-.729 1.218-.791.51-.063 1.01.114 1.374.468l8.514 8.514c.5.5.625 1.27.313 1.895a34.317 34.317 0 0 0-3.58 15.342 34.318 34.318 0 0 0 3.58 15.342 1.644 1.644 0 0 1-.313 1.895L9.95 76.128c-.312.312-.728.49-1.166.49l-.01.01Zm.364-48.13a46.152 46.152 0 0 0-5.506 21.89c0 7.66 1.895 15.186 5.506 21.889l6.162-6.162a37.64 37.64 0 0 1-3.403-15.728 37.64 37.64 0 0 1 3.403-15.727l-6.162-6.162Z" fill="#EBF29D"/>
    <path d="M49.878 12.396c-20.942 0-37.991 17.039-37.991 37.991 0 20.953 17.038 37.992 37.991 37.992S87.87 71.339 87.87 50.387c0-20.952-17.04-37.991-37.992-37.991Zm21.38 25.511a24.473 24.473 0 0 1 3.247 10.013.368.368 0 0 1-.177.354 31.822 31.822 0 0 0-7.255 6.09.341.341 0 0 1-.385.103l-4.694-1.53a.36.36 0 0 1-.25-.301 32.68 32.68 0 0 0-3.591-11.055.368.368 0 0 1 .031-.385l2.904-3.996a.396.396 0 0 1 .302-.157h.083c3.102.687 6.287.916 9.451.656a.377.377 0 0 1 .354.188l-.02.02ZM59.182 53.291a.378.378 0 0 1-.083.281 24.853 24.853 0 0 1-9.076 6.579.332.332 0 0 1-.281 0 25.093 25.093 0 0 1-9.077-6.579.378.378 0 0 1-.083-.28 30.144 30.144 0 0 1 3.477-10.7.347.347 0 0 1 .24-.178 27.175 27.175 0 0 1 5.589-.583c1.883 0 3.757.198 5.589.583.104.021.187.084.24.177a30.352 30.352 0 0 1 3.476 10.7h-.01Zm-.562-25.834s.125-.104.25-.104c.042 0 .094 0 .146.031 3.83 1.52 7.255 4.018 9.92 7.213a.345.345 0 0 1 .051.386.357.357 0 0 1-.333.218 28.67 28.67 0 0 1-6.994-.78.37.37 0 0 1-.23-.167 29.502 29.502 0 0 1-2.903-6.422.345.345 0 0 1 .104-.375h-.01Zm-14-1.249a25.251 25.251 0 0 1 10.524 0c.135.031.25.135.28.27a31.901 31.901 0 0 0 3.55 8.786.382.382 0 0 1-.02.405l-2.884 3.977a.361.361 0 0 1-.364.145c-3.81-.77-7.838-.77-11.647 0a.361.361 0 0 1-.365-.145l-2.883-3.977a.381.381 0 0 1-.02-.405 31.904 31.904 0 0 0 3.549-8.785.373.373 0 0 1 .28-.271Zm-13.79 8.39c2.664-3.206 6.088-5.704 9.919-7.214a.35.35 0 0 1 .395.073c.052.052.167.177.104.375a29.279 29.279 0 0 1-2.904 6.422.37.37 0 0 1-.229.166 28.67 28.67 0 0 1-6.994.781.357.357 0 0 1-.333-.218.345.345 0 0 1 .052-.386h-.01Zm-2.322 3.31a.368.368 0 0 1 .323-.188h.031c3.175.25 6.36.031 9.451-.656a.352.352 0 0 1 .375.146l2.904 3.997a.37.37 0 0 1 .031.385 32.674 32.674 0 0 0-3.59 11.054.389.389 0 0 1-.25.302l-4.695 1.53a.378.378 0 0 1-.385-.104 31.826 31.826 0 0 0-7.255-6.09.389.389 0 0 1-.177-.353 24.423 24.423 0 0 1 3.248-10.013l-.01-.01Zm1.135 25.646c-.063.198-.24.24-.313.25-.072 0-.239 0-.353-.167a24.695 24.695 0 0 1-3.79-11.668.356.356 0 0 1 .188-.343c.063-.031.23-.104.396.02a28.915 28.915 0 0 1 5.204 4.747.354.354 0 0 1 .083.27 28.567 28.567 0 0 1-1.426 6.902l.01-.01Zm10.284 9.503c-3.248-1.426-6.11-3.518-8.504-6.203a.376.376 0 0 1-.073-.385 31.853 31.853 0 0 0 2.29-9.191.359.359 0 0 1 .25-.313l4.642-1.509s.073-.02.114-.02a.35.35 0 0 1 .27.124 27.694 27.694 0 0 0 9.431 6.86.363.363 0 0 1 .219.333v4.881a.352.352 0 0 1-.219.334 31.832 31.832 0 0 0-8.046 5.027.35.35 0 0 1-.385.052l.01.01Zm16.372 1.03a.347.347 0 0 1-.27.292 25.032 25.032 0 0 1-12.283 0 .364.364 0 0 1-.27-.291.367.367 0 0 1 .146-.375 29.036 29.036 0 0 1 6.13-3.487.332.332 0 0 1 .281 0 29.562 29.562 0 0 1 6.131 3.487.382.382 0 0 1 .146.375h-.01Zm12.064-7.223a24.547 24.547 0 0 1-8.504 6.193.366.366 0 0 1-.385-.052 31.653 31.653 0 0 0-8.046-5.027.363.363 0 0 1-.219-.333v-4.882c0-.146.084-.28.219-.333a27.593 27.593 0 0 0 9.43-6.86.35.35 0 0 1 .27-.124c.043 0 .074 0 .115.02l4.643 1.51c.135.042.239.166.25.312a31.934 31.934 0 0 0 2.29 9.191.355.355 0 0 1-.074.385h.01Zm2.435-3.216a.356.356 0 0 1-.353.166.359.359 0 0 1-.313-.25 29.591 29.591 0 0 1-1.426-6.9c0-.094.021-.198.084-.27a29.303 29.303 0 0 1 5.204-4.747.36.36 0 0 1 .208-.073c.083 0 .146.031.187.052a.34.34 0 0 1 .188.343 24.697 24.697 0 0 1-3.789 11.668l.01.01Z" fill="#EBF29D"/>
</svg><svg fill="none" viewBox="0 0 15 15" id="telegram" xmlns="http://www.w3.org/2000/svg">
    <path d="M11.418 3.393s.956-.373.876.532c-.026.373-.265 1.678-.451 3.09l-.637 4.18s-.054.613-.532.72c-.478.106-1.195-.373-1.328-.48-.106-.08-1.992-1.278-2.656-1.864-.186-.16-.398-.48.027-.852l2.788-2.663c.32-.32.638-1.065-.69-.16l-3.719 2.53s-.425.266-1.221.027L2.148 7.92s-.637-.4.452-.799c2.656-1.252 5.923-2.53 8.818-3.728Z" fill="#191D0A"/>
</svg><svg fill="none" viewBox="0 0 9 11" id="tiktok" xmlns="http://www.w3.org/2000/svg">
    <path fill-rule="evenodd" clip-rule="evenodd" d="M5.354.374a.57.57 0 0 1 .57.57 2.278 2.278 0 0 0 2.278 2.278.57.57 0 0 1 0 1.139 3.417 3.417 0 0 1-2.278-.87v4.287A2.848 2.848 0 1 1 3.076 4.93a.57.57 0 1 1 0 1.14 1.709 1.709 0 1 0 1.709 1.708V.944a.57.57 0 0 1 .57-.57Z" fill="#191D0A"/>
</svg><svg fill="none" viewBox="0 0 100 100" id="timer" xmlns="http://www.w3.org/2000/svg">
    <path d="M49.615 99.407c-12.698 0-25.386-4.83-35.056-14.5-19.329-19.328-19.329-50.772 0-70.101C23.927 5.438 36.376.286 49.615.286c13.24 0 25.689 5.152 35.057 14.52C104 34.135 104 65.579 84.672 84.908c-9.66 9.66-22.358 14.5-35.057 14.5ZM17.161 82.306c17.893 17.892 47.005 17.892 64.898 0 17.892-17.893 17.892-47.006 0-64.898C73.389 8.738 61.866 3.97 49.605 3.97S25.82 8.748 17.15 17.408C-.742 35.3-.742 64.413 17.15 82.306h.01Z" fill="#DA7DB5"/>
    <path d="m51.45 39.422-9.18 12.865h5.505v9.18l9.18-12.854H51.45v-9.19Z" fill="#DA7DB5"/>
    <path d="M49.605 32.272c-10.054 0-18.215 8.16-18.215 18.215 0 10.054 8.16 18.194 18.215 18.194s18.216-8.16 18.216-18.194c0-10.034-8.16-18.215-18.215-18.215Zm0 34.16c-8.826 0-15.987-7.16-15.987-15.987s7.161-15.988 15.987-15.988c8.827 0 15.988 7.161 15.988 15.988s-7.161 15.988-15.988 15.988Z" fill="#DA7DB5"/>
    <path d="M77.763 21.707c-7.516-7.526-17.518-11.658-28.156-11.658-10.638 0-20.63 4.143-28.155 11.658-15.52 15.519-15.52 40.78 0 56.31 7.765 7.765 17.955 11.648 28.155 11.648 10.2 0 20.39-3.883 28.156-11.648 15.519-15.519 15.519-40.78 0-56.31Zm-28.156 53.49c-13.614 0-24.7-11.085-24.7-24.7 0-6.016 2.155-11.533 5.736-15.842l-3.019-3.018a2.23 2.23 0 0 1 0-3.144c.864-.874 2.27-.864 3.143 0l3.019 3.019c3.747-3.133 8.462-5.194 13.604-5.631v-2.04h-2.04a3.31 3.31 0 0 1-3.29-3.29v-1.717a3.296 3.296 0 0 1 3.29-3.29h8.535c1.8 0 3.29 1.468 3.29 3.29v1.717a3.31 3.31 0 0 1-3.29 3.29h-2.04v2.04c5.152.447 9.857 2.508 13.604 5.63l3.019-3.018a2.23 2.23 0 0 1 3.143 0 2.23 2.23 0 0 1 0 3.144l-3.019 3.018c3.581 4.31 5.736 9.815 5.736 15.842 0 13.615-11.086 24.7-24.7 24.7h-.02Z" fill="#DA7DB5"/>
</svg><svg fill="none" viewBox="0 0 15 15" id="twitter" xmlns="http://www.w3.org/2000/svg">
    <path d="M11.982 5.423v.316c0 3.18-2.323 6.824-6.574 6.824a6.257 6.257 0 0 1-3.533-1.09 4.528 4.528 0 0 0 3.42-.988 2.244 2.244 0 0 1-1.339-.473 2.387 2.387 0 0 1-.82-1.198c.145.032.292.048.439.048.205 0 .41-.029.608-.085a2.288 2.288 0 0 1-1.332-.832 2.448 2.448 0 0 1-.52-1.52v-.032c.32.185.68.287 1.046.296a2.382 2.382 0 0 1-.97-1.438 2.46 2.46 0 0 1 .243-1.738 6.614 6.614 0 0 0 2.127 1.78c.822.432 1.721.68 2.64.727a2.089 2.089 0 0 1-.063-.55c-.017-.49.112-.973.368-1.384.257-.41.63-.73 1.068-.913.437-.183.919-.222 1.379-.11.46.11.875.366 1.19.73a4.635 4.635 0 0 0 1.468-.583 2.401 2.401 0 0 1-1.03 1.348 4.69 4.69 0 0 0 1.328-.398 4.844 4.844 0 0 1-1.143 1.263Z" fill="#191D0A"/>
</svg><svg fill="none" viewBox="0 0 14 9" id="vk" xmlns="http://www.w3.org/2000/svg">
    <path fill-rule="evenodd" clip-rule="evenodd" d="M.311.54A.317.317 0 0 1 .572.4h2.212c.124 0 .237.075.29.193.135.298.266.599.395.897.3.69.593 1.365.908 1.938.223.406.446.738.673.974.096.1.19.18.28.239V1.82L4.668.953a.356.356 0 0 1-.04-.36.321.321 0 0 1 .29-.194h3.075c.178 0 .322.152.322.34v3.187c.368-.383.655-.82.918-1.288.151-.27.292-.545.435-.827l.106-.205c.18-.35.368-.709.584-1.054A.318.318 0 0 1 10.626.4h2.119c.1 0 .194.049.255.133a.356.356 0 0 1 .056.294c-.405 1.623-1.195 2.756-1.948 3.837l-.089.128c1.022.967 1.841 2.15 2.403 3.476a.357.357 0 0 1-.024.324.318.318 0 0 1-.27.155h-2.33a.312.312 0 0 1-.211-.082 6.937 6.937 0 0 1-.654-.706l-.117-.142c-.154-.186-.298-.36-.453-.526-.298-.315-.618-.572-1.048-.717v1.833c0 .171-.12.316-.282.337-2.614.351-4.372-1.007-5.556-2.747C1.339 4.326.704 2.267.303.965L.266.845A.356.356 0 0 1 .31.54Zm.705.54C1.42 2.378 2.013 4.15 3 5.6 4.049 7.14 5.517 8.282 7.67 8.1V6.147c0-.099.04-.193.112-.258a.31.31 0 0 1 .258-.078c.808.13 1.34.536 1.778 1 .172.182.334.379.488.567l.11.132c.165.198.327.386.503.557h1.696a9.579 9.579 0 0 0-2.239-2.962.354.354 0 0 1-.053-.46c.088-.13.177-.256.264-.383.682-.98 1.332-1.914 1.726-3.182h-1.512c-.162.274-.312.558-.462.851l-.102.2c-.144.282-.292.572-.45.855-.396.704-.874 1.395-1.608 1.948a.307.307 0 0 1-.335.025.343.343 0 0 1-.174-.302V1.08H5.593l.31.406c.046.06.071.136.071.214v3.42a.35.35 0 0 1-.108.254.31.31 0 0 1-.25.084c-.395-.049-.731-.273-1.017-.57-.287-.298-.543-.69-.779-1.118-.331-.603-.645-1.326-.952-2.031-.096-.223-.192-.444-.288-.659H1.016Z" fill="#191D0A"/>
    <path d="M3 5.6c-.987-1.45-1.58-3.222-1.984-4.52H2.58c.096.215.192.436.288.659.307.705.62 1.428.952 2.03.236.43.492.821.779 1.119.286.297.622.521 1.016.57a.31.31 0 0 0 .251-.084.35.35 0 0 0 .108-.254V1.7a.353.353 0 0 0-.071-.214l-.31-.406H7.67v3.577c0 .127.067.244.174.302a.307.307 0 0 0 .335-.025c.734-.553 1.212-1.244 1.607-1.948.159-.283.307-.573.45-.856l.103-.199c.15-.293.3-.577.462-.85h1.512c-.394 1.267-1.044 2.201-1.726 3.181a86.83 86.83 0 0 0-.264.382.354.354 0 0 0 .053.46 9.579 9.579 0 0 1 2.239 2.963H10.92a7.03 7.03 0 0 1-.503-.557 46.373 46.373 0 0 1-.11-.132 11.271 11.271 0 0 0-.488-.567c-.438-.464-.97-.87-1.778-1a.31.31 0 0 0-.258.078.349.349 0 0 0-.112.258V8.1C5.517 8.282 4.049 7.14 3 5.6Z" fill="#191D0A"/>
</svg><svg fill="none" viewBox="0 0 100 222" id="world" xmlns="http://www.w3.org/2000/svg">
    <path d="M.547 50.461C.547 23.14 22.78.906 50.102.906c27.323 0 49.556 22.233 49.556 49.555 0 27.323-22.233 49.556-49.556 49.556C22.78 100.017.547 77.784.547 50.461Zm95.54 0c0-25.355-20.63-45.985-45.985-45.985S4.117 25.106 4.117 50.46c0 25.356 20.63 45.986 45.985 45.986 25.356 0 45.986-20.63 45.986-45.986ZM.544 171.607a1.78 1.78 0 1 1 3.56 0c0 25.356 20.63 45.986 45.985 45.986 25.356 0 45.986-20.63 45.986-45.986a1.78 1.78 0 1 1 3.56 0c0 27.323-22.234 49.556-49.556 49.556-27.323 0-49.556-22.233-49.556-49.556h.021Z" fill="#11F8A5"/>
    <path d="M98.143 49.264H76.441v4.278h21.702v-4.278ZM23.42 49.264H1.72v4.278H23.42v-4.278ZM52.41 78.242h-4.277v21.702h4.278V78.242ZM52.41 2.863h-4.277v21.701h4.278V2.863Z" fill="#11F8A5"/>
    <path d="M75.786 24.252c-14.843-14.843-38.918-14.843-53.771 0-14.843 14.843-14.843 38.918 0 53.771 14.843 14.843 38.918 14.843 53.77 0 14.844-14.842 14.844-38.918 0-53.77Zm-19.537 3.216a24.787 24.787 0 0 1 11.23 7.266l.584.655-.854.198c-2.258.531-4.673.968-7.171 1.29l-.448.063-.125-.437a32.867 32.867 0 0 0-1.468-4.07c-.697-1.592-1.477-2.987-2.331-4.163l-.937-1.28 1.52.468v.01ZM38.877 49.951l.02-.541c.105-3.29.47-6.433 1.094-9.326l.093-.458.469.041a94.965 94.965 0 0 0 16.768-.052l.468-.041.104.458c.635 2.925 1 6.078 1.093 9.378v.541H38.877Zm20.11 2.415v.541c-.115 3.3-.48 6.454-1.114 9.378l-.104.458-.469-.041c-5.444-.51-11.293-.52-16.768-.052l-.469.041-.093-.458c-.625-2.893-.99-6.026-1.093-9.326l-.021-.541h20.13ZM48.931 26.563c3.029 0 6.11 3.84 8.035 10.034l.198.624-.656.052a92.816 92.816 0 0 1-15.176.042l-.655-.052.197-.635c1.926-6.214 5.017-10.076 8.057-10.076v.01Zm-18.653 8.285a24.809 24.809 0 0 1 11.335-7.37l1.53-.468-.947 1.291c-.853 1.166-1.644 2.571-2.331 4.153a33.577 33.577 0 0 0-1.489 4.143l-.125.427-.447-.053a70.811 70.811 0 0 1-7.245-1.259l-.864-.198.583-.666ZM24.201 49.39a24.852 24.852 0 0 1 3.768-11.46l.208-.323.375.094a71.859 71.859 0 0 0 8.555 1.603l.563.073-.115.562c-.625 3.018-.978 6.214-1.072 9.503v.51H24.169l.042-.562h-.01Zm3.976 15.321-.208-.322a24.812 24.812 0 0 1-3.768-11.46l-.042-.562h12.303v.51c.104 3.289.468 6.495 1.083 9.503l.114.562-.562.073a72.235 72.235 0 0 0-8.556 1.603l-.375.093h.01ZM41.614 74.85a24.808 24.808 0 0 1-11.335-7.37l-.583-.666.864-.198c2.29-.52 4.726-.947 7.245-1.26l.447-.051.125.427a33.583 33.583 0 0 0 1.489 4.142c.697 1.593 1.478 2.987 2.331 4.164l.947 1.29-1.53-.468v-.01Zm7.318.905c-3.04 0-6.131-3.862-8.057-10.076l-.197-.634.655-.052a93.489 93.489 0 0 1 15.176.041l.656.052-.198.625c-1.936 6.183-5.017 10.034-8.035 10.034v.01Zm18.548-8.17a24.843 24.843 0 0 1-11.231 7.264l-1.52.469.937-1.28c.854-1.166 1.634-2.571 2.332-4.164a35.326 35.326 0 0 0 1.467-4.07l.125-.437.448.063c2.498.322 4.913.76 7.171 1.29l.854.209-.583.655Zm6.172-14.656a24.79 24.79 0 0 1-3.84 11.585l-.209.322-.374-.093c-2.634-.698-5.496-1.25-8.494-1.655l-.562-.073.114-.552c.625-3.018.99-6.235 1.083-9.576v-.51h12.313l-.041.562.01-.01ZM61.391 49.95v-.51c-.104-3.341-.469-6.568-1.093-9.576l-.115-.552.562-.072c2.998-.406 5.85-.958 8.494-1.655l.375-.094.208.323a24.637 24.637 0 0 1 3.84 11.584l.042.563H61.401l-.01-.01ZM.484 172.357V52.762a1.78 1.78 0 1 1 3.56 0v119.595a1.78 1.78 0 1 1-3.56 0ZM96.035 172.628V53.032a1.78 1.78 0 1 1 3.56 0v119.596a1.779 1.779 0 1 1-3.56 0Z" fill="#11F8A5"/>
</svg><svg fill="none" viewBox="0 0 13 9" id="youtube" xmlns="http://www.w3.org/2000/svg">
    <path d="M5.375 6.188 8.295 4.5l-2.92-1.688v3.376Zm6.502-4.405c.074.264.124.619.158 1.069.04.45.056.838.056 1.175l.034.473c0 1.232-.09 2.138-.248 2.717-.14.506-.466.832-.973.973-.264.073-.748.124-1.49.158-.732.039-1.4.056-2.02.056l-.894.034c-2.357 0-3.825-.09-4.404-.248-.507-.14-.833-.467-.974-.973C1.05 6.953 1 6.598.966 6.148c-.04-.45-.056-.838-.056-1.175L.875 4.5c0-1.232.09-2.138.248-2.717.14-.506.466-.832.973-.973.264-.073.748-.124 1.49-.158.732-.039 1.4-.056 2.02-.056L6.5.563c2.357 0 3.825.09 4.404.247.507.14.833.467.973.973Z" fill="#191D0A"/>
</svg></svg>