<svg width="100" height="221" viewBox="0 0 100 221" fill="none" xmlns="http://www.w3.org/2000/svg">
<path d="M98.611 171.065C98.611 198.112 76.602 220.121 49.5555 220.121C22.509 220.121 0.5 198.112 0.5 171.065C0.5 144.018 22.509 122.01 49.5555 122.01C76.602 122.01 98.611 144.018 98.611 171.065ZM3.07015 171.065C3.07015 196.697 23.9239 217.55 49.5555 217.55C75.1871 217.55 96.0408 196.697 96.0408 171.065C96.0408 145.433 75.1871 124.58 49.5555 124.58C23.9239 124.58 3.07015 145.433 3.07015 171.065Z" fill="#11F8A5" stroke="black"/>
<path d="M98.6319 49.4293H98.6136V49.9293C98.6136 50.6401 98.0379 51.2092 97.3338 51.2092C96.6315 51.2092 96.0539 50.6315 96.0539 49.9293C96.0539 24.2977 75.2001 3.44393 49.5685 3.44393C23.9369 3.44393 3.08317 24.2977 3.08317 49.9293C3.08317 50.6401 2.50745 51.2092 1.80327 51.2092C1.10103 51.2092 0.523438 50.6316 0.523438 49.9293C0.523438 22.8828 22.5324 0.873779 49.5789 0.873779C76.4586 0.873779 98.3627 22.612 98.6319 49.4293Z" fill="#11F8A5" stroke="black"/>
<path d="M43.9881 158.846H45.882V166.354L43.1417 165.667L43.14 165.667C41.6818 165.307 40.6367 164.057 40.5224 162.581V162.311C40.5224 160.402 42.0784 158.846 43.9881 158.846Z" fill="#11F8A5" stroke="black"/>
<path d="M55.9593 176.463L55.9593 176.463L55.961 176.463C57.5073 176.845 58.5891 178.227 58.5891 179.819C58.5891 181.728 57.0331 183.284 55.1234 183.284H53.219V175.776L55.9593 176.463Z" fill="#11F8A5" stroke="black"/>
<path d="M65.4608 165.205H65.9608V164.705V161.52C65.9608 155.977 61.4589 151.476 55.916 151.476H53.231V143.919V143.419H52.731H46.3713H45.8713V143.919V151.476H43.9773C38.0077 151.476 33.152 156.331 33.152 162.301C33.152 167.277 36.5247 171.588 41.347 172.799L41.3473 172.799L45.8713 173.932V183.284H43.1863C41.7044 183.284 40.5012 182.073 40.5012 180.599V177.414V176.914H40.0012H33.6416H33.1416V177.414V180.599C33.1416 186.142 37.6434 190.644 43.1863 190.644H45.8713V198.2V198.7H46.3713H52.731H53.231V198.2V190.644H55.125C61.0947 190.644 65.9504 185.788 65.9504 179.819C65.9504 174.842 62.5776 170.532 57.7553 169.321L57.755 169.321L53.231 168.187V158.835H55.916C57.3979 158.835 58.6011 160.047 58.6011 161.52V164.705V165.205H59.1011H65.4608ZM9.7229 171.075C9.7229 149.108 27.5996 131.242 49.5564 131.242C71.5235 131.242 89.3898 149.108 89.3898 171.075C89.3898 193.043 71.5235 210.909 49.5564 210.909C27.5893 210.909 9.7229 193.043 9.7229 171.075Z" fill="#11F8A5" stroke="black"/>
<path d="M99.173 49.1695V168.765C99.173 169.754 98.3716 170.545 97.3932 170.545C96.4148 170.545 95.6133 169.743 95.6133 168.765V49.1695C95.6133 48.1807 96.4148 47.3896 97.3932 47.3896C98.3716 47.3896 99.173 48.1911 99.173 49.1695Z" fill="#11F8A5"/>
<path d="M3.63786 48.9092V168.504C3.63786 169.493 2.83637 170.284 1.85796 170.284C0.879549 170.284 0.078125 169.483 0.078125 168.504V48.9092C0.078125 47.9204 0.879549 47.1294 1.85796 47.1294C2.83637 47.1294 3.63786 47.9308 3.63786 48.9092Z" fill="#11F8A5"/>
</svg>
