<svg width="100" height="221" viewBox="0 0 100 221" fill="none" xmlns="http://www.w3.org/2000/svg">
<path d="M14.617 206.26C-4.87267 186.77 -4.87267 155.061 14.617 135.572C34.1068 116.082 65.8155 116.082 85.3052 135.572C104.795 155.061 104.795 186.77 85.3052 206.26C65.8155 225.75 34.1068 225.75 14.617 206.26ZM82.9496 137.927C64.7585 119.736 35.1637 119.736 16.9774 137.927C-1.21362 156.118 -1.21362 185.713 16.9774 203.899C35.1685 222.09 64.7633 222.09 82.9496 203.899C101.141 185.708 101.141 156.114 82.9496 137.927Z" fill="#C92626"/>
<path d="M83.4928 160.313C83.3175 160.138 83.1753 159.915 83.0947 159.668C81.3647 154.55 78.5398 150.014 74.7006 146.174C70.8662 142.34 66.3255 139.515 61.2067 137.78C60.5289 137.548 60.0739 136.918 60.0739 136.202V124.054C60.0739 123.542 60.3108 123.059 60.7137 122.741C61.1213 122.424 61.6474 122.315 62.1404 122.438C70.8899 124.628 78.9 129.168 85.2986 135.572C91.6972 141.975 96.2379 149.98 98.4277 158.73C98.5509 159.228 98.4372 159.754 98.1243 160.161C97.8068 160.569 97.3233 160.801 96.8114 160.801H84.6635C84.2085 160.801 83.7914 160.616 83.4833 160.308L83.4928 160.313ZM77.0562 143.819C80.9713 147.734 83.9241 152.322 85.8484 157.469H94.6359C92.4272 150.113 88.4126 143.392 82.9477 137.927C77.4828 132.462 70.7619 128.448 63.4106 126.244V135.031C68.558 136.951 73.146 139.904 77.061 143.824L77.0562 143.819Z" fill="#C92626"/>
<path d="M14.6157 206.26C8.21713 199.861 3.67173 191.851 1.48198 183.101C1.35874 182.604 1.4725 182.078 1.78532 181.675C2.10289 181.267 2.58632 181.035 3.09821 181.035H15.2461C15.9618 181.035 16.5969 181.49 16.8244 182.168C18.5544 187.287 21.3793 191.823 25.2185 195.662C29.0529 199.496 33.5936 202.321 38.7125 204.056C39.3903 204.283 39.8452 204.918 39.8452 205.634V217.782C39.8452 218.294 39.6083 218.777 39.2054 219.095C38.7978 219.412 38.2717 219.521 37.774 219.398C29.0245 217.208 21.0191 212.668 14.6157 206.269V206.26ZM5.28324 184.362C7.49195 191.718 11.5065 198.439 16.9714 203.904C22.4363 209.369 29.1572 213.384 36.5133 215.592V206.805C31.3659 204.885 26.7778 201.932 22.8628 198.017C18.9478 194.102 15.995 189.514 14.0707 184.367H5.28324V184.362Z" fill="#C92626"/>
<path d="M60.5621 218.953C60.2492 218.64 60.0739 218.218 60.0739 217.773V205.625C60.0739 204.909 60.5289 204.274 61.2067 204.046C66.3255 202.316 70.8614 199.492 74.7006 195.652C78.5398 191.813 81.3599 187.277 83.0946 182.158C83.3221 181.481 83.9573 181.026 84.673 181.026H96.8209C97.3328 181.026 97.8163 181.263 98.1338 181.665C98.4514 182.068 98.5604 182.599 98.4372 183.092C96.2427 191.842 91.702 199.847 85.3034 206.25C78.9047 212.654 70.8946 217.194 62.1451 219.384C61.6474 219.507 61.1213 219.394 60.7184 219.081C60.6663 219.033 60.6142 218.991 60.5668 218.943L60.5621 218.953ZM63.4059 206.8V215.588C70.7619 213.379 77.4828 209.364 82.9477 203.9C88.4126 198.435 92.4224 191.714 94.6359 184.358H85.8484C83.9289 189.505 80.976 194.088 77.0562 198.008C73.1412 201.923 68.5532 204.881 63.4059 206.8Z" fill="#C92626"/>
<path d="M1.91877 160.313C1.87137 160.266 1.82399 160.213 1.78607 160.161C1.46851 159.758 1.35949 159.228 1.48272 158.73C3.67247 149.98 8.21313 141.97 14.6165 135.572C21.0199 129.173 29.0252 124.628 37.7747 122.438C38.2724 122.315 38.7985 122.428 39.2014 122.741C39.6043 123.059 39.8413 123.542 39.8413 124.054V136.202C39.8413 136.918 39.3863 137.553 38.7085 137.78C33.5896 139.51 29.0536 142.335 25.2145 146.174C21.38 150.009 18.5552 154.549 16.8204 159.668C16.5929 160.346 15.9578 160.801 15.2421 160.801H3.09424C2.6487 160.801 2.2221 160.626 1.91402 160.318L1.91877 160.313ZM36.5093 126.244C29.1532 128.453 22.4323 132.467 16.9674 137.932C11.5025 143.397 7.49269 150.118 5.27924 157.474H14.0667C15.9863 152.327 18.9391 147.743 22.8588 143.824C26.7738 139.909 31.3619 136.956 36.5093 135.031V126.244Z" fill="#C92626"/>
<path d="M77.0603 143.819C62.1207 128.879 37.806 128.874 22.8664 143.819C7.92205 158.763 7.92679 183.073 22.8664 198.013C37.806 212.952 62.116 212.957 77.0603 198.013C92.0046 183.068 91.9999 158.758 77.0603 143.819Z" fill="#C92626"/>
<path d="M63.7793 184.593L36.2517 184.776C35.092 184.784 34.1582 185.73 34.1659 186.889L34.1724 187.871C34.1801 189.03 35.1264 189.964 36.286 189.956L63.8137 189.774C64.9733 189.766 65.9071 188.82 65.8994 187.66L65.8929 186.679C65.8852 185.519 64.9389 184.586 63.7793 184.593Z" fill="#191D0A"/>
<path d="M40.0021 167.977C39.7035 167.977 39.4002 167.911 39.1253 167.778L36.9781 166.74C36.0444 166.285 35.6178 165.181 36.0065 164.218L36.9924 161.763C37.2957 161.014 38.0114 160.526 38.8172 160.521C39.1632 160.521 39.5044 160.607 39.8077 160.782L42.3672 162.242C42.8459 162.512 43.1919 162.981 43.3152 163.522C43.4384 164.062 43.3294 164.631 43.0165 165.086L41.6136 167.119C41.2487 167.65 40.642 167.972 39.9973 167.972L40.0021 167.977Z" fill="#191D0A"/>
<path d="M59.8208 167.844C59.1762 167.844 58.5649 167.536 58.1952 167.01L56.8064 165.053C56.4841 164.602 56.3704 164.034 56.4841 163.493C56.5979 162.953 56.9391 162.479 57.4178 162.199L60.0578 160.65C60.3564 160.474 60.6977 160.379 61.0437 160.375C61.8495 160.37 62.5747 160.849 62.8875 161.593L63.8828 163.977C64.281 164.934 63.8686 166.048 62.9444 166.513L60.6977 167.636C60.4276 167.769 60.1242 167.844 59.8256 167.844H59.8208Z" fill="#191D0A"/>
<path d="M37.8395 182.936C36.6309 182.945 35.5455 182.187 35.1332 181.049L30.5404 168.408C30.2465 168.551 29.9337 168.66 29.6161 168.74C29.2417 168.835 28.8625 168.882 28.4786 168.882C28.2558 168.882 28.0378 168.873 27.8245 168.844C25.4309 168.541 23.6157 166.489 23.6014 164.071C23.5825 161.398 25.7438 159.209 28.417 159.19C31.0902 159.171 33.2799 161.332 33.2941 164.005C33.2941 164.621 33.1898 165.214 32.9718 165.768C32.8533 166.072 32.7064 166.361 32.5358 166.636L41.2711 170.864L47.9541 161.18C47.6745 161.062 47.4043 160.915 47.1483 160.739C46.6649 160.412 46.243 160.005 45.9018 159.526C45.3235 158.711 45.0107 157.749 45.006 156.753C44.987 154.08 47.1483 151.89 49.8215 151.871C49.94 151.871 50.0633 151.871 50.1818 151.881C52.5753 152.042 54.5091 153.962 54.6845 156.355C54.7651 157.488 54.4665 158.573 53.8219 159.498C53.4806 159.981 53.0635 160.393 52.5848 160.721C52.3336 160.896 52.0634 161.043 51.7838 161.161L58.5853 170.745L67.1784 166.446C67.0172 166.138 66.8893 165.816 66.7945 165.479C66.6807 165.072 66.6191 164.645 66.6191 164.214C66.6191 164.019 66.6286 163.825 66.6475 163.635C66.9224 161.199 68.9795 159.351 71.4299 159.337C74.1031 159.318 76.2929 161.479 76.3071 164.152C76.326 166.702 74.3448 168.844 71.7996 169.02L71.4963 169.029C71.0033 169.029 70.5199 168.963 70.0507 168.821C69.7473 168.726 69.4534 168.607 69.1785 168.456L64.8654 180.85C64.472 181.992 63.3913 182.76 62.1827 182.77L37.8395 182.931V182.936Z" fill="#191D0A"/>
<path d="M99.5402 50.0401V169.635C99.5402 170.624 98.7387 171.415 97.7603 171.415C96.7819 171.415 95.9805 170.614 95.9805 169.635V50.0401C95.9805 49.0513 96.7819 48.2603 97.7603 48.2603C98.7387 48.2603 99.5402 49.0617 99.5402 50.0401Z" fill="#C92626"/>
<path d="M3.99724 49.7799V169.375C3.99724 170.364 3.19581 171.155 2.2174 171.155C1.23899 171.155 0.4375 170.354 0.4375 169.375V49.7799C0.4375 48.791 1.23899 48 2.2174 48C3.19581 48 3.99724 48.8015 3.99724 49.7799Z" fill="#C92626"/>
<path d="M99.4975 49.6971H99.479V50.1971C99.479 50.9225 98.8942 51.5 98.1832 51.5C97.474 51.5 96.8873 50.9138 96.8873 50.1971C96.8873 24.2391 75.8503 3.11637 49.9895 3.11637C24.1286 3.11637 3.09167 24.2391 3.09167 50.1971C3.09167 50.9225 2.5069 51.5 1.7958 51.5C1.08663 51.5 0.5 50.9139 0.5 50.1971C0.5 22.7949 22.7102 0.5 50 0.5C77.1236 0.5 99.2293 22.5243 99.4975 49.6971Z" fill="#C92626" stroke="#C92626"/>
</svg>
