<svg width="9" height="11" viewBox="0 0 9 11" fill="none" xmlns="http://www.w3.org/2000/svg">
<path fill-rule="evenodd" clip-rule="evenodd" d="M5.3543 0.374023C5.66884 0.374023 5.92383 0.629011 5.92383 0.943555C5.92383 1.54775 6.16385 2.1272 6.59108 2.55443C7.01831 2.98166 7.59776 3.22168 8.20196 3.22168C8.5165 3.22168 8.77149 3.47667 8.77149 3.79121C8.77149 4.10575 8.5165 4.36074 8.20196 4.36074C7.35925 4.36074 6.54863 4.04946 5.92383 3.49058V7.77793C5.92383 8.34114 5.75682 8.89171 5.44391 9.36C5.13101 9.8283 4.68627 10.1933 4.16592 10.4088C3.64558 10.6244 3.07301 10.6807 2.52062 10.5709C1.96823 10.461 1.46083 10.1898 1.06258 9.79153C0.664324 9.39328 0.393111 8.88587 0.283234 8.33348C0.173356 7.78109 0.229749 7.20852 0.445282 6.68818C0.660814 6.16784 1.02581 5.72309 1.4941 5.41019C1.96239 5.09729 2.51296 4.93027 3.07617 4.93027C3.39072 4.93027 3.6457 5.18526 3.6457 5.4998C3.6457 5.81435 3.39072 6.06934 3.07617 6.06934C2.73825 6.06934 2.40791 6.16954 2.12693 6.35729C1.84595 6.54503 1.62696 6.81187 1.49764 7.12408C1.36832 7.43628 1.33448 7.77982 1.40041 8.11126C1.46634 8.44269 1.62906 8.74714 1.86802 8.98609C2.10697 9.22504 2.41141 9.38777 2.74284 9.45369C3.07428 9.51962 3.41782 9.48578 3.73002 9.35646C4.04223 9.22715 4.30907 9.00815 4.49682 8.72717C4.68456 8.4462 4.78477 8.11586 4.78477 7.77793V0.943555C4.78477 0.629011 5.03976 0.374023 5.3543 0.374023Z" fill="#191D0A"/>
</svg>
