<svg width="13" height="9" viewBox="0 0 13 9" fill="none" xmlns="http://www.w3.org/2000/svg">
<path d="M5.375 6.1875L8.29437 4.5L5.375 2.8125V6.1875ZM11.8775 1.78313C11.9506 2.0475 12.0013 2.40188 12.035 2.85188C12.0744 3.30188 12.0913 3.69 12.0913 4.0275L12.125 4.5C12.125 5.73188 12.035 6.6375 11.8775 7.21688C11.7369 7.72313 11.4106 8.04938 10.9044 8.19C10.64 8.26313 10.1562 8.31375 9.41375 8.3475C8.6825 8.38688 8.01312 8.40375 7.39437 8.40375L6.5 8.4375C4.14313 8.4375 2.675 8.3475 2.09563 8.19C1.58938 8.04938 1.26313 7.72313 1.1225 7.21688C1.04938 6.9525 0.99875 6.59813 0.965 6.14813C0.925625 5.69813 0.90875 5.31 0.90875 4.9725L0.875 4.5C0.875 3.26813 0.965 2.3625 1.1225 1.78313C1.26313 1.27688 1.58938 0.950625 2.09563 0.81C2.36 0.736875 2.84375 0.68625 3.58625 0.6525C4.3175 0.613125 4.98688 0.59625 5.60563 0.59625L6.5 0.5625C8.85687 0.5625 10.325 0.6525 10.9044 0.81C11.4106 0.950625 11.7369 1.27688 11.8775 1.78313Z" fill="#191D0A"/>
</svg>
